<svg xmlns="http://www.w3.org/2000/svg" xmlns:xlink="http://www.w3.org/1999/xlink" width="100" zoomAndPan="magnify" viewBox="0 0 75 74.999997" height="100" preserveAspectRatio="xMidYMid meet" version="1.0"><defs><clipPath id="id1"><path d="M 19 26 L 38 26 L 38 53 L 19 53 Z M 19 26 " clip-rule="nonzero"/></clipPath><clipPath id="id2"><path d="M 22.140625 0 L 78.242188 23.304688 L 58.96875 69.710938 L 2.867188 46.40625 Z M 22.140625 0 " clip-rule="nonzero"/></clipPath><clipPath id="id3"><path d="M 22.140625 0 L 78.242188 23.304688 L 58.96875 69.710938 L 2.867188 46.40625 Z M 22.140625 0 " clip-rule="nonzero"/></clipPath><clipPath id="id4"><path d="M 22.140625 0 L 78.242188 23.304688 L 58.96875 69.710938 L 2.867188 46.40625 Z M 22.140625 0 " clip-rule="nonzero"/></clipPath><clipPath id="id5"><path d="M 19 44 L 29 44 L 29 53 L 19 53 Z M 19 44 " clip-rule="nonzero"/></clipPath><clipPath id="id6"><path d="M 22.140625 0 L 78.242188 23.304688 L 58.96875 69.710938 L 2.867188 46.40625 Z M 22.140625 0 " clip-rule="nonzero"/></clipPath><clipPath id="id7"><path d="M 22.140625 0 L 78.242188 23.304688 L 58.96875 69.710938 L 2.867188 46.40625 Z M 22.140625 0 " clip-rule="nonzero"/></clipPath><clipPath id="id8"><path d="M 22.140625 0 L 78.242188 23.304688 L 58.96875 69.710938 L 2.867188 46.40625 Z M 22.140625 0 " clip-rule="nonzero"/></clipPath><clipPath id="id9"><path d="M 19 49 L 23 49 L 23 51 L 19 51 Z M 19 49 " clip-rule="nonzero"/></clipPath><clipPath id="id10"><path d="M 22.140625 0 L 78.242188 23.304688 L 58.96875 69.710938 L 2.867188 46.40625 Z M 22.140625 0 " clip-rule="nonzero"/></clipPath><clipPath id="id11"><path d="M 22.140625 0 L 78.242188 23.304688 L 58.96875 69.710938 L 2.867188 46.40625 Z M 22.140625 0 " clip-rule="nonzero"/></clipPath><clipPath id="id12"><path d="M 22.140625 0 L 78.242188 23.304688 L 58.96875 69.710938 L 2.867188 46.40625 Z M 22.140625 0 " clip-rule="nonzero"/></clipPath><clipPath id="id13"><path d="M 19 48 L 23 48 L 23 50 L 19 50 Z M 19 48 " clip-rule="nonzero"/></clipPath><clipPath id="id14"><path d="M 22.140625 0 L 78.242188 23.304688 L 58.96875 69.710938 L 2.867188 46.40625 Z M 22.140625 0 " clip-rule="nonzero"/></clipPath><clipPath id="id15"><path d="M 22.140625 0 L 78.242188 23.304688 L 58.96875 69.710938 L 2.867188 46.40625 Z M 22.140625 0 " clip-rule="nonzero"/></clipPath><clipPath id="id16"><path d="M 22.140625 0 L 78.242188 23.304688 L 58.96875 69.710938 L 2.867188 46.40625 Z M 22.140625 0 " clip-rule="nonzero"/></clipPath><clipPath id="id17"><path d="M 21 50 L 24 50 L 24 52 L 21 52 Z M 21 50 " clip-rule="nonzero"/></clipPath><clipPath id="id18"><path d="M 22.140625 0 L 78.242188 23.304688 L 58.96875 69.710938 L 2.867188 46.40625 Z M 22.140625 0 " clip-rule="nonzero"/></clipPath><clipPath id="id19"><path d="M 22.140625 0 L 78.242188 23.304688 L 58.96875 69.710938 L 2.867188 46.40625 Z M 22.140625 0 " clip-rule="nonzero"/></clipPath><clipPath id="id20"><path d="M 22.140625 0 L 78.242188 23.304688 L 58.96875 69.710938 L 2.867188 46.40625 Z M 22.140625 0 " clip-rule="nonzero"/></clipPath><clipPath id="id21"><path d="M 20 44 L 53 44 L 53 62 L 20 62 Z M 20 44 " clip-rule="nonzero"/></clipPath><clipPath id="id22"><path d="M 22.140625 0 L 78.242188 23.304688 L 58.96875 69.710938 L 2.867188 46.40625 Z M 22.140625 0 " clip-rule="nonzero"/></clipPath><clipPath id="id23"><path d="M 22.140625 0 L 78.242188 23.304688 L 58.96875 69.710938 L 2.867188 46.40625 Z M 22.140625 0 " clip-rule="nonzero"/></clipPath><clipPath id="id24"><path d="M 22.140625 0 L 78.242188 23.304688 L 58.96875 69.710938 L 2.867188 46.40625 Z M 22.140625 0 " clip-rule="nonzero"/></clipPath><clipPath id="id25"><path d="M 28 49 L 29 49 L 29 50 L 28 50 Z M 28 49 " clip-rule="nonzero"/></clipPath><clipPath id="id26"><path d="M 22.140625 0 L 78.242188 23.304688 L 58.96875 69.710938 L 2.867188 46.40625 Z M 22.140625 0 " clip-rule="nonzero"/></clipPath><clipPath id="id27"><path d="M 22.140625 0 L 78.242188 23.304688 L 58.96875 69.710938 L 2.867188 46.40625 Z M 22.140625 0 " clip-rule="nonzero"/></clipPath><clipPath id="id28"><path d="M 22.140625 0 L 78.242188 23.304688 L 58.96875 69.710938 L 2.867188 46.40625 Z M 22.140625 0 " clip-rule="nonzero"/></clipPath><clipPath id="id29"><path d="M 19 44 L 28 44 L 28 54 L 19 54 Z M 19 44 " clip-rule="nonzero"/></clipPath><clipPath id="id30"><path d="M 22.140625 0 L 78.242188 23.304688 L 58.96875 69.710938 L 2.867188 46.40625 Z M 22.140625 0 " clip-rule="nonzero"/></clipPath><clipPath id="id31"><path d="M 22.140625 0 L 78.242188 23.304688 L 58.96875 69.710938 L 2.867188 46.40625 Z M 22.140625 0 " clip-rule="nonzero"/></clipPath><clipPath id="id32"><path d="M 22.140625 0 L 78.242188 23.304688 L 58.96875 69.710938 L 2.867188 46.40625 Z M 22.140625 0 " clip-rule="nonzero"/></clipPath><clipPath id="id33"><path d="M 20 44 L 23 44 L 23 47 L 20 47 Z M 20 44 " clip-rule="nonzero"/></clipPath><clipPath id="id34"><path d="M 22.140625 0 L 78.242188 23.304688 L 58.96875 69.710938 L 2.867188 46.40625 Z M 22.140625 0 " clip-rule="nonzero"/></clipPath><clipPath id="id35"><path d="M 22.140625 0 L 78.242188 23.304688 L 58.96875 69.710938 L 2.867188 46.40625 Z M 22.140625 0 " clip-rule="nonzero"/></clipPath><clipPath id="id36"><path d="M 22.140625 0 L 78.242188 23.304688 L 58.96875 69.710938 L 2.867188 46.40625 Z M 22.140625 0 " clip-rule="nonzero"/></clipPath><clipPath id="id37"><path d="M 22 44 L 24 44 L 24 47 L 22 47 Z M 22 44 " clip-rule="nonzero"/></clipPath><clipPath id="id38"><path d="M 22.140625 0 L 78.242188 23.304688 L 58.96875 69.710938 L 2.867188 46.40625 Z M 22.140625 0 " clip-rule="nonzero"/></clipPath><clipPath id="id39"><path d="M 22.140625 0 L 78.242188 23.304688 L 58.96875 69.710938 L 2.867188 46.40625 Z M 22.140625 0 " clip-rule="nonzero"/></clipPath><clipPath id="id40"><path d="M 22.140625 0 L 78.242188 23.304688 L 58.96875 69.710938 L 2.867188 46.40625 Z M 22.140625 0 " clip-rule="nonzero"/></clipPath><clipPath id="id41"><path d="M 20 46 L 22 46 L 22 48 L 20 48 Z M 20 46 " clip-rule="nonzero"/></clipPath><clipPath id="id42"><path d="M 22.140625 0 L 78.242188 23.304688 L 58.96875 69.710938 L 2.867188 46.40625 Z M 22.140625 0 " clip-rule="nonzero"/></clipPath><clipPath id="id43"><path d="M 22.140625 0 L 78.242188 23.304688 L 58.96875 69.710938 L 2.867188 46.40625 Z M 22.140625 0 " clip-rule="nonzero"/></clipPath><clipPath id="id44"><path d="M 22.140625 0 L 78.242188 23.304688 L 58.96875 69.710938 L 2.867188 46.40625 Z M 22.140625 0 " clip-rule="nonzero"/></clipPath><clipPath id="id45"><path d="M 27 23 L 58 23 L 58 63 L 27 63 Z M 27 23 " clip-rule="nonzero"/></clipPath><clipPath id="id46"><path d="M 22.140625 0 L 78.242188 23.304688 L 58.96875 69.710938 L 2.867188 46.40625 Z M 22.140625 0 " clip-rule="nonzero"/></clipPath><clipPath id="id47"><path d="M 22.140625 0 L 78.242188 23.304688 L 58.96875 69.710938 L 2.867188 46.40625 Z M 22.140625 0 " clip-rule="nonzero"/></clipPath><clipPath id="id48"><path d="M 22.140625 0 L 78.242188 23.304688 L 58.96875 69.710938 L 2.867188 46.40625 Z M 22.140625 0 " clip-rule="nonzero"/></clipPath><clipPath id="id49"><path d="M 43 23 L 58 23 L 58 63 L 43 63 Z M 43 23 " clip-rule="nonzero"/></clipPath><clipPath id="id50"><path d="M 22.140625 0 L 78.242188 23.304688 L 58.96875 69.710938 L 2.867188 46.40625 Z M 22.140625 0 " clip-rule="nonzero"/></clipPath><clipPath id="id51"><path d="M 22.140625 0 L 78.242188 23.304688 L 58.96875 69.710938 L 2.867188 46.40625 Z M 22.140625 0 " clip-rule="nonzero"/></clipPath><clipPath id="id52"><path d="M 22.140625 0 L 78.242188 23.304688 L 58.96875 69.710938 L 2.867188 46.40625 Z M 22.140625 0 " clip-rule="nonzero"/></clipPath><clipPath id="id53"><path d="M 54 38 L 70 38 L 70 59 L 54 59 Z M 54 38 " clip-rule="nonzero"/></clipPath><clipPath id="id54"><path d="M 22.140625 0 L 78.242188 23.304688 L 58.96875 69.710938 L 2.867188 46.40625 Z M 22.140625 0 " clip-rule="nonzero"/></clipPath><clipPath id="id55"><path d="M 22.140625 0 L 78.242188 23.304688 L 58.96875 69.710938 L 2.867188 46.40625 Z M 22.140625 0 " clip-rule="nonzero"/></clipPath><clipPath id="id56"><path d="M 22.140625 0 L 78.242188 23.304688 L 58.96875 69.710938 L 2.867188 46.40625 Z M 22.140625 0 " clip-rule="nonzero"/></clipPath><clipPath id="id57"><path d="M 62 38 L 71 38 L 71 46 L 62 46 Z M 62 38 " clip-rule="nonzero"/></clipPath><clipPath id="id58"><path d="M 22.140625 0 L 78.242188 23.304688 L 58.96875 69.710938 L 2.867188 46.40625 Z M 22.140625 0 " clip-rule="nonzero"/></clipPath><clipPath id="id59"><path d="M 22.140625 0 L 78.242188 23.304688 L 58.96875 69.710938 L 2.867188 46.40625 Z M 22.140625 0 " clip-rule="nonzero"/></clipPath><clipPath id="id60"><path d="M 22.140625 0 L 78.242188 23.304688 L 58.96875 69.710938 L 2.867188 46.40625 Z M 22.140625 0 " clip-rule="nonzero"/></clipPath><clipPath id="id61"><path d="M 26 7 L 40 7 L 40 23 L 26 23 Z M 26 7 " clip-rule="nonzero"/></clipPath><clipPath id="id62"><path d="M 22.140625 0 L 78.242188 23.304688 L 58.96875 69.710938 L 2.867188 46.40625 Z M 22.140625 0 " clip-rule="nonzero"/></clipPath><clipPath id="id63"><path d="M 22.140625 0 L 78.242188 23.304688 L 58.96875 69.710938 L 2.867188 46.40625 Z M 22.140625 0 " clip-rule="nonzero"/></clipPath><clipPath id="id64"><path d="M 22.140625 0 L 78.242188 23.304688 L 58.96875 69.710938 L 2.867188 46.40625 Z M 22.140625 0 " clip-rule="nonzero"/></clipPath><clipPath id="id65"><path d="M 30 7 L 50 7 L 50 28 L 30 28 Z M 30 7 " clip-rule="nonzero"/></clipPath><clipPath id="id66"><path d="M 22.140625 0 L 78.242188 23.304688 L 58.96875 69.710938 L 2.867188 46.40625 Z M 22.140625 0 " clip-rule="nonzero"/></clipPath><clipPath id="id67"><path d="M 22.140625 0 L 78.242188 23.304688 L 58.96875 69.710938 L 2.867188 46.40625 Z M 22.140625 0 " clip-rule="nonzero"/></clipPath><clipPath id="id68"><path d="M 22.140625 0 L 78.242188 23.304688 L 58.96875 69.710938 L 2.867188 46.40625 Z M 22.140625 0 " clip-rule="nonzero"/></clipPath><clipPath id="id69"><path d="M 32 8 L 45 8 L 45 28 L 32 28 Z M 32 8 " clip-rule="nonzero"/></clipPath><clipPath id="id70"><path d="M 22.140625 0 L 78.242188 23.304688 L 58.96875 69.710938 L 2.867188 46.40625 Z M 22.140625 0 " clip-rule="nonzero"/></clipPath><clipPath id="id71"><path d="M 22.140625 0 L 78.242188 23.304688 L 58.96875 69.710938 L 2.867188 46.40625 Z M 22.140625 0 " clip-rule="nonzero"/></clipPath><clipPath id="id72"><path d="M 22.140625 0 L 78.242188 23.304688 L 58.96875 69.710938 L 2.867188 46.40625 Z M 22.140625 0 " clip-rule="nonzero"/></clipPath><clipPath id="id73"><path d="M 44 17 L 46 17 L 46 20 L 44 20 Z M 44 17 " clip-rule="nonzero"/></clipPath><clipPath id="id74"><path d="M 22.140625 0 L 78.242188 23.304688 L 58.96875 69.710938 L 2.867188 46.40625 Z M 22.140625 0 " clip-rule="nonzero"/></clipPath><clipPath id="id75"><path d="M 22.140625 0 L 78.242188 23.304688 L 58.96875 69.710938 L 2.867188 46.40625 Z M 22.140625 0 " clip-rule="nonzero"/></clipPath><clipPath id="id76"><path d="M 22.140625 0 L 78.242188 23.304688 L 58.96875 69.710938 L 2.867188 46.40625 Z M 22.140625 0 " clip-rule="nonzero"/></clipPath><clipPath id="id77"><path d="M 34 13 L 37 13 L 37 16 L 34 16 Z M 34 13 " clip-rule="nonzero"/></clipPath><clipPath id="id78"><path d="M 22.140625 0 L 78.242188 23.304688 L 58.96875 69.710938 L 2.867188 46.40625 Z M 22.140625 0 " clip-rule="nonzero"/></clipPath><clipPath id="id79"><path d="M 22.140625 0 L 78.242188 23.304688 L 58.96875 69.710938 L 2.867188 46.40625 Z M 22.140625 0 " clip-rule="nonzero"/></clipPath><clipPath id="id80"><path d="M 22.140625 0 L 78.242188 23.304688 L 58.96875 69.710938 L 2.867188 46.40625 Z M 22.140625 0 " clip-rule="nonzero"/></clipPath><clipPath id="id81"><path d="M 44 11 L 56 11 L 56 30 L 44 30 Z M 44 11 " clip-rule="nonzero"/></clipPath><clipPath id="id82"><path d="M 22.140625 0 L 78.242188 23.304688 L 58.96875 69.710938 L 2.867188 46.40625 Z M 22.140625 0 " clip-rule="nonzero"/></clipPath><clipPath id="id83"><path d="M 22.140625 0 L 78.242188 23.304688 L 58.96875 69.710938 L 2.867188 46.40625 Z M 22.140625 0 " clip-rule="nonzero"/></clipPath><clipPath id="id84"><path d="M 22.140625 0 L 78.242188 23.304688 L 58.96875 69.710938 L 2.867188 46.40625 Z M 22.140625 0 " clip-rule="nonzero"/></clipPath><clipPath id="id85"><path d="M 36 17 L 43 17 L 43 21 L 36 21 Z M 36 17 " clip-rule="nonzero"/></clipPath><clipPath id="id86"><path d="M 22.140625 0 L 78.242188 23.304688 L 58.96875 69.710938 L 2.867188 46.40625 Z M 22.140625 0 " clip-rule="nonzero"/></clipPath><clipPath id="id87"><path d="M 22.140625 0 L 78.242188 23.304688 L 58.96875 69.710938 L 2.867188 46.40625 Z M 22.140625 0 " clip-rule="nonzero"/></clipPath><clipPath id="id88"><path d="M 22.140625 0 L 78.242188 23.304688 L 58.96875 69.710938 L 2.867188 46.40625 Z M 22.140625 0 " clip-rule="nonzero"/></clipPath><clipPath id="id89"><path d="M 32 19 L 45 19 L 45 26 L 32 26 Z M 32 19 " clip-rule="nonzero"/></clipPath><clipPath id="id90"><path d="M 22.140625 0 L 78.242188 23.304688 L 58.96875 69.710938 L 2.867188 46.40625 Z M 22.140625 0 " clip-rule="nonzero"/></clipPath><clipPath id="id91"><path d="M 22.140625 0 L 78.242188 23.304688 L 58.96875 69.710938 L 2.867188 46.40625 Z M 22.140625 0 " clip-rule="nonzero"/></clipPath><clipPath id="id92"><path d="M 22.140625 0 L 78.242188 23.304688 L 58.96875 69.710938 L 2.867188 46.40625 Z M 22.140625 0 " clip-rule="nonzero"/></clipPath><clipPath id="id93"><path d="M 23 45 L 57 45 L 57 63 L 23 63 Z M 23 45 " clip-rule="nonzero"/></clipPath><clipPath id="id94"><path d="M 22.140625 0 L 78.242188 23.304688 L 58.96875 69.710938 L 2.867188 46.40625 Z M 22.140625 0 " clip-rule="nonzero"/></clipPath><clipPath id="id95"><path d="M 22.140625 0 L 78.242188 23.304688 L 58.96875 69.710938 L 2.867188 46.40625 Z M 22.140625 0 " clip-rule="nonzero"/></clipPath><clipPath id="id96"><path d="M 22.140625 0 L 78.242188 23.304688 L 58.96875 69.710938 L 2.867188 46.40625 Z M 22.140625 0 " clip-rule="nonzero"/></clipPath><clipPath id="id97"><path d="M 56 58 L 57 58 L 57 59 L 56 59 Z M 56 58 " clip-rule="nonzero"/></clipPath><clipPath id="id98"><path d="M 22.140625 0 L 78.242188 23.304688 L 58.96875 69.710938 L 2.867188 46.40625 Z M 22.140625 0 " clip-rule="nonzero"/></clipPath><clipPath id="id99"><path d="M 22.140625 0 L 78.242188 23.304688 L 58.96875 69.710938 L 2.867188 46.40625 Z M 22.140625 0 " clip-rule="nonzero"/></clipPath><clipPath id="id100"><path d="M 22.140625 0 L 78.242188 23.304688 L 58.96875 69.710938 L 2.867188 46.40625 Z M 22.140625 0 " clip-rule="nonzero"/></clipPath><clipPath id="id101"><path d="M 31 46 L 52 46 L 52 51 L 31 51 Z M 31 46 " clip-rule="nonzero"/></clipPath><clipPath id="id102"><path d="M 22.140625 0 L 78.242188 23.304688 L 58.96875 69.710938 L 2.867188 46.40625 Z M 22.140625 0 " clip-rule="nonzero"/></clipPath><clipPath id="id103"><path d="M 22.140625 0 L 78.242188 23.304688 L 58.96875 69.710938 L 2.867188 46.40625 Z M 22.140625 0 " clip-rule="nonzero"/></clipPath><clipPath id="id104"><path d="M 22.140625 0 L 78.242188 23.304688 L 58.96875 69.710938 L 2.867188 46.40625 Z M 22.140625 0 " clip-rule="nonzero"/></clipPath><clipPath id="id105"><path d="M 51 48 L 57 48 L 57 54 L 51 54 Z M 51 48 " clip-rule="nonzero"/></clipPath><clipPath id="id106"><path d="M 22.140625 0 L 78.242188 23.304688 L 58.96875 69.710938 L 2.867188 46.40625 Z M 22.140625 0 " clip-rule="nonzero"/></clipPath><clipPath id="id107"><path d="M 22.140625 0 L 78.242188 23.304688 L 58.96875 69.710938 L 2.867188 46.40625 Z M 22.140625 0 " clip-rule="nonzero"/></clipPath><clipPath id="id108"><path d="M 22.140625 0 L 78.242188 23.304688 L 58.96875 69.710938 L 2.867188 46.40625 Z M 22.140625 0 " clip-rule="nonzero"/></clipPath><clipPath id="id109"><path d="M 56 53 L 57 53 L 57 59 L 56 59 Z M 56 53 " clip-rule="nonzero"/></clipPath><clipPath id="id110"><path d="M 22.140625 0 L 78.242188 23.304688 L 58.96875 69.710938 L 2.867188 46.40625 Z M 22.140625 0 " clip-rule="nonzero"/></clipPath><clipPath id="id111"><path d="M 22.140625 0 L 78.242188 23.304688 L 58.96875 69.710938 L 2.867188 46.40625 Z M 22.140625 0 " clip-rule="nonzero"/></clipPath><clipPath id="id112"><path d="M 22.140625 0 L 78.242188 23.304688 L 58.96875 69.710938 L 2.867188 46.40625 Z M 22.140625 0 " clip-rule="nonzero"/></clipPath><clipPath id="id113"><path d="M 27 46 L 57 46 L 57 60 L 27 60 Z M 27 46 " clip-rule="nonzero"/></clipPath><clipPath id="id114"><path d="M 22.140625 0 L 78.242188 23.304688 L 58.96875 69.710938 L 2.867188 46.40625 Z M 22.140625 0 " clip-rule="nonzero"/></clipPath><clipPath id="id115"><path d="M 22.140625 0 L 78.242188 23.304688 L 58.96875 69.710938 L 2.867188 46.40625 Z M 22.140625 0 " clip-rule="nonzero"/></clipPath><clipPath id="id116"><path d="M 22.140625 0 L 78.242188 23.304688 L 58.96875 69.710938 L 2.867188 46.40625 Z M 22.140625 0 " clip-rule="nonzero"/></clipPath><clipPath id="id117"><path d="M 23 45 L 32 45 L 32 55 L 23 55 Z M 23 45 " clip-rule="nonzero"/></clipPath><clipPath id="id118"><path d="M 22.140625 0 L 78.242188 23.304688 L 58.96875 69.710938 L 2.867188 46.40625 Z M 22.140625 0 " clip-rule="nonzero"/></clipPath><clipPath id="id119"><path d="M 22.140625 0 L 78.242188 23.304688 L 58.96875 69.710938 L 2.867188 46.40625 Z M 22.140625 0 " clip-rule="nonzero"/></clipPath><clipPath id="id120"><path d="M 22.140625 0 L 78.242188 23.304688 L 58.96875 69.710938 L 2.867188 46.40625 Z M 22.140625 0 " clip-rule="nonzero"/></clipPath><clipPath id="id121"><path d="M 24 46 L 27 46 L 27 49 L 24 49 Z M 24 46 " clip-rule="nonzero"/></clipPath><clipPath id="id122"><path d="M 22.140625 0 L 78.242188 23.304688 L 58.96875 69.710938 L 2.867188 46.40625 Z M 22.140625 0 " clip-rule="nonzero"/></clipPath><clipPath id="id123"><path d="M 22.140625 0 L 78.242188 23.304688 L 58.96875 69.710938 L 2.867188 46.40625 Z M 22.140625 0 " clip-rule="nonzero"/></clipPath><clipPath id="id124"><path d="M 22.140625 0 L 78.242188 23.304688 L 58.96875 69.710938 L 2.867188 46.40625 Z M 22.140625 0 " clip-rule="nonzero"/></clipPath><clipPath id="id125"><path d="M 25 46 L 28 46 L 28 48 L 25 48 Z M 25 46 " clip-rule="nonzero"/></clipPath><clipPath id="id126"><path d="M 22.140625 0 L 78.242188 23.304688 L 58.96875 69.710938 L 2.867188 46.40625 Z M 22.140625 0 " clip-rule="nonzero"/></clipPath><clipPath id="id127"><path d="M 22.140625 0 L 78.242188 23.304688 L 58.96875 69.710938 L 2.867188 46.40625 Z M 22.140625 0 " clip-rule="nonzero"/></clipPath><clipPath id="id128"><path d="M 22.140625 0 L 78.242188 23.304688 L 58.96875 69.710938 L 2.867188 46.40625 Z M 22.140625 0 " clip-rule="nonzero"/></clipPath><clipPath id="id129"><path d="M 24 47 L 26 47 L 26 50 L 24 50 Z M 24 47 " clip-rule="nonzero"/></clipPath><clipPath id="id130"><path d="M 22.140625 0 L 78.242188 23.304688 L 58.96875 69.710938 L 2.867188 46.40625 Z M 22.140625 0 " clip-rule="nonzero"/></clipPath><clipPath id="id131"><path d="M 22.140625 0 L 78.242188 23.304688 L 58.96875 69.710938 L 2.867188 46.40625 Z M 22.140625 0 " clip-rule="nonzero"/></clipPath><clipPath id="id132"><path d="M 22.140625 0 L 78.242188 23.304688 L 58.96875 69.710938 L 2.867188 46.40625 Z M 22.140625 0 " clip-rule="nonzero"/></clipPath><clipPath id="id133"><path d="M 25 29 L 43 29 L 43 55 L 25 55 Z M 25 29 " clip-rule="nonzero"/></clipPath><clipPath id="id134"><path d="M 22.140625 0 L 78.242188 23.304688 L 58.96875 69.710938 L 2.867188 46.40625 Z M 22.140625 0 " clip-rule="nonzero"/></clipPath><clipPath id="id135"><path d="M 22.140625 0 L 78.242188 23.304688 L 58.96875 69.710938 L 2.867188 46.40625 Z M 22.140625 0 " clip-rule="nonzero"/></clipPath><clipPath id="id136"><path d="M 22.140625 0 L 78.242188 23.304688 L 58.96875 69.710938 L 2.867188 46.40625 Z M 22.140625 0 " clip-rule="nonzero"/></clipPath><clipPath id="id137"><path d="M 25 46 L 35 46 L 35 55 L 25 55 Z M 25 46 " clip-rule="nonzero"/></clipPath><clipPath id="id138"><path d="M 22.140625 0 L 78.242188 23.304688 L 58.96875 69.710938 L 2.867188 46.40625 Z M 22.140625 0 " clip-rule="nonzero"/></clipPath><clipPath id="id139"><path d="M 22.140625 0 L 78.242188 23.304688 L 58.96875 69.710938 L 2.867188 46.40625 Z M 22.140625 0 " clip-rule="nonzero"/></clipPath><clipPath id="id140"><path d="M 22.140625 0 L 78.242188 23.304688 L 58.96875 69.710938 L 2.867188 46.40625 Z M 22.140625 0 " clip-rule="nonzero"/></clipPath><clipPath id="id141"><path d="M 25 51 L 28 51 L 28 53 L 25 53 Z M 25 51 " clip-rule="nonzero"/></clipPath><clipPath id="id142"><path d="M 22.140625 0 L 78.242188 23.304688 L 58.96875 69.710938 L 2.867188 46.40625 Z M 22.140625 0 " clip-rule="nonzero"/></clipPath><clipPath id="id143"><path d="M 22.140625 0 L 78.242188 23.304688 L 58.96875 69.710938 L 2.867188 46.40625 Z M 22.140625 0 " clip-rule="nonzero"/></clipPath><clipPath id="id144"><path d="M 22.140625 0 L 78.242188 23.304688 L 58.96875 69.710938 L 2.867188 46.40625 Z M 22.140625 0 " clip-rule="nonzero"/></clipPath><clipPath id="id145"><path d="M 25 50 L 28 50 L 28 52 L 25 52 Z M 25 50 " clip-rule="nonzero"/></clipPath><clipPath id="id146"><path d="M 22.140625 0 L 78.242188 23.304688 L 58.96875 69.710938 L 2.867188 46.40625 Z M 22.140625 0 " clip-rule="nonzero"/></clipPath><clipPath id="id147"><path d="M 22.140625 0 L 78.242188 23.304688 L 58.96875 69.710938 L 2.867188 46.40625 Z M 22.140625 0 " clip-rule="nonzero"/></clipPath><clipPath id="id148"><path d="M 22.140625 0 L 78.242188 23.304688 L 58.96875 69.710938 L 2.867188 46.40625 Z M 22.140625 0 " clip-rule="nonzero"/></clipPath><clipPath id="id149"><path d="M 26 52 L 29 52 L 29 54 L 26 54 Z M 26 52 " clip-rule="nonzero"/></clipPath><clipPath id="id150"><path d="M 22.140625 0 L 78.242188 23.304688 L 58.96875 69.710938 L 2.867188 46.40625 Z M 22.140625 0 " clip-rule="nonzero"/></clipPath><clipPath id="id151"><path d="M 22.140625 0 L 78.242188 23.304688 L 58.96875 69.710938 L 2.867188 46.40625 Z M 22.140625 0 " clip-rule="nonzero"/></clipPath><clipPath id="id152"><path d="M 22.140625 0 L 78.242188 23.304688 L 58.96875 69.710938 L 2.867188 46.40625 Z M 22.140625 0 " clip-rule="nonzero"/></clipPath><clipPath id="id153"><path d="M 22 39 L 30 39 L 30 54 L 22 54 Z M 22 39 " clip-rule="nonzero"/></clipPath><clipPath id="id154"><path d="M 22.140625 0 L 78.242188 23.304688 L 58.96875 69.710938 L 2.867188 46.40625 Z M 22.140625 0 " clip-rule="nonzero"/></clipPath><clipPath id="id155"><path d="M 22.140625 0 L 78.242188 23.304688 L 58.96875 69.710938 L 2.867188 46.40625 Z M 22.140625 0 " clip-rule="nonzero"/></clipPath><clipPath id="id156"><path d="M 22.140625 0 L 78.242188 23.304688 L 58.96875 69.710938 L 2.867188 46.40625 Z M 22.140625 0 " clip-rule="nonzero"/></clipPath><clipPath id="id157"><path d="M 25 51 L 26 51 L 26 53 L 25 53 Z M 25 51 " clip-rule="nonzero"/></clipPath><clipPath id="id158"><path d="M 22.140625 0 L 78.242188 23.304688 L 58.96875 69.710938 L 2.867188 46.40625 Z M 22.140625 0 " clip-rule="nonzero"/></clipPath><clipPath id="id159"><path d="M 22.140625 0 L 78.242188 23.304688 L 58.96875 69.710938 L 2.867188 46.40625 Z M 22.140625 0 " clip-rule="nonzero"/></clipPath><clipPath id="id160"><path d="M 22.140625 0 L 78.242188 23.304688 L 58.96875 69.710938 L 2.867188 46.40625 Z M 22.140625 0 " clip-rule="nonzero"/></clipPath><clipPath id="id161"><path d="M 24 52 L 26 52 L 26 54 L 24 54 Z M 24 52 " clip-rule="nonzero"/></clipPath><clipPath id="id162"><path d="M 22.140625 0 L 78.242188 23.304688 L 58.96875 69.710938 L 2.867188 46.40625 Z M 22.140625 0 " clip-rule="nonzero"/></clipPath><clipPath id="id163"><path d="M 22.140625 0 L 78.242188 23.304688 L 58.96875 69.710938 L 2.867188 46.40625 Z M 22.140625 0 " clip-rule="nonzero"/></clipPath><clipPath id="id164"><path d="M 22.140625 0 L 78.242188 23.304688 L 58.96875 69.710938 L 2.867188 46.40625 Z M 22.140625 0 " clip-rule="nonzero"/></clipPath><clipPath id="id165"><path d="M 8 34 L 32 34 L 32 50 L 8 50 Z M 8 34 " clip-rule="nonzero"/></clipPath><clipPath id="id166"><path d="M 22.140625 0 L 78.242188 23.304688 L 58.96875 69.710938 L 2.867188 46.40625 Z M 22.140625 0 " clip-rule="nonzero"/></clipPath><clipPath id="id167"><path d="M 22.140625 0 L 78.242188 23.304688 L 58.96875 69.710938 L 2.867188 46.40625 Z M 22.140625 0 " clip-rule="nonzero"/></clipPath><clipPath id="id168"><path d="M 22.140625 0 L 78.242188 23.304688 L 58.96875 69.710938 L 2.867188 46.40625 Z M 22.140625 0 " clip-rule="nonzero"/></clipPath><clipPath id="id169"><path d="M 7 25 L 32 25 L 32 50 L 7 50 Z M 7 25 " clip-rule="nonzero"/></clipPath><clipPath id="id170"><path d="M 22.140625 0 L 78.242188 23.304688 L 58.96875 69.710938 L 2.867188 46.40625 Z M 22.140625 0 " clip-rule="nonzero"/></clipPath><clipPath id="id171"><path d="M 22.140625 0 L 78.242188 23.304688 L 58.96875 69.710938 L 2.867188 46.40625 Z M 22.140625 0 " clip-rule="nonzero"/></clipPath><clipPath id="id172"><path d="M 22.140625 0 L 78.242188 23.304688 L 58.96875 69.710938 L 2.867188 46.40625 Z M 22.140625 0 " clip-rule="nonzero"/></clipPath><clipPath id="id173"><path d="M 19 38 L 28 38 L 28 53 L 19 53 Z M 19 38 " clip-rule="nonzero"/></clipPath><clipPath id="id174"><path d="M 22.140625 0 L 78.242188 23.304688 L 58.96875 69.710938 L 2.867188 46.40625 Z M 22.140625 0 " clip-rule="nonzero"/></clipPath><clipPath id="id175"><path d="M 22.140625 0 L 78.242188 23.304688 L 58.96875 69.710938 L 2.867188 46.40625 Z M 22.140625 0 " clip-rule="nonzero"/></clipPath><clipPath id="id176"><path d="M 22.140625 0 L 78.242188 23.304688 L 58.96875 69.710938 L 2.867188 46.40625 Z M 22.140625 0 " clip-rule="nonzero"/></clipPath><clipPath id="id177"><path d="M 22 51 L 24 51 L 24 53 L 22 53 Z M 22 51 " clip-rule="nonzero"/></clipPath><clipPath id="id178"><path d="M 22.140625 0 L 78.242188 23.304688 L 58.96875 69.710938 L 2.867188 46.40625 Z M 22.140625 0 " clip-rule="nonzero"/></clipPath><clipPath id="id179"><path d="M 22.140625 0 L 78.242188 23.304688 L 58.96875 69.710938 L 2.867188 46.40625 Z M 22.140625 0 " clip-rule="nonzero"/></clipPath><clipPath id="id180"><path d="M 22.140625 0 L 78.242188 23.304688 L 58.96875 69.710938 L 2.867188 46.40625 Z M 22.140625 0 " clip-rule="nonzero"/></clipPath><clipPath id="id181"><path d="M 22 51 L 23 51 L 23 53 L 22 53 Z M 22 51 " clip-rule="nonzero"/></clipPath><clipPath id="id182"><path d="M 22.140625 0 L 78.242188 23.304688 L 58.96875 69.710938 L 2.867188 46.40625 Z M 22.140625 0 " clip-rule="nonzero"/></clipPath><clipPath id="id183"><path d="M 22.140625 0 L 78.242188 23.304688 L 58.96875 69.710938 L 2.867188 46.40625 Z M 22.140625 0 " clip-rule="nonzero"/></clipPath><clipPath id="id184"><path d="M 22.140625 0 L 78.242188 23.304688 L 58.96875 69.710938 L 2.867188 46.40625 Z M 22.140625 0 " clip-rule="nonzero"/></clipPath><clipPath id="id185"><path d="M 27 21 L 33 21 L 33 27 L 27 27 Z M 27 21 " clip-rule="nonzero"/></clipPath><clipPath id="id186"><path d="M 22.140625 0 L 78.242188 23.304688 L 58.96875 69.710938 L 2.867188 46.40625 Z M 22.140625 0 " clip-rule="nonzero"/></clipPath><clipPath id="id187"><path d="M 22.140625 0 L 78.242188 23.304688 L 58.96875 69.710938 L 2.867188 46.40625 Z M 22.140625 0 " clip-rule="nonzero"/></clipPath><clipPath id="id188"><path d="M 22.140625 0 L 78.242188 23.304688 L 58.96875 69.710938 L 2.867188 46.40625 Z M 22.140625 0 " clip-rule="nonzero"/></clipPath><clipPath id="id189"><path d="M 28 23 L 32 23 L 32 27 L 28 27 Z M 28 23 " clip-rule="nonzero"/></clipPath><clipPath id="id190"><path d="M 22.140625 0 L 78.242188 23.304688 L 58.96875 69.710938 L 2.867188 46.40625 Z M 22.140625 0 " clip-rule="nonzero"/></clipPath><clipPath id="id191"><path d="M 22.140625 0 L 78.242188 23.304688 L 58.96875 69.710938 L 2.867188 46.40625 Z M 22.140625 0 " clip-rule="nonzero"/></clipPath><clipPath id="id192"><path d="M 22.140625 0 L 78.242188 23.304688 L 58.96875 69.710938 L 2.867188 46.40625 Z M 22.140625 0 " clip-rule="nonzero"/></clipPath><clipPath id="id193"><path d="M 35 27 L 41 27 L 41 33 L 35 33 Z M 35 27 " clip-rule="nonzero"/></clipPath><clipPath id="id194"><path d="M 22.140625 0 L 78.242188 23.304688 L 58.96875 69.710938 L 2.867188 46.40625 Z M 22.140625 0 " clip-rule="nonzero"/></clipPath><clipPath id="id195"><path d="M 22.140625 0 L 78.242188 23.304688 L 58.96875 69.710938 L 2.867188 46.40625 Z M 22.140625 0 " clip-rule="nonzero"/></clipPath><clipPath id="id196"><path d="M 22.140625 0 L 78.242188 23.304688 L 58.96875 69.710938 L 2.867188 46.40625 Z M 22.140625 0 " clip-rule="nonzero"/></clipPath><clipPath id="id197"><path d="M 35 28 L 39 28 L 39 32 L 35 32 Z M 35 28 " clip-rule="nonzero"/></clipPath><clipPath id="id198"><path d="M 22.140625 0 L 78.242188 23.304688 L 58.96875 69.710938 L 2.867188 46.40625 Z M 22.140625 0 " clip-rule="nonzero"/></clipPath><clipPath id="id199"><path d="M 22.140625 0 L 78.242188 23.304688 L 58.96875 69.710938 L 2.867188 46.40625 Z M 22.140625 0 " clip-rule="nonzero"/></clipPath><clipPath id="id200"><path d="M 22.140625 0 L 78.242188 23.304688 L 58.96875 69.710938 L 2.867188 46.40625 Z M 22.140625 0 " clip-rule="nonzero"/></clipPath><clipPath id="id201"><path d="M 24 25 L 37 25 L 37 37 L 24 37 Z M 24 25 " clip-rule="nonzero"/></clipPath><clipPath id="id202"><path d="M 22.140625 0 L 78.242188 23.304688 L 58.96875 69.710938 L 2.867188 46.40625 Z M 22.140625 0 " clip-rule="nonzero"/></clipPath><clipPath id="id203"><path d="M 22.140625 0 L 78.242188 23.304688 L 58.96875 69.710938 L 2.867188 46.40625 Z M 22.140625 0 " clip-rule="nonzero"/></clipPath><clipPath id="id204"><path d="M 22.140625 0 L 78.242188 23.304688 L 58.96875 69.710938 L 2.867188 46.40625 Z M 22.140625 0 " clip-rule="nonzero"/></clipPath><clipPath id="id205"><path d="M 24 28 L 35 28 L 35 37 L 24 37 Z M 24 28 " clip-rule="nonzero"/></clipPath><clipPath id="id206"><path d="M 22.140625 0 L 78.242188 23.304688 L 58.96875 69.710938 L 2.867188 46.40625 Z M 22.140625 0 " clip-rule="nonzero"/></clipPath><clipPath id="id207"><path d="M 22.140625 0 L 78.242188 23.304688 L 58.96875 69.710938 L 2.867188 46.40625 Z M 22.140625 0 " clip-rule="nonzero"/></clipPath><clipPath id="id208"><path d="M 22.140625 0 L 78.242188 23.304688 L 58.96875 69.710938 L 2.867188 46.40625 Z M 22.140625 0 " clip-rule="nonzero"/></clipPath><clipPath id="id209"><path d="M 28 27 L 30 27 L 30 29 L 28 29 Z M 28 27 " clip-rule="nonzero"/></clipPath><clipPath id="id210"><path d="M 22.140625 0 L 78.242188 23.304688 L 58.96875 69.710938 L 2.867188 46.40625 Z M 22.140625 0 " clip-rule="nonzero"/></clipPath><clipPath id="id211"><path d="M 22.140625 0 L 78.242188 23.304688 L 58.96875 69.710938 L 2.867188 46.40625 Z M 22.140625 0 " clip-rule="nonzero"/></clipPath><clipPath id="id212"><path d="M 22.140625 0 L 78.242188 23.304688 L 58.96875 69.710938 L 2.867188 46.40625 Z M 22.140625 0 " clip-rule="nonzero"/></clipPath><clipPath id="id213"><path d="M 34 31 L 36 31 L 36 34 L 34 34 Z M 34 31 " clip-rule="nonzero"/></clipPath><clipPath id="id214"><path d="M 22.140625 0 L 78.242188 23.304688 L 58.96875 69.710938 L 2.867188 46.40625 Z M 22.140625 0 " clip-rule="nonzero"/></clipPath><clipPath id="id215"><path d="M 22.140625 0 L 78.242188 23.304688 L 58.96875 69.710938 L 2.867188 46.40625 Z M 22.140625 0 " clip-rule="nonzero"/></clipPath><clipPath id="id216"><path d="M 22.140625 0 L 78.242188 23.304688 L 58.96875 69.710938 L 2.867188 46.40625 Z M 22.140625 0 " clip-rule="nonzero"/></clipPath><clipPath id="id217"><path d="M 28 33 L 30 33 L 30 35 L 28 35 Z M 28 33 " clip-rule="nonzero"/></clipPath><clipPath id="id218"><path d="M 22.140625 0 L 78.242188 23.304688 L 58.96875 69.710938 L 2.867188 46.40625 Z M 22.140625 0 " clip-rule="nonzero"/></clipPath><clipPath id="id219"><path d="M 22.140625 0 L 78.242188 23.304688 L 58.96875 69.710938 L 2.867188 46.40625 Z M 22.140625 0 " clip-rule="nonzero"/></clipPath><clipPath id="id220"><path d="M 22.140625 0 L 78.242188 23.304688 L 58.96875 69.710938 L 2.867188 46.40625 Z M 22.140625 0 " clip-rule="nonzero"/></clipPath><clipPath id="id221"><path d="M 28 31 L 31 31 L 31 35 L 28 35 Z M 28 31 " clip-rule="nonzero"/></clipPath><clipPath id="id222"><path d="M 22.140625 0 L 78.242188 23.304688 L 58.96875 69.710938 L 2.867188 46.40625 Z M 22.140625 0 " clip-rule="nonzero"/></clipPath><clipPath id="id223"><path d="M 22.140625 0 L 78.242188 23.304688 L 58.96875 69.710938 L 2.867188 46.40625 Z M 22.140625 0 " clip-rule="nonzero"/></clipPath><clipPath id="id224"><path d="M 22.140625 0 L 78.242188 23.304688 L 58.96875 69.710938 L 2.867188 46.40625 Z M 22.140625 0 " clip-rule="nonzero"/></clipPath><clipPath id="id225"><path d="M 29 30 L 33 30 L 33 34 L 29 34 Z M 29 30 " clip-rule="nonzero"/></clipPath><clipPath id="id226"><path d="M 22.140625 0 L 78.242188 23.304688 L 58.96875 69.710938 L 2.867188 46.40625 Z M 22.140625 0 " clip-rule="nonzero"/></clipPath><clipPath id="id227"><path d="M 22.140625 0 L 78.242188 23.304688 L 58.96875 69.710938 L 2.867188 46.40625 Z M 22.140625 0 " clip-rule="nonzero"/></clipPath><clipPath id="id228"><path d="M 22.140625 0 L 78.242188 23.304688 L 58.96875 69.710938 L 2.867188 46.40625 Z M 22.140625 0 " clip-rule="nonzero"/></clipPath><clipPath id="id229"><path d="M 24 25 L 30 25 L 30 31 L 24 31 Z M 24 25 " clip-rule="nonzero"/></clipPath><clipPath id="id230"><path d="M 22.140625 0 L 78.242188 23.304688 L 58.96875 69.710938 L 2.867188 46.40625 Z M 22.140625 0 " clip-rule="nonzero"/></clipPath><clipPath id="id231"><path d="M 22.140625 0 L 78.242188 23.304688 L 58.96875 69.710938 L 2.867188 46.40625 Z M 22.140625 0 " clip-rule="nonzero"/></clipPath><clipPath id="id232"><path d="M 22.140625 0 L 78.242188 23.304688 L 58.96875 69.710938 L 2.867188 46.40625 Z M 22.140625 0 " clip-rule="nonzero"/></clipPath><clipPath id="id233"><path d="M 23 25 L 30 25 L 30 31 L 23 31 Z M 23 25 " clip-rule="nonzero"/></clipPath><clipPath id="id234"><path d="M 22.140625 0 L 78.242188 23.304688 L 58.96875 69.710938 L 2.867188 46.40625 Z M 22.140625 0 " clip-rule="nonzero"/></clipPath><clipPath id="id235"><path d="M 22.140625 0 L 78.242188 23.304688 L 58.96875 69.710938 L 2.867188 46.40625 Z M 22.140625 0 " clip-rule="nonzero"/></clipPath><clipPath id="id236"><path d="M 22.140625 0 L 78.242188 23.304688 L 58.96875 69.710938 L 2.867188 46.40625 Z M 22.140625 0 " clip-rule="nonzero"/></clipPath><clipPath id="id237"><path d="M 23 26 L 29 26 L 29 31 L 23 31 Z M 23 26 " clip-rule="nonzero"/></clipPath><clipPath id="id238"><path d="M 22.140625 0 L 78.242188 23.304688 L 58.96875 69.710938 L 2.867188 46.40625 Z M 22.140625 0 " clip-rule="nonzero"/></clipPath><clipPath id="id239"><path d="M 22.140625 0 L 78.242188 23.304688 L 58.96875 69.710938 L 2.867188 46.40625 Z M 22.140625 0 " clip-rule="nonzero"/></clipPath><clipPath id="id240"><path d="M 22.140625 0 L 78.242188 23.304688 L 58.96875 69.710938 L 2.867188 46.40625 Z M 22.140625 0 " clip-rule="nonzero"/></clipPath><clipPath id="id241"><path d="M 23 28 L 29 28 L 29 31 L 23 31 Z M 23 28 " clip-rule="nonzero"/></clipPath><clipPath id="id242"><path d="M 22.140625 0 L 78.242188 23.304688 L 58.96875 69.710938 L 2.867188 46.40625 Z M 22.140625 0 " clip-rule="nonzero"/></clipPath><clipPath id="id243"><path d="M 22.140625 0 L 78.242188 23.304688 L 58.96875 69.710938 L 2.867188 46.40625 Z M 22.140625 0 " clip-rule="nonzero"/></clipPath><clipPath id="id244"><path d="M 22.140625 0 L 78.242188 23.304688 L 58.96875 69.710938 L 2.867188 46.40625 Z M 22.140625 0 " clip-rule="nonzero"/></clipPath><clipPath id="id245"><path d="M 32 32 L 39 32 L 39 37 L 32 37 Z M 32 32 " clip-rule="nonzero"/></clipPath><clipPath id="id246"><path d="M 22.140625 0 L 78.242188 23.304688 L 58.96875 69.710938 L 2.867188 46.40625 Z M 22.140625 0 " clip-rule="nonzero"/></clipPath><clipPath id="id247"><path d="M 22.140625 0 L 78.242188 23.304688 L 58.96875 69.710938 L 2.867188 46.40625 Z M 22.140625 0 " clip-rule="nonzero"/></clipPath><clipPath id="id248"><path d="M 22.140625 0 L 78.242188 23.304688 L 58.96875 69.710938 L 2.867188 46.40625 Z M 22.140625 0 " clip-rule="nonzero"/></clipPath><clipPath id="id249"><path d="M 32 32 L 38 32 L 38 38 L 32 38 Z M 32 32 " clip-rule="nonzero"/></clipPath><clipPath id="id250"><path d="M 22.140625 0 L 78.242188 23.304688 L 58.96875 69.710938 L 2.867188 46.40625 Z M 22.140625 0 " clip-rule="nonzero"/></clipPath><clipPath id="id251"><path d="M 22.140625 0 L 78.242188 23.304688 L 58.96875 69.710938 L 2.867188 46.40625 Z M 22.140625 0 " clip-rule="nonzero"/></clipPath><clipPath id="id252"><path d="M 22.140625 0 L 78.242188 23.304688 L 58.96875 69.710938 L 2.867188 46.40625 Z M 22.140625 0 " clip-rule="nonzero"/></clipPath><clipPath id="id253"><path d="M 31 33 L 37 33 L 37 39 L 31 39 Z M 31 33 " clip-rule="nonzero"/></clipPath><clipPath id="id254"><path d="M 22.140625 0 L 78.242188 23.304688 L 58.96875 69.710938 L 2.867188 46.40625 Z M 22.140625 0 " clip-rule="nonzero"/></clipPath><clipPath id="id255"><path d="M 22.140625 0 L 78.242188 23.304688 L 58.96875 69.710938 L 2.867188 46.40625 Z M 22.140625 0 " clip-rule="nonzero"/></clipPath><clipPath id="id256"><path d="M 22.140625 0 L 78.242188 23.304688 L 58.96875 69.710938 L 2.867188 46.40625 Z M 22.140625 0 " clip-rule="nonzero"/></clipPath><clipPath id="id257"><path d="M 31 33 L 36 33 L 36 38 L 31 38 Z M 31 33 " clip-rule="nonzero"/></clipPath><clipPath id="id258"><path d="M 22.140625 0 L 78.242188 23.304688 L 58.96875 69.710938 L 2.867188 46.40625 Z M 22.140625 0 " clip-rule="nonzero"/></clipPath><clipPath id="id259"><path d="M 22.140625 0 L 78.242188 23.304688 L 58.96875 69.710938 L 2.867188 46.40625 Z M 22.140625 0 " clip-rule="nonzero"/></clipPath><clipPath id="id260"><path d="M 22.140625 0 L 78.242188 23.304688 L 58.96875 69.710938 L 2.867188 46.40625 Z M 22.140625 0 " clip-rule="nonzero"/></clipPath><clipPath id="id261"><path d="M 7 39 L 23 39 L 23 52 L 7 52 Z M 7 39 " clip-rule="nonzero"/></clipPath><clipPath id="id262"><path d="M 22.140625 0 L 78.242188 23.304688 L 58.96875 69.710938 L 2.867188 46.40625 Z M 22.140625 0 " clip-rule="nonzero"/></clipPath><clipPath id="id263"><path d="M 22.140625 0 L 78.242188 23.304688 L 58.96875 69.710938 L 2.867188 46.40625 Z M 22.140625 0 " clip-rule="nonzero"/></clipPath><clipPath id="id264"><path d="M 22.140625 0 L 78.242188 23.304688 L 58.96875 69.710938 L 2.867188 46.40625 Z M 22.140625 0 " clip-rule="nonzero"/></clipPath><clipPath id="id265"><path d="M 8 41 L 9 41 L 9 43 L 8 43 Z M 8 41 " clip-rule="nonzero"/></clipPath><clipPath id="id266"><path d="M 22.140625 0 L 78.242188 23.304688 L 58.96875 69.710938 L 2.867188 46.40625 Z M 22.140625 0 " clip-rule="nonzero"/></clipPath><clipPath id="id267"><path d="M 22.140625 0 L 78.242188 23.304688 L 58.96875 69.710938 L 2.867188 46.40625 Z M 22.140625 0 " clip-rule="nonzero"/></clipPath><clipPath id="id268"><path d="M 22.140625 0 L 78.242188 23.304688 L 58.96875 69.710938 L 2.867188 46.40625 Z M 22.140625 0 " clip-rule="nonzero"/></clipPath><clipPath id="id269"><path d="M 8 39 L 21 39 L 21 49 L 8 49 Z M 8 39 " clip-rule="nonzero"/></clipPath><clipPath id="id270"><path d="M 22.140625 0 L 78.242188 23.304688 L 58.96875 69.710938 L 2.867188 46.40625 Z M 22.140625 0 " clip-rule="nonzero"/></clipPath><clipPath id="id271"><path d="M 22.140625 0 L 78.242188 23.304688 L 58.96875 69.710938 L 2.867188 46.40625 Z M 22.140625 0 " clip-rule="nonzero"/></clipPath><clipPath id="id272"><path d="M 22.140625 0 L 78.242188 23.304688 L 58.96875 69.710938 L 2.867188 46.40625 Z M 22.140625 0 " clip-rule="nonzero"/></clipPath><clipPath id="id273"><path d="M 7 39 L 21 39 L 21 49 L 7 49 Z M 7 39 " clip-rule="nonzero"/></clipPath><clipPath id="id274"><path d="M 22.140625 0 L 78.242188 23.304688 L 58.96875 69.710938 L 2.867188 46.40625 Z M 22.140625 0 " clip-rule="nonzero"/></clipPath><clipPath id="id275"><path d="M 22.140625 0 L 78.242188 23.304688 L 58.96875 69.710938 L 2.867188 46.40625 Z M 22.140625 0 " clip-rule="nonzero"/></clipPath><clipPath id="id276"><path d="M 22.140625 0 L 78.242188 23.304688 L 58.96875 69.710938 L 2.867188 46.40625 Z M 22.140625 0 " clip-rule="nonzero"/></clipPath><clipPath id="id277"><path d="M 21 48 L 24 48 L 24 50 L 21 50 Z M 21 48 " clip-rule="nonzero"/></clipPath><clipPath id="id278"><path d="M 22.140625 0 L 78.242188 23.304688 L 58.96875 69.710938 L 2.867188 46.40625 Z M 22.140625 0 " clip-rule="nonzero"/></clipPath><clipPath id="id279"><path d="M 22.140625 0 L 78.242188 23.304688 L 58.96875 69.710938 L 2.867188 46.40625 Z M 22.140625 0 " clip-rule="nonzero"/></clipPath><clipPath id="id280"><path d="M 22.140625 0 L 78.242188 23.304688 L 58.96875 69.710938 L 2.867188 46.40625 Z M 22.140625 0 " clip-rule="nonzero"/></clipPath><clipPath id="id281"><path d="M 21 48 L 23 48 L 23 49 L 21 49 Z M 21 48 " clip-rule="nonzero"/></clipPath><clipPath id="id282"><path d="M 22.140625 0 L 78.242188 23.304688 L 58.96875 69.710938 L 2.867188 46.40625 Z M 22.140625 0 " clip-rule="nonzero"/></clipPath><clipPath id="id283"><path d="M 22.140625 0 L 78.242188 23.304688 L 58.96875 69.710938 L 2.867188 46.40625 Z M 22.140625 0 " clip-rule="nonzero"/></clipPath><clipPath id="id284"><path d="M 22.140625 0 L 78.242188 23.304688 L 58.96875 69.710938 L 2.867188 46.40625 Z M 22.140625 0 " clip-rule="nonzero"/></clipPath><clipPath id="id285"><path d="M 21 49 L 23 49 L 23 51 L 21 51 Z M 21 49 " clip-rule="nonzero"/></clipPath><clipPath id="id286"><path d="M 22.140625 0 L 78.242188 23.304688 L 58.96875 69.710938 L 2.867188 46.40625 Z M 22.140625 0 " clip-rule="nonzero"/></clipPath><clipPath id="id287"><path d="M 22.140625 0 L 78.242188 23.304688 L 58.96875 69.710938 L 2.867188 46.40625 Z M 22.140625 0 " clip-rule="nonzero"/></clipPath><clipPath id="id288"><path d="M 22.140625 0 L 78.242188 23.304688 L 58.96875 69.710938 L 2.867188 46.40625 Z M 22.140625 0 " clip-rule="nonzero"/></clipPath></defs><g clip-path="url(#id1)"><g clip-path="url(#id2)"><g clip-path="url(#id3)"><g clip-path="url(#id4)"><path fill="#ffffff" d="M 29.648438 32.769531 C 28.855469 34.683594 26.453125 38.65625 26.371094 40.664062 C 26.207031 44.609375 25.46875 45.816406 23.152344 48.078125 C 23.152344 48.078125 21.90625 47.234375 20.617188 48.234375 C 20.148438 48.601562 18.761719 50 20.011719 50.519531 C 21.242188 51.027344 23.753906 51.886719 24.476562 52.183594 C 25.550781 52.632812 26.351562 51.8125 27.003906 50.242188 C 27.574219 48.867188 31.53125 46.851562 31.363281 45.488281 C 31.117188 43.457031 31.023438 43.199219 31.679688 42.335938 C 33.082031 40.507812 35.003906 38.75 36.300781 35.878906 C 37.371094 33.515625 37.65625 28.496094 34.277344 27.09375 C 31.855469 26.085938 31.917969 27.308594 29.648438 32.769531 " fill-opacity="1" fill-rule="nonzero"/></g></g></g></g><g clip-path="url(#id5)"><g clip-path="url(#id6)"><g clip-path="url(#id7)"><g clip-path="url(#id8)"><path fill="#ffffff" d="M 28.15625 48.382812 C 27.914062 47.316406 27.742188 46.082031 26.875 45.3125 C 26.535156 45.007812 26.152344 44.785156 25.742188 44.585938 C 25.160156 45.777344 24.398438 46.683594 23.132812 47.917969 C 23.132812 47.917969 21.828125 47.203125 20.5 48.238281 C 20.015625 48.613281 18.589844 50.058594 19.875 50.59375 C 21.144531 51.117188 23.542969 52.121094 24.285156 52.429688 C 25.398438 52.894531 26.417969 51.925781 27.089844 50.304688 C 27.261719 49.894531 27.761719 49.285156 28.332031 48.792969 C 28.277344 48.609375 28.199219 48.570312 28.15625 48.382812 " fill-opacity="1" fill-rule="nonzero"/></g></g></g></g><g clip-path="url(#id9)"><g clip-path="url(#id10)"><g clip-path="url(#id11)"><g clip-path="url(#id12)"><path fill="#231f20" d="M 19.722656 50.417969 C 19.78125 50.175781 19.917969 49.964844 20.085938 49.785156 C 20.253906 49.605469 20.464844 49.460938 20.703125 49.367188 C 20.945312 49.273438 21.210938 49.242188 21.460938 49.28125 C 21.714844 49.324219 21.949219 49.4375 22.121094 49.617188 C 21.875 49.621094 21.65625 49.625 21.453125 49.660156 C 21.25 49.691406 21.0625 49.742188 20.875 49.8125 C 20.6875 49.886719 20.503906 49.976562 20.316406 50.078125 C 20.128906 50.183594 19.9375 50.296875 19.722656 50.417969 " fill-opacity="1" fill-rule="nonzero"/></g></g></g></g><g clip-path="url(#id13)"><g clip-path="url(#id14)"><g clip-path="url(#id15)"><g clip-path="url(#id16)"><path fill="#231f20" d="M 19.957031 49.070312 C 20 48.855469 20.113281 48.664062 20.269531 48.507812 C 20.429688 48.351562 20.644531 48.238281 20.871094 48.195312 C 21.101562 48.15625 21.335938 48.183594 21.539062 48.261719 C 21.742188 48.339844 21.917969 48.460938 22.058594 48.625 C 21.839844 48.640625 21.644531 48.628906 21.460938 48.628906 C 21.28125 48.628906 21.117188 48.640625 20.957031 48.667969 C 20.800781 48.695312 20.644531 48.742188 20.484375 48.8125 C 20.320312 48.882812 20.15625 48.976562 19.957031 49.070312 " fill-opacity="1" fill-rule="nonzero"/></g></g></g></g><g clip-path="url(#id17)"><g clip-path="url(#id18)"><g clip-path="url(#id19)"><g clip-path="url(#id20)"><path fill="#231f20" d="M 21.105469 51.078125 C 21.144531 50.867188 21.257812 50.671875 21.417969 50.515625 C 21.578125 50.359375 21.792969 50.246094 22.019531 50.207031 C 22.25 50.164062 22.484375 50.191406 22.683594 50.269531 C 22.886719 50.347656 23.0625 50.46875 23.207031 50.636719 C 22.984375 50.652344 22.792969 50.636719 22.609375 50.640625 C 22.425781 50.640625 22.261719 50.648438 22.105469 50.675781 C 21.945312 50.707031 21.792969 50.753906 21.628906 50.824219 C 21.46875 50.894531 21.304688 50.984375 21.105469 51.078125 " fill-opacity="1" fill-rule="nonzero"/></g></g></g></g><g clip-path="url(#id21)"><g clip-path="url(#id22)"><g clip-path="url(#id23)"><g clip-path="url(#id24)"><path fill="#ffffff" d="M 50.296875 48.613281 C 47.480469 46.660156 40.386719 42.875 34.046875 47.519531 C 33.988281 47.5625 33.925781 47.605469 33.867188 47.644531 L 33.871094 47.628906 C 33.84375 47.652344 33.8125 47.675781 33.785156 47.699219 C 33.742188 47.730469 33.691406 47.761719 33.648438 47.789062 L 33.636719 47.824219 C 30.074219 50.667969 24.308594 47.867188 24.308594 47.867188 C 24.636719 44.972656 20.710938 42.898438 20.382812 45.804688 C 20.265625 46.871094 20.085938 48.476562 20.085938 48.476562 C 19.976562 50.671875 21.210938 50.96875 22.464844 51.273438 C 22.992188 51.402344 23.519531 51.53125 23.957031 51.804688 C 25.816406 52.960938 28.304688 54.195312 29.847656 54.625 C 30.113281 54.699219 31.308594 54.851562 31.535156 54.773438 C 31.535156 54.777344 31.746094 54.773438 32.003906 54.792969 C 32.335938 54.8125 32.742188 54.871094 32.890625 55.007812 C 40.433594 61.980469 48.671875 63.230469 52.097656 57.558594 C 53.738281 54.839844 52.863281 50.390625 50.296875 48.613281 " fill-opacity="1" fill-rule="nonzero"/></g></g></g></g><g clip-path="url(#id25)"><g clip-path="url(#id26)"><g clip-path="url(#id27)"><g clip-path="url(#id28)"><path fill="#ffffff" d="M 28.238281 49.503906 C 28.167969 49.472656 28.132812 49.453125 28.132812 49.453125 C 28.140625 49.359375 28.148438 49.265625 28.148438 49.171875 C 28.179688 49.28125 28.207031 49.394531 28.238281 49.503906 " fill-opacity="1" fill-rule="nonzero"/></g></g></g></g><g clip-path="url(#id29)"><g clip-path="url(#id30)"><g clip-path="url(#id31)"><g clip-path="url(#id32)"><path fill="#ffffff" d="M 27.722656 50.136719 C 27.789062 49.792969 27.894531 49.292969 27.941406 48.945312 C 26.070312 48.402344 24.382812 47.699219 24.382812 47.699219 C 24.714844 44.742188 20.570312 42.769531 20.238281 45.738281 C 20.117188 46.824219 19.933594 48.460938 19.933594 48.460938 C 19.820312 50.71875 21.109375 51.058594 22.40625 51.398438 C 22.9375 51.539062 23.46875 51.675781 23.90625 51.949219 C 24.59375 52.378906 25.527344 52.851562 26.5 53.214844 C 27.085938 52.269531 27.507812 51.277344 27.722656 50.136719 " fill-opacity="1" fill-rule="nonzero"/></g></g></g></g><g clip-path="url(#id33)"><g clip-path="url(#id34)"><g clip-path="url(#id35)"><g clip-path="url(#id36)"><path fill="#231f20" d="M 20.679688 44.648438 C 20.929688 44.636719 21.171875 44.707031 21.390625 44.816406 C 21.609375 44.929688 21.808594 45.09375 21.964844 45.296875 C 22.117188 45.5 22.222656 45.746094 22.253906 46.003906 C 22.28125 46.257812 22.238281 46.515625 22.117188 46.730469 C 22.042969 46.492188 21.976562 46.285156 21.890625 46.097656 C 21.804688 45.914062 21.703125 45.746094 21.582031 45.585938 C 21.460938 45.425781 21.324219 45.273438 21.171875 45.125 C 21.019531 44.96875 20.859375 44.820312 20.679688 44.648438 " fill-opacity="1" fill-rule="nonzero"/></g></g></g></g><g clip-path="url(#id37)"><g clip-path="url(#id38)"><g clip-path="url(#id39)"><g clip-path="url(#id40)"><path fill="#231f20" d="M 22.039062 44.496094 C 22.253906 44.472656 22.472656 44.527344 22.667969 44.636719 C 22.859375 44.746094 23.027344 44.921875 23.128906 45.128906 C 23.234375 45.339844 23.273438 45.570312 23.253906 45.789062 C 23.234375 46.003906 23.167969 46.207031 23.046875 46.390625 C 22.972656 46.183594 22.929688 45.992188 22.878906 45.820312 C 22.828125 45.644531 22.773438 45.488281 22.703125 45.34375 C 22.632812 45.199219 22.542969 45.066406 22.433594 44.929688 C 22.320312 44.792969 22.1875 44.660156 22.039062 44.496094 " fill-opacity="1" fill-rule="nonzero"/></g></g></g></g><g clip-path="url(#id41)"><g clip-path="url(#id42)"><g clip-path="url(#id43)"><g clip-path="url(#id44)"><path fill="#231f20" d="M 20.261719 46.0625 C 20.480469 46.042969 20.695312 46.097656 20.890625 46.207031 C 21.082031 46.316406 21.25 46.492188 21.351562 46.699219 C 21.457031 46.90625 21.492188 47.140625 21.476562 47.355469 C 21.457031 47.574219 21.390625 47.777344 21.269531 47.960938 C 21.195312 47.753906 21.152344 47.5625 21.101562 47.386719 C 21.050781 47.210938 20.996094 47.054688 20.925781 46.914062 C 20.855469 46.765625 20.765625 46.632812 20.65625 46.496094 C 20.542969 46.359375 20.410156 46.230469 20.261719 46.0625 " fill-opacity="1" fill-rule="nonzero"/></g></g></g></g><g clip-path="url(#id45)"><g clip-path="url(#id46)"><g clip-path="url(#id47)"><g clip-path="url(#id48)"><path fill="#f3aa46" d="M 50.765625 62.558594 C 58.214844 58.152344 60.335938 45.640625 52.230469 37.171875 C 44.003906 28.570312 47.335938 23.390625 47.335938 23.390625 L 33.421875 23.542969 C 33.421875 23.542969 31.164062 28.984375 28.152344 36.238281 C 26.253906 40.800781 27.636719 51.753906 30.601562 54.183594 L 50.765625 62.558594 " fill-opacity="1" fill-rule="nonzero"/></g></g></g></g><g clip-path="url(#id49)"><g clip-path="url(#id50)"><g clip-path="url(#id51)"><g clip-path="url(#id52)"><path fill="#ef773b" d="M 52.300781 37.167969 C 44.070312 28.570312 47.402344 23.390625 47.402344 23.390625 L 43.664062 23.429688 C 43.378906 24.507812 42.332031 29.503906 45.769531 34.199219 C 49.65625 39.496094 52.984375 44.105469 50.539062 50 C 48.921875 53.886719 48.648438 58.835938 49.765625 62.117188 L 50.832031 62.558594 C 58.28125 58.152344 60.402344 45.636719 52.300781 37.167969 " fill-opacity="1" fill-rule="nonzero"/></g></g></g></g><g clip-path="url(#id53)"><g clip-path="url(#id54)"><g clip-path="url(#id55)"><g clip-path="url(#id56)"><path fill="#f3aa46" d="M 58.667969 52.46875 C 58.667969 52.46875 62.296875 49.316406 62.6875 44.476562 C 63.082031 39.640625 68.585938 38.875 69.667969 38.535156 C 69.667969 38.535156 65.945312 42.054688 65.910156 44.691406 C 65.851562 49.449219 63.960938 57.691406 54.410156 58.597656 C 54.410156 58.597656 55.277344 53.433594 58.667969 52.46875 " fill-opacity="1" fill-rule="nonzero"/></g></g></g></g><g clip-path="url(#id57)"><g clip-path="url(#id58)"><g clip-path="url(#id59)"><g clip-path="url(#id60)"><path fill="#ffffff" d="M 62.6875 44.476562 C 62.691406 44.515625 63.699219 45.121094 64.199219 45.160156 C 65.378906 45.25 65.878906 44.90625 65.910156 44.691406 C 66.316406 41.808594 70.066406 38.242188 70.066406 38.242188 C 68.984375 38.582031 62.707031 38.636719 62.6875 44.476562 " fill-opacity="1" fill-rule="nonzero"/></g></g></g></g><g clip-path="url(#id61)"><g clip-path="url(#id62)"><g clip-path="url(#id63)"><g clip-path="url(#id64)"><path fill="#f3aa46" d="M 39.835938 7.511719 C 39.835938 7.511719 38.175781 7.09375 36.203125 7.117188 C 33.972656 7.144531 31.460938 7.292969 29.875 7.769531 C 28.46875 8.191406 27.832031 8.703125 27.707031 10.015625 C 27.488281 12.308594 26.910156 17.871094 26.597656 20.851562 C 26.472656 22.039062 26.980469 22.742188 27.820312 22.507812 C 29.429688 22.058594 31.964844 21.023438 32.964844 18.832031 C 34.492188 15.503906 39.835938 7.511719 39.835938 7.511719 " fill-opacity="1" fill-rule="nonzero"/></g></g></g></g><g clip-path="url(#id65)"><g clip-path="url(#id66)"><g clip-path="url(#id67)"><g clip-path="url(#id68)"><path fill="#f3aa46" d="M 47.726562 20.679688 L 49.320312 13.652344 L 48.261719 11.101562 C 48.261719 11.101562 47.078125 10.367188 46.710938 10.257812 C 45.828125 9.996094 44.246094 9.703125 43.394531 9.347656 L 43.390625 9.355469 L 43.394531 9.347656 C 42.539062 9 41.210938 8.09375 40.398438 7.65625 C 40.0625 7.476562 37.730469 7.074219 36.15625 8.226562 C 34.699219 9.289062 32.335938 14.335938 32.335938 14.335938 C 31.40625 15.097656 29.363281 17.894531 30.671875 19.855469 C 32.78125 23.019531 32.8125 24.78125 35.375 25.835938 L 36.421875 26.269531 L 36.425781 26.261719 L 36.421875 26.269531 L 37.464844 26.699219 C 40.027344 27.753906 41.292969 26.523438 45.019531 25.769531 C 47.328125 25.300781 47.851562 21.878906 47.726562 20.679688 " fill-opacity="1" fill-rule="nonzero"/></g></g></g></g><g clip-path="url(#id69)"><g clip-path="url(#id70)"><g clip-path="url(#id71)"><g clip-path="url(#id72)"><path fill="#ffffff" d="M 41.074219 19.433594 L 44.25 9.628906 C 44.039062 9.5625 43.621094 9.417969 43.410156 9.339844 C 43.210938 9.265625 42.964844 9.171875 42.625 8.972656 L 37.914062 18.183594 C 35.800781 17.816406 33.5625 18.285156 32.910156 19.875 C 32.515625 20.824219 32.925781 23.445312 33.378906 24.390625 C 33.859375 24.980469 34.449219 25.449219 35.367188 25.828125 L 36.414062 26.257812 L 36.417969 26.25 L 36.414062 26.257812 L 37.457031 26.6875 C 38.375 27.066406 39.125 27.152344 39.882812 27.070312 C 40.871094 26.71875 43.1875 24.765625 43.578125 23.816406 C 44.230469 22.230469 42.871094 20.5625 41.074219 19.433594 " fill-opacity="1" fill-rule="nonzero"/></g></g></g></g><g clip-path="url(#id73)"><g clip-path="url(#id74)"><g clip-path="url(#id75)"><g clip-path="url(#id76)"><path fill="#231f20" d="M 45.628906 18.878906 C 45.402344 19.433594 44.929688 19.769531 44.578125 19.621094 C 44.226562 19.476562 44.125 18.910156 44.355469 18.355469 C 44.585938 17.796875 45.054688 17.464844 45.410156 17.609375 C 45.761719 17.753906 45.859375 18.324219 45.628906 18.878906 " fill-opacity="1" fill-rule="nonzero"/></g></g></g></g><g clip-path="url(#id77)"><g clip-path="url(#id78)"><g clip-path="url(#id79)"><g clip-path="url(#id80)"><path fill="#231f20" d="M 36.367188 15.0625 C 36.136719 15.617188 35.667969 15.949219 35.316406 15.804688 C 34.964844 15.660156 34.863281 15.09375 35.09375 14.535156 C 35.320312 13.980469 35.792969 13.648438 36.144531 13.792969 C 36.496094 13.9375 36.597656 14.503906 36.367188 15.0625 " fill-opacity="1" fill-rule="nonzero"/></g></g></g></g><g clip-path="url(#id81)"><g clip-path="url(#id82)"><g clip-path="url(#id83)"><g clip-path="url(#id84)"><path fill="#f3aa46" d="M 48.191406 11.058594 C 48.191406 11.058594 48.277344 11.101562 50.667969 12.6875 C 52.230469 13.71875 53.988281 15.097656 55.53125 16.824219 C 56.46875 17.867188 55.636719 19.480469 54.8125 20.53125 C 53.234375 22.542969 49.835938 27.191406 48.324219 29.257812 C 47.863281 29.890625 46.925781 29.757812 46.222656 28.914062 C 45.15625 27.628906 43.980469 25.609375 44.820312 23.566406 C 46.894531 18.539062 47.558594 16.898438 48.6875 14.15625 C 49.171875 12.984375 48.191406 11.058594 48.191406 11.058594 " fill-opacity="1" fill-rule="nonzero"/></g></g></g></g><g clip-path="url(#id85)"><g clip-path="url(#id86)"><g clip-path="url(#id87)"><g clip-path="url(#id88)"><path fill="#231f20" d="M 36.777344 17.398438 C 37.242188 16.761719 38.46875 17.066406 39.914062 17.664062 C 41.667969 18.386719 42.4375 18.90625 42.292969 19.671875 C 42.121094 20.570312 39.878906 21.316406 38.519531 20.757812 C 37.414062 20.300781 36.214844 18.171875 36.777344 17.398438 " fill-opacity="1" fill-rule="nonzero"/></g></g></g></g><g clip-path="url(#id89)"><g clip-path="url(#id90)"><g clip-path="url(#id91)"><g clip-path="url(#id92)"><path fill="#231f20" d="M 44.167969 24.097656 L 44.125 24.082031 C 43.523438 24.355469 42.898438 24.578125 42.257812 24.738281 C 41.941406 24.816406 41.617188 24.875 41.292969 24.902344 C 40.96875 24.925781 40.644531 24.917969 40.347656 24.832031 C 40.273438 24.808594 40.203125 24.785156 40.132812 24.753906 C 40.066406 24.71875 39.996094 24.683594 39.929688 24.644531 C 39.796875 24.5625 39.671875 24.46875 39.554688 24.363281 C 39.324219 24.15625 39.132812 23.902344 38.972656 23.632812 C 38.8125 23.359375 38.679688 23.070312 38.578125 22.769531 C 38.523438 22.621094 38.476562 22.46875 38.4375 22.3125 C 38.417969 22.238281 38.402344 22.160156 38.382812 22.085938 C 38.367188 22.011719 38.351562 21.925781 38.34375 21.859375 C 38.335938 21.816406 38.320312 21.773438 38.289062 21.738281 C 38.273438 21.714844 38.847656 20.636719 38.847656 20.636719 L 38.394531 20.449219 C 38.394531 20.449219 37.960938 21.632812 37.90625 21.675781 L 37.902344 21.679688 C 37.84375 21.71875 37.777344 21.765625 37.710938 21.808594 C 37.648438 21.851562 37.578125 21.890625 37.511719 21.933594 C 37.375 22.011719 37.234375 22.085938 37.09375 22.15625 C 36.808594 22.292969 36.511719 22.410156 36.207031 22.488281 C 35.902344 22.566406 35.585938 22.609375 35.277344 22.597656 C 35.121094 22.589844 34.964844 22.566406 34.816406 22.53125 C 34.742188 22.511719 34.667969 22.488281 34.59375 22.460938 L 34.566406 22.453125 L 34.488281 22.421875 C 34.453125 22.40625 34.421875 22.386719 34.386719 22.367188 C 34.121094 22.222656 33.882812 21.996094 33.671875 21.753906 C 33.457031 21.507812 33.273438 21.238281 33.101562 20.957031 C 32.761719 20.394531 32.476562 19.792969 32.242188 19.179688 L 32.242188 19.175781 C 32.234375 19.15625 32.210938 19.144531 32.191406 19.148438 C 32.167969 19.15625 32.15625 19.179688 32.164062 19.203125 C 32.359375 19.835938 32.609375 20.457031 32.921875 21.050781 C 33.082031 21.347656 33.257812 21.636719 33.464844 21.914062 C 33.675781 22.183594 33.914062 22.445312 34.226562 22.640625 C 34.261719 22.664062 34.304688 22.6875 34.34375 22.710938 C 34.363281 22.71875 34.386719 22.730469 34.410156 22.742188 L 34.4375 22.753906 L 34.46875 22.769531 C 34.554688 22.804688 34.636719 22.835938 34.722656 22.863281 C 34.894531 22.917969 35.074219 22.953125 35.253906 22.96875 C 35.609375 23.007812 35.96875 22.980469 36.3125 22.910156 C 36.65625 22.84375 36.988281 22.738281 37.308594 22.605469 C 37.464844 22.539062 37.621094 22.46875 37.777344 22.386719 C 37.816406 22.367188 37.855469 22.347656 37.894531 22.324219 C 37.90625 22.367188 37.917969 22.410156 37.929688 22.449219 C 37.984375 22.613281 38.046875 22.777344 38.113281 22.9375 C 38.246094 23.253906 38.40625 23.5625 38.605469 23.855469 C 38.800781 24.144531 39.035156 24.414062 39.3125 24.640625 C 39.453125 24.75 39.605469 24.851562 39.765625 24.933594 C 39.84375 24.976562 39.925781 25.015625 40.011719 25.046875 C 40.097656 25.082031 40.1875 25.105469 40.273438 25.128906 C 40.632812 25.207031 40.984375 25.191406 41.324219 25.144531 C 41.664062 25.097656 41.992188 25.015625 42.3125 24.914062 C 42.957031 24.710938 43.566406 24.449219 44.152344 24.136719 L 44.167969 24.097656 " fill-opacity="1" fill-rule="nonzero"/></g></g></g></g><g clip-path="url(#id93)"><g clip-path="url(#id94)"><g clip-path="url(#id95)"><g clip-path="url(#id96)"><path fill="#f3aa46" d="M 54.117188 50.199219 C 51.300781 48.246094 44.207031 44.460938 37.867188 49.105469 C 37.808594 49.148438 37.746094 49.191406 37.6875 49.230469 L 37.691406 49.214844 C 37.664062 49.238281 37.632812 49.261719 37.605469 49.285156 C 37.5625 49.316406 37.515625 49.347656 37.46875 49.375 L 37.457031 49.410156 C 33.894531 52.253906 28.132812 49.453125 28.132812 49.453125 C 28.457031 46.5625 24.53125 44.484375 24.203125 47.394531 C 24.085938 48.460938 23.90625 50.0625 23.90625 50.0625 C 23.796875 52.261719 25.03125 52.558594 26.285156 52.863281 C 26.8125 52.988281 27.339844 53.121094 27.777344 53.390625 C 29.636719 54.550781 32.125 55.78125 33.667969 56.214844 C 33.933594 56.289062 35.128906 56.4375 35.355469 56.359375 C 35.355469 56.363281 35.566406 56.359375 35.824219 56.378906 C 36.15625 56.402344 36.5625 56.457031 36.714844 56.59375 C 44.253906 63.566406 52.492188 64.820312 55.917969 59.144531 C 57.558594 56.425781 56.683594 51.976562 54.117188 50.199219 " fill-opacity="1" fill-rule="nonzero"/></g></g></g></g><g clip-path="url(#id97)"><g clip-path="url(#id98)"><g clip-path="url(#id99)"><g clip-path="url(#id100)"><path fill="#ffffff" d="M 56.269531 58.441406 C 56.289062 58.394531 56.308594 58.347656 56.328125 58.296875 C 56.308594 58.347656 56.289062 58.394531 56.269531 58.441406 " fill-opacity="1" fill-rule="nonzero"/></g></g></g></g><g clip-path="url(#id101)"><g clip-path="url(#id102)"><g clip-path="url(#id103)"><g clip-path="url(#id104)"><path fill="#f7bc61" d="M 31.691406 50.539062 C 33.613281 50.707031 35.816406 50.714844 37.457031 49.40625 L 37.457031 49.410156 C 35.746094 50.777344 33.53125 50.839844 31.691406 50.539062 M 37.46875 49.375 L 37.472656 49.371094 C 37.515625 49.339844 37.5625 49.3125 37.609375 49.28125 C 37.636719 49.257812 37.664062 49.234375 37.691406 49.207031 L 37.691406 49.226562 C 37.75 49.183594 37.808594 49.140625 37.871094 49.097656 C 42.203125 45.925781 46.886719 46.6875 50.320312 48.113281 C 50.574219 48.21875 50.820312 48.328125 51.0625 48.441406 C 51.0625 48.441406 51.058594 48.445312 51.058594 48.449219 C 50.820312 48.335938 50.570312 48.226562 50.316406 48.121094 C 46.886719 46.695312 42.199219 45.929688 37.867188 49.105469 C 37.808594 49.148438 37.746094 49.191406 37.6875 49.230469 L 37.691406 49.214844 C 37.664062 49.238281 37.632812 49.261719 37.605469 49.285156 C 37.5625 49.316406 37.515625 49.347656 37.46875 49.375 " fill-opacity="1" fill-rule="nonzero"/></g></g></g></g><g clip-path="url(#id105)"><g clip-path="url(#id106)"><g clip-path="url(#id107)"><g clip-path="url(#id108)"><path fill="#f39051" d="M 56.503906 53.910156 C 56.117188 52.394531 55.296875 51.015625 54.117188 50.199219 C 53.371094 49.679688 52.316406 49.03125 51.058594 48.449219 C 51.058594 48.445312 51.0625 48.441406 51.0625 48.441406 C 52.320312 49.027344 53.371094 49.675781 54.121094 50.195312 C 55.300781 51.011719 56.121094 52.390625 56.507812 53.90625 C 56.503906 53.910156 56.503906 53.910156 56.503906 53.910156 " fill-opacity="1" fill-rule="nonzero"/></g></g></g></g><g clip-path="url(#id109)"><g clip-path="url(#id110)"><g clip-path="url(#id111)"><g clip-path="url(#id112)"><path fill="#f7bc61" d="M 56.328125 58.296875 C 56.839844 56.960938 56.875 55.371094 56.503906 53.910156 C 56.503906 53.910156 56.503906 53.910156 56.507812 53.90625 C 56.878906 55.371094 56.839844 56.960938 56.328125 58.296875 " fill-opacity="1" fill-rule="nonzero"/></g></g></g></g><g clip-path="url(#id113)"><g clip-path="url(#id114)"><g clip-path="url(#id115)"><g clip-path="url(#id116)"><path fill="#f7bc61" d="M 27.996094 51.394531 C 27.636719 51.242188 27.429688 51.144531 27.429688 51.144531 C 27.566406 49.925781 29.4375 50.34375 31.691406 50.539062 C 33.53125 50.839844 35.746094 50.777344 37.457031 49.410156 L 37.457031 49.40625 L 37.46875 49.375 C 37.515625 49.347656 37.5625 49.316406 37.605469 49.285156 C 37.632812 49.261719 37.664062 49.238281 37.691406 49.214844 L 37.6875 49.230469 C 37.746094 49.191406 37.808594 49.148438 37.867188 49.105469 C 42.199219 45.929688 46.886719 46.695312 50.316406 48.121094 C 50.570312 48.226562 50.820312 48.335938 51.058594 48.449219 C 52.316406 49.03125 53.371094 49.679688 54.117188 50.199219 C 55.296875 51.015625 56.117188 52.394531 56.503906 53.910156 C 56.875 55.371094 56.839844 56.960938 56.328125 58.296875 C 56.308594 58.347656 56.289062 58.394531 56.269531 58.441406 C 56.167969 58.683594 56.050781 58.917969 55.917969 59.140625 C 55.898438 59.171875 55.878906 59.207031 55.855469 59.238281 C 56.488281 56.613281 54.949219 53.171875 52.839844 51.710938 C 51.945312 51.09375 50.757812 50.34375 49.351562 49.761719 C 46.308594 48.496094 42.238281 47.988281 37.902344 51.164062 C 37.84375 51.207031 37.785156 51.25 37.726562 51.289062 L 37.726562 51.273438 C 37.699219 51.296875 37.671875 51.320312 37.644531 51.34375 C 37.597656 51.375 37.550781 51.40625 37.503906 51.433594 L 37.492188 51.46875 C 34.566406 53.804688 29.65625 52.082031 27.996094 51.394531 " fill-opacity="1" fill-rule="nonzero"/></g></g></g></g><g clip-path="url(#id117)"><g clip-path="url(#id118)"><g clip-path="url(#id119)"><g clip-path="url(#id120)"><path fill="#ffffff" d="M 31.546875 51.722656 C 31.609375 51.378906 31.714844 50.878906 31.761719 50.535156 C 29.894531 49.988281 28.203125 49.285156 28.203125 49.285156 C 28.535156 46.332031 24.390625 44.355469 24.058594 47.324219 C 23.9375 48.414062 23.753906 50.046875 23.753906 50.046875 C 23.59375 53.234375 26.222656 52.597656 27.726562 53.539062 C 28.414062 53.964844 29.347656 54.4375 30.320312 54.800781 C 30.90625 53.855469 31.328125 52.863281 31.546875 51.722656 " fill-opacity="1" fill-rule="nonzero"/></g></g></g></g><g clip-path="url(#id121)"><g clip-path="url(#id122)"><g clip-path="url(#id123)"><g clip-path="url(#id124)"><path fill="#231f20" d="M 24.503906 46.234375 C 24.75 46.222656 24.992188 46.292969 25.210938 46.40625 C 25.429688 46.515625 25.628906 46.679688 25.785156 46.882812 C 25.9375 47.085938 26.042969 47.335938 26.074219 47.589844 C 26.105469 47.84375 26.0625 48.101562 25.9375 48.316406 C 25.863281 48.078125 25.796875 47.875 25.710938 47.6875 C 25.625 47.5 25.523438 47.332031 25.402344 47.171875 C 25.28125 47.011719 25.144531 46.863281 24.992188 46.710938 C 24.839844 46.558594 24.679688 46.40625 24.503906 46.234375 " fill-opacity="1" fill-rule="nonzero"/></g></g></g></g><g clip-path="url(#id125)"><g clip-path="url(#id126)"><g clip-path="url(#id127)"><g clip-path="url(#id128)"><path fill="#231f20" d="M 25.859375 46.082031 C 26.078125 46.0625 26.292969 46.117188 26.488281 46.222656 C 26.679688 46.335938 26.847656 46.507812 26.953125 46.71875 C 27.054688 46.925781 27.09375 47.15625 27.074219 47.375 C 27.054688 47.59375 26.988281 47.796875 26.867188 47.976562 C 26.792969 47.769531 26.75 47.578125 26.699219 47.40625 C 26.648438 47.230469 26.59375 47.074219 26.523438 46.929688 C 26.453125 46.785156 26.363281 46.652344 26.253906 46.515625 C 26.140625 46.378906 26.007812 46.246094 25.859375 46.082031 " fill-opacity="1" fill-rule="nonzero"/></g></g></g></g><g clip-path="url(#id129)"><g clip-path="url(#id130)"><g clip-path="url(#id131)"><g clip-path="url(#id132)"><path fill="#231f20" d="M 24.082031 47.648438 C 24.300781 47.628906 24.515625 47.683594 24.710938 47.792969 C 24.902344 47.902344 25.070312 48.078125 25.175781 48.285156 C 25.277344 48.496094 25.316406 48.726562 25.296875 48.941406 C 25.277344 49.160156 25.210938 49.363281 25.089844 49.546875 C 25.015625 49.339844 24.976562 49.148438 24.921875 48.972656 C 24.871094 48.800781 24.816406 48.644531 24.746094 48.5 C 24.675781 48.355469 24.589844 48.222656 24.476562 48.085938 C 24.363281 47.945312 24.230469 47.816406 24.082031 47.648438 " fill-opacity="1" fill-rule="nonzero"/></g></g></g></g><g clip-path="url(#id133)"><g clip-path="url(#id134)"><g clip-path="url(#id135)"><g clip-path="url(#id136)"><path fill="#f3aa46" d="M 31.761719 34.988281 C 30.96875 36.898438 31.503906 38.894531 31.820312 42.828125 C 32.140625 46.761719 31.199219 48.199219 28.882812 50.460938 C 28.882812 50.460938 27.636719 49.613281 26.347656 50.617188 C 25.878906 50.980469 24.496094 52.378906 25.742188 52.898438 C 26.972656 53.410156 29.484375 54.265625 30.207031 54.566406 C 31.285156 55.011719 32.082031 54.195312 32.734375 52.621094 C 33.304688 51.246094 37.261719 49.230469 37.09375 47.867188 C 36.847656 45.839844 36.753906 45.582031 37.414062 44.71875 C 38.8125 42.886719 40.738281 41.128906 42.035156 38.261719 C 43.101562 35.894531 42.648438 30.972656 39.265625 29.566406 C 36.84375 28.5625 34.03125 29.523438 31.761719 34.988281 " fill-opacity="1" fill-rule="nonzero"/></g></g></g></g><g clip-path="url(#id137)"><g clip-path="url(#id138)"><g clip-path="url(#id139)"><g clip-path="url(#id140)"><path fill="#ffffff" d="M 33.886719 50.761719 C 33.644531 49.695312 33.472656 48.460938 32.609375 47.691406 C 32.269531 47.386719 31.882812 47.164062 31.472656 46.964844 C 30.890625 48.160156 30.128906 49.066406 28.863281 50.300781 C 28.863281 50.300781 27.5625 49.582031 26.230469 50.617188 C 25.746094 50.992188 24.320312 52.4375 25.609375 52.972656 C 26.875 53.5 29.273438 54.5 30.019531 54.8125 C 31.128906 55.273438 32.148438 54.308594 32.820312 52.6875 C 32.992188 52.273438 33.492188 51.664062 34.0625 51.171875 C 34.007812 50.992188 33.929688 50.949219 33.886719 50.761719 " fill-opacity="1" fill-rule="nonzero"/></g></g></g></g><g clip-path="url(#id141)"><g clip-path="url(#id142)"><g clip-path="url(#id143)"><g clip-path="url(#id144)"><path fill="#231f20" d="M 25.453125 52.800781 C 25.511719 52.554688 25.648438 52.347656 25.816406 52.164062 C 25.984375 51.988281 26.195312 51.839844 26.433594 51.746094 C 26.675781 51.652344 26.941406 51.621094 27.195312 51.664062 C 27.445312 51.707031 27.679688 51.816406 27.851562 51.996094 C 27.605469 52.003906 27.386719 52.007812 27.183594 52.039062 C 26.980469 52.070312 26.792969 52.121094 26.605469 52.195312 C 26.417969 52.265625 26.234375 52.355469 26.046875 52.460938 C 25.859375 52.5625 25.667969 52.679688 25.453125 52.800781 " fill-opacity="1" fill-rule="nonzero"/></g></g></g></g><g clip-path="url(#id145)"><g clip-path="url(#id146)"><g clip-path="url(#id147)"><g clip-path="url(#id148)"><path fill="#231f20" d="M 25.6875 51.449219 C 25.730469 51.238281 25.84375 51.042969 26 50.886719 C 26.160156 50.730469 26.375 50.617188 26.605469 50.578125 C 26.832031 50.535156 27.066406 50.566406 27.269531 50.640625 C 27.472656 50.71875 27.648438 50.839844 27.789062 51.007812 C 27.570312 51.023438 27.375 51.007812 27.195312 51.011719 C 27.011719 51.011719 26.847656 51.019531 26.6875 51.046875 C 26.53125 51.078125 26.375 51.125 26.214844 51.195312 C 26.050781 51.265625 25.886719 51.355469 25.6875 51.449219 " fill-opacity="1" fill-rule="nonzero"/></g></g></g></g><g clip-path="url(#id149)"><g clip-path="url(#id150)"><g clip-path="url(#id151)"><g clip-path="url(#id152)"><path fill="#231f20" d="M 26.835938 53.460938 C 26.875 53.246094 26.988281 53.050781 27.148438 52.898438 C 27.308594 52.742188 27.523438 52.628906 27.75 52.585938 C 27.980469 52.542969 28.214844 52.574219 28.414062 52.652344 C 28.617188 52.730469 28.792969 52.847656 28.9375 53.015625 C 28.71875 53.03125 28.523438 53.019531 28.339844 53.019531 C 28.160156 53.019531 27.992188 53.027344 27.835938 53.058594 C 27.675781 53.085938 27.523438 53.132812 27.363281 53.203125 C 27.199219 53.273438 27.035156 53.363281 26.835938 53.460938 " fill-opacity="1" fill-rule="nonzero"/></g></g></g></g><g clip-path="url(#id153)"><g clip-path="url(#id154)"><g clip-path="url(#id155)"><g clip-path="url(#id156)"><path fill="#bdbcbc" d="M 24.636719 53.128906 C 24.003906 52.863281 23.046875 52.464844 23.046875 52.464844 C 21.246094 51.585938 22.4375 50.367188 22.382812 49.246094 C 22.011719 42.054688 26.621094 38.179688 28.378906 39.328125 C 29.402344 39.992188 29.589844 41.53125 28.878906 42.65625 C 27.878906 44.242188 24.804688 50.28125 24.804688 50.28125 C 26.53125 50.996094 26.371094 53.847656 24.636719 53.128906 " fill-opacity="1" fill-rule="nonzero"/></g></g></g></g><g clip-path="url(#id157)"><g clip-path="url(#id158)"><g clip-path="url(#id159)"><g clip-path="url(#id160)"><path fill="#231f20" d="M 25.703125 53 C 25.773438 52.894531 25.796875 52.773438 25.792969 52.652344 C 25.789062 52.53125 25.757812 52.40625 25.699219 52.296875 C 25.582031 52.078125 25.34375 51.914062 25.09375 51.933594 C 25.164062 52.039062 25.226562 52.121094 25.28125 52.207031 C 25.335938 52.285156 25.382812 52.363281 25.425781 52.445312 C 25.472656 52.527344 25.511719 52.613281 25.554688 52.703125 C 25.601562 52.792969 25.644531 52.890625 25.703125 53 " fill-opacity="1" fill-rule="nonzero"/></g></g></g></g><g clip-path="url(#id161)"><g clip-path="url(#id162)"><g clip-path="url(#id163)"><g clip-path="url(#id164)"><path fill="#231f20" d="M 24.898438 53.179688 C 24.988281 53.089844 25.03125 52.972656 25.050781 52.851562 C 25.066406 52.730469 25.054688 52.601562 25.003906 52.484375 C 24.910156 52.246094 24.683594 52.066406 24.433594 52.074219 C 24.496094 52.183594 24.554688 52.269531 24.597656 52.355469 C 24.648438 52.4375 24.683594 52.519531 24.71875 52.601562 C 24.75 52.683594 24.78125 52.769531 24.808594 52.863281 L 24.898438 53.179688 " fill-opacity="1" fill-rule="nonzero"/></g></g></g></g><g clip-path="url(#id165)"><g clip-path="url(#id166)"><g clip-path="url(#id167)"><g clip-path="url(#id168)"><path fill="#ffffff" d="M 30.003906 34.289062 C 29.894531 34.921875 29.691406 35.542969 29.453125 36.128906 C 28.925781 37.414062 26.367188 44.390625 15.710938 44.191406 C 13.40625 44.148438 11.074219 44.46875 8.808594 44.140625 C 8.707031 44.125 8.605469 44.109375 8.5 44.097656 C 8.535156 44.367188 8.582031 44.636719 8.652344 44.90625 L 20.328125 49.753906 C 22.535156 49.976562 27.59375 46.070312 28.691406 43.425781 C 30.4375 39.226562 31.742188 36.078125 31.742188 36.078125 L 30.003906 34.289062 " fill-opacity="1" fill-rule="nonzero"/></g></g></g></g><g clip-path="url(#id169)"><g clip-path="url(#id170)"><g clip-path="url(#id171)"><g clip-path="url(#id172)"><path fill="#bdbcbc" d="M 26.121094 30.304688 C 26.121094 30.304688 25.359375 33.789062 18.46875 33.929688 C 14.808594 34 11.882812 35.777344 10.15625 38.160156 C 9.824219 37.597656 9.507812 36.761719 10.058594 36.171875 C 10.234375 35.984375 10.460938 35.757812 10.722656 35.496094 C 11.726562 34.503906 13.097656 33.140625 13.964844 31.5625 C 15.398438 28.964844 14.691406 27.074219 13.847656 25.949219 C 13.519531 25.511719 12.902344 25.425781 12.464844 25.753906 C 12.03125 26.082031 11.941406 26.703125 12.269531 27.136719 C 13.871094 29.273438 11.59375 31.847656 9.335938 34.09375 C 9.058594 34.367188 8.820312 34.605469 8.617188 34.820312 C 6.925781 36.632812 8.171875 39.023438 9.089844 40.058594 C 8.433594 41.632812 8.25 43.328125 8.652344 44.90625 L 20.328125 49.753906 C 22.535156 49.976562 27.59375 46.070312 28.691406 43.425781 C 30.4375 39.226562 31.742188 36.078125 31.742188 36.078125 L 26.121094 30.304688 " fill-opacity="1" fill-rule="nonzero"/></g></g></g></g><g clip-path="url(#id173)"><g clip-path="url(#id174)"><g clip-path="url(#id175)"><g clip-path="url(#id176)"><path fill="#bdbcbc" d="M 22.421875 52.207031 C 21.785156 51.941406 20.832031 51.546875 20.832031 51.546875 C 19.03125 50.664062 20.222656 49.445312 20.164062 48.324219 C 19.796875 41.132812 24.402344 37.257812 26.164062 38.40625 C 27.1875 39.070312 27.375 40.609375 26.664062 41.734375 C 25.664062 43.324219 22.589844 49.359375 22.589844 49.359375 C 24.3125 50.074219 24.15625 52.925781 22.421875 52.207031 " fill-opacity="1" fill-rule="nonzero"/></g></g></g></g><g clip-path="url(#id177)"><g clip-path="url(#id178)"><g clip-path="url(#id179)"><g clip-path="url(#id180)"><path fill="#231f20" d="M 23.484375 52.082031 C 23.558594 51.976562 23.578125 51.851562 23.578125 51.730469 C 23.574219 51.609375 23.542969 51.484375 23.484375 51.375 C 23.363281 51.15625 23.128906 50.992188 22.875 51.015625 C 22.949219 51.121094 23.011719 51.203125 23.066406 51.285156 C 23.117188 51.367188 23.164062 51.445312 23.210938 51.523438 C 23.253906 51.605469 23.296875 51.691406 23.339844 51.78125 C 23.382812 51.875 23.429688 51.96875 23.484375 52.082031 " fill-opacity="1" fill-rule="nonzero"/></g></g></g></g><g clip-path="url(#id181)"><g clip-path="url(#id182)"><g clip-path="url(#id183)"><g clip-path="url(#id184)"><path fill="#231f20" d="M 22.683594 52.257812 C 22.773438 52.167969 22.816406 52.050781 22.835938 51.929688 C 22.851562 51.808594 22.835938 51.679688 22.789062 51.5625 C 22.695312 51.328125 22.464844 51.148438 22.21875 51.152344 C 22.28125 51.265625 22.335938 51.351562 22.382812 51.433594 C 22.429688 51.519531 22.46875 51.597656 22.503906 51.679688 C 22.535156 51.761719 22.5625 51.847656 22.59375 51.945312 L 22.683594 52.257812 " fill-opacity="1" fill-rule="nonzero"/></g></g></g></g><g clip-path="url(#id185)"><g clip-path="url(#id186)"><g clip-path="url(#id187)"><g clip-path="url(#id188)"><path fill="#bdbcbc" d="M 27.425781 25.90625 C 27.425781 25.90625 28.101562 22.015625 30.195312 21.582031 C 30.195312 21.582031 32.585938 23.132812 32.472656 25.421875 C 32.472656 25.421875 30.148438 26.777344 27.425781 25.90625 " fill-opacity="1" fill-rule="nonzero"/></g></g></g></g><g clip-path="url(#id189)"><g clip-path="url(#id190)"><g clip-path="url(#id191)"><g clip-path="url(#id192)"><path fill="#ffffff" d="M 28.527344 25.90625 C 28.527344 25.90625 28.957031 23.4375 30.285156 23.160156 C 30.285156 23.160156 31.800781 24.144531 31.730469 25.597656 C 31.730469 25.597656 30.253906 26.460938 28.527344 25.90625 " fill-opacity="1" fill-rule="nonzero"/></g></g></g></g><g clip-path="url(#id193)"><g clip-path="url(#id194)"><g clip-path="url(#id195)"><g clip-path="url(#id196)"><path fill="#bdbcbc" d="M 37.003906 32.566406 C 37.003906 32.566406 40.40625 30.574219 40.082031 28.460938 C 40.082031 28.460938 37.796875 26.761719 35.695312 27.664062 C 35.695312 27.664062 35.238281 30.316406 37.003906 32.566406 " fill-opacity="1" fill-rule="nonzero"/></g></g></g></g><g clip-path="url(#id197)"><g clip-path="url(#id198)"><g clip-path="url(#id199)"><g clip-path="url(#id200)"><path fill="#ffffff" d="M 36.617188 31.535156 C 36.617188 31.535156 38.78125 30.273438 38.578125 28.929688 C 38.578125 28.929688 37.125 27.847656 35.789062 28.421875 C 35.789062 28.421875 35.5 30.105469 36.617188 31.535156 " fill-opacity="1" fill-rule="nonzero"/></g></g></g></g><g clip-path="url(#id201)"><g clip-path="url(#id202)"><g clip-path="url(#id203)"><g clip-path="url(#id204)"><path fill="#bdbcbc" d="M 25.328125 27.308594 C 22.941406 29.636719 25.207031 32.78125 28.269531 34.910156 C 31.332031 37.039062 35.226562 38.132812 36.414062 35.019531 C 37.765625 31.472656 36.667969 27.824219 34.320312 26.191406 C 31.972656 24.5625 28.140625 24.5625 25.328125 27.308594 " fill-opacity="1" fill-rule="nonzero"/></g></g></g></g><g clip-path="url(#id205)"><g clip-path="url(#id206)"><g clip-path="url(#id207)"><g clip-path="url(#id208)"><path fill="#ffffff" d="M 31.449219 30.359375 C 34.039062 32.160156 35.226562 34.933594 34.105469 36.550781 C 34 36.699219 33.878906 36.832031 33.746094 36.949219 C 32.101562 37.03125 30.046875 36.144531 28.269531 34.910156 C 26.476562 33.664062 24.957031 32.066406 24.484375 30.488281 C 24.546875 30.328125 24.628906 30.171875 24.730469 30.03125 C 25.851562 28.410156 28.859375 28.558594 31.449219 30.359375 " fill-opacity="1" fill-rule="nonzero"/></g></g></g></g><g clip-path="url(#id209)"><g clip-path="url(#id210)"><g clip-path="url(#id211)"><g clip-path="url(#id212)"><path fill="#231f20" d="M 28.722656 27.46875 C 28.449219 27.828125 28.414062 28.257812 28.640625 28.429688 C 28.867188 28.601562 29.273438 28.449219 29.542969 28.089844 C 29.816406 27.734375 29.851562 27.304688 29.625 27.132812 C 29.398438 26.960938 28.992188 27.109375 28.722656 27.46875 " fill-opacity="1" fill-rule="nonzero"/></g></g></g></g><g clip-path="url(#id213)"><g clip-path="url(#id214)"><g clip-path="url(#id215)"><g clip-path="url(#id216)"><path fill="#231f20" d="M 34.691406 32.003906 C 34.417969 32.359375 34.382812 32.789062 34.609375 32.960938 C 34.835938 33.136719 35.238281 32.984375 35.511719 32.625 C 35.78125 32.269531 35.816406 31.835938 35.589844 31.664062 C 35.363281 31.492188 34.960938 31.644531 34.691406 32.003906 " fill-opacity="1" fill-rule="nonzero"/></g></g></g></g><g clip-path="url(#id217)"><g clip-path="url(#id218)"><g clip-path="url(#id219)"><g clip-path="url(#id220)"><path fill="#f8a3d6" d="M 29.554688 34.21875 L 29.398438 34.4375 C 29.21875 34.683594 28.878906 34.742188 28.632812 34.566406 C 28.386719 34.386719 28.332031 34.046875 28.507812 33.800781 L 28.65625 33.59375 C 28.65625 33.59375 28.910156 33.671875 29.152344 33.558594 C 29.410156 33.4375 29.492188 33.417969 29.453125 33.710938 C 29.40625 34.042969 29.554688 34.21875 29.554688 34.21875 " fill-opacity="1" fill-rule="nonzero"/></g></g></g></g><g clip-path="url(#id221)"><g clip-path="url(#id222)"><g clip-path="url(#id223)"><g clip-path="url(#id224)"><path fill="#231f20" d="M 30.789062 33.632812 L 30.75 33.609375 C 30.65625 33.570312 30.550781 33.601562 30.492188 33.683594 L 30.269531 33.996094 C 30.222656 34.0625 30.15625 34.109375 30.085938 34.121094 C 29.992188 34.144531 29.886719 34.109375 29.765625 34.023438 C 29.660156 33.949219 29.621094 33.855469 29.632812 33.71875 C 29.648438 33.585938 29.714844 33.46875 29.746094 33.417969 C 29.761719 33.398438 29.773438 33.382812 29.78125 33.371094 L 30.664062 32.136719 L 30.726562 32.039062 L 30.378906 31.792969 L 29.429688 33.121094 L 29.40625 33.15625 C 29.351562 33.222656 29.261719 33.316406 29.148438 33.371094 C 29.023438 33.429688 28.921875 33.421875 28.816406 33.34375 C 28.703125 33.265625 28.640625 33.175781 28.625 33.082031 C 28.609375 32.984375 28.652344 32.898438 28.683594 32.859375 L 28.90625 32.546875 C 28.9375 32.5 28.953125 32.441406 28.945312 32.386719 C 28.933594 32.328125 28.902344 32.28125 28.855469 32.246094 C 28.761719 32.179688 28.625 32.203125 28.558594 32.296875 L 28.335938 32.609375 C 28.125 32.902344 28.109375 33.367188 28.566406 33.695312 C 28.757812 33.832031 28.984375 33.871094 29.203125 33.804688 C 29.214844 34.035156 29.320312 34.234375 29.515625 34.375 C 29.585938 34.425781 29.65625 34.464844 29.726562 34.492188 C 29.917969 34.574219 30.078125 34.5625 30.175781 34.542969 C 30.410156 34.488281 30.550781 34.335938 30.617188 34.246094 L 30.839844 33.933594 C 30.910156 33.835938 30.886719 33.703125 30.789062 33.632812 " fill-opacity="1" fill-rule="nonzero"/></g></g></g></g><g clip-path="url(#id225)"><g clip-path="url(#id226)"><g clip-path="url(#id227)"><g clip-path="url(#id228)"><path fill="#231f20" d="M 29.289062 30.796875 C 28.945312 31.273438 29.269531 32.097656 30.019531 32.632812 C 30.765625 33.171875 31.648438 33.214844 31.992188 32.734375 C 32.335938 32.257812 32.007812 31.433594 31.261719 30.898438 C 30.515625 30.359375 29.628906 30.316406 29.289062 30.796875 " fill-opacity="1" fill-rule="nonzero"/></g></g></g></g><g clip-path="url(#id229)"><g clip-path="url(#id230)"><g clip-path="url(#id231)"><g clip-path="url(#id232)"><path fill="#231f20" d="M 29.257812 30.113281 C 29.285156 30.125 29.324219 30.125 29.355469 30.105469 C 29.414062 30.074219 29.433594 30.003906 29.402344 29.949219 C 29.382812 29.910156 27.398438 26.386719 24.449219 25.203125 C 24.390625 25.179688 24.320312 25.207031 24.296875 25.269531 C 24.273438 25.328125 24.300781 25.394531 24.359375 25.421875 L 24.363281 25.421875 C 24.386719 25.429688 24.40625 25.4375 24.429688 25.449219 C 27.261719 26.625 29.179688 30.027344 29.199219 30.0625 C 29.210938 30.085938 29.230469 30.101562 29.257812 30.113281 " fill-opacity="1" fill-rule="nonzero"/></g></g></g></g><g clip-path="url(#id233)"><g clip-path="url(#id234)"><g clip-path="url(#id235)"><g clip-path="url(#id236)"><path fill="#231f20" d="M 28.894531 30.296875 C 28.933594 30.3125 28.976562 30.304688 29.011719 30.28125 C 29.0625 30.238281 29.074219 30.167969 29.035156 30.117188 C 29.007812 30.082031 26.367188 26.675781 23.300781 25.582031 C 23.238281 25.558594 23.171875 25.59375 23.152344 25.652344 C 23.128906 25.714844 23.160156 25.78125 23.222656 25.804688 C 26.222656 26.875 28.824219 30.226562 28.847656 30.257812 C 28.863281 30.277344 28.878906 30.289062 28.894531 30.296875 " fill-opacity="1" fill-rule="nonzero"/></g></g></g></g><g clip-path="url(#id237)"><g clip-path="url(#id238)"><g clip-path="url(#id239)"><g clip-path="url(#id240)"><path fill="#231f20" d="M 28.644531 30.621094 C 28.683594 30.636719 28.730469 30.628906 28.765625 30.601562 C 28.8125 30.558594 28.820312 30.484375 28.777344 30.433594 C 28.757812 30.410156 26.542969 27.851562 23.199219 26.691406 C 23.136719 26.667969 23.070312 26.699219 23.046875 26.761719 C 23.027344 26.824219 23.058594 26.890625 23.121094 26.910156 C 26.402344 28.050781 28.578125 30.5625 28.597656 30.585938 C 28.613281 30.601562 28.628906 30.613281 28.644531 30.621094 " fill-opacity="1" fill-rule="nonzero"/></g></g></g></g><g clip-path="url(#id241)"><g clip-path="url(#id242)"><g clip-path="url(#id243)"><g clip-path="url(#id244)"><path fill="#231f20" d="M 28.4375 30.957031 C 28.484375 30.976562 28.539062 30.964844 28.574219 30.925781 C 28.613281 30.875 28.609375 30.800781 28.558594 30.761719 C 28.535156 30.742188 26.203125 28.808594 23.78125 28.082031 C 23.71875 28.0625 23.65625 28.097656 23.636719 28.160156 C 23.617188 28.222656 23.652344 28.289062 23.714844 28.304688 C 26.089844 29.019531 28.386719 30.921875 28.40625 30.9375 L 28.4375 30.957031 " fill-opacity="1" fill-rule="nonzero"/></g></g></g></g><g clip-path="url(#id245)"><g clip-path="url(#id246)"><g clip-path="url(#id247)"><g clip-path="url(#id248)"><path fill="#231f20" d="M 38.007812 36.644531 C 38.042969 36.660156 38.085938 36.65625 38.117188 36.636719 C 38.171875 36.601562 38.1875 36.527344 38.152344 36.476562 C 36.429688 33.804688 32.589844 32.53125 32.550781 32.519531 C 32.492188 32.5 32.425781 32.535156 32.40625 32.59375 C 32.382812 32.65625 32.414062 32.722656 32.480469 32.742188 C 32.515625 32.753906 36.277344 34.003906 37.957031 36.601562 C 37.96875 36.621094 37.988281 36.636719 38.007812 36.644531 " fill-opacity="1" fill-rule="nonzero"/></g></g></g></g><g clip-path="url(#id249)"><g clip-path="url(#id250)"><g clip-path="url(#id251)"><g clip-path="url(#id252)"><path fill="#231f20" d="M 37.835938 37.828125 C 37.867188 37.84375 37.90625 37.84375 37.9375 37.824219 C 37.992188 37.789062 38.011719 37.71875 37.980469 37.660156 C 36.316406 34.859375 32.472656 32.917969 32.433594 32.898438 C 32.375 32.871094 32.304688 32.894531 32.277344 32.949219 C 32.25 33.007812 32.273438 33.078125 32.332031 33.109375 C 32.367188 33.128906 36.152344 35.039062 37.777344 37.78125 C 37.792969 37.804688 37.8125 37.820312 37.835938 37.828125 " fill-opacity="1" fill-rule="nonzero"/></g></g></g></g><g clip-path="url(#id253)"><g clip-path="url(#id254)"><g clip-path="url(#id255)"><g clip-path="url(#id256)"><path fill="#231f20" d="M 36.769531 38.164062 C 36.800781 38.179688 36.839844 38.175781 36.875 38.15625 C 36.929688 38.125 36.949219 38.050781 36.914062 37.996094 C 35.136719 34.933594 32.203125 33.25 32.171875 33.234375 C 32.117188 33.203125 32.042969 33.222656 32.011719 33.277344 C 31.980469 33.332031 32 33.40625 32.058594 33.4375 C 32.085938 33.453125 34.964844 35.109375 36.714844 38.113281 C 36.726562 38.136719 36.746094 38.15625 36.769531 38.164062 " fill-opacity="1" fill-rule="nonzero"/></g></g></g></g><g clip-path="url(#id257)"><g clip-path="url(#id258)"><g clip-path="url(#id259)"><g clip-path="url(#id260)"><path fill="#231f20" d="M 35.261719 37.824219 C 35.292969 37.835938 35.328125 37.835938 35.359375 37.816406 C 35.417969 37.789062 35.4375 37.714844 35.410156 37.660156 C 34.230469 35.421875 31.890625 33.5 31.867188 33.480469 C 31.816406 33.441406 31.742188 33.449219 31.703125 33.5 C 31.660156 33.546875 31.667969 33.621094 31.71875 33.664062 C 31.742188 33.679688 34.046875 35.574219 35.203125 37.769531 C 35.214844 37.792969 35.238281 37.8125 35.261719 37.824219 " fill-opacity="1" fill-rule="nonzero"/></g></g></g></g><g clip-path="url(#id261)"><g clip-path="url(#id262)"><g clip-path="url(#id263)"><g clip-path="url(#id264)"><path fill="#bdbcbc" d="M 11.757812 39.820312 C 13.402344 40.085938 17.132812 41.1875 17.574219 45.261719 C 17.578125 45.296875 17.582031 45.335938 17.589844 45.371094 L 17.59375 45.367188 C 17.59375 45.386719 17.59375 45.40625 17.597656 45.421875 C 17.601562 45.453125 17.605469 45.480469 17.609375 45.507812 L 17.601562 45.527344 C 17.765625 47.902344 20.699219 48.90625 20.699219 48.90625 C 21.632812 47.675781 23.691406 48.292969 22.753906 49.527344 C 22.40625 49.980469 21.890625 50.664062 21.890625 50.664062 C 21.132812 51.550781 20.613281 51.21875 20.085938 50.882812 C 19.863281 50.742188 19.640625 50.601562 19.398438 50.546875 C 18.359375 50.324219 17.085938 49.898438 16.414062 49.507812 C 16.296875 49.441406 15.84375 49.070312 15.796875 48.957031 C 15.796875 48.957031 15.726562 48.878906 15.632812 48.792969 C 15.515625 48.683594 15.359375 48.558594 15.257812 48.558594 C 10.230469 48.519531 7.027344 46.03125 7.929688 42.613281 C 8.363281 40.976562 10.257812 39.578125 11.757812 39.820312 " fill-opacity="1" fill-rule="nonzero"/></g></g></g></g><g clip-path="url(#id265)"><g clip-path="url(#id266)"><g clip-path="url(#id267)"><g clip-path="url(#id268)"><path fill="#ffffff" d="M 8.066406 42.214844 C 8.21875 41.851562 8.4375 41.507812 8.703125 41.195312 C 8.703125 41.195312 8.703125 41.199219 8.703125 41.199219 C 8.4375 41.507812 8.21875 41.851562 8.066406 42.214844 " fill-opacity="1" fill-rule="nonzero"/></g></g></g></g><g clip-path="url(#id269)"><g clip-path="url(#id270)"><g clip-path="url(#id271)"><g clip-path="url(#id272)"><path fill="#cdcccc" d="M 20.125 48.660156 C 19.996094 48.59375 19.847656 48.515625 19.695312 48.421875 C 19.839844 48.507812 19.984375 48.585938 20.125 48.660156 M 18.640625 47.628906 C 18.105469 47.105469 17.664062 46.410156 17.601562 45.527344 L 17.609375 45.507812 C 17.605469 45.480469 17.601562 45.453125 17.597656 45.421875 C 17.59375 45.40625 17.59375 45.386719 17.59375 45.367188 L 17.589844 45.371094 C 17.582031 45.335938 17.578125 45.296875 17.574219 45.261719 C 17.273438 42.476562 15.433594 41.082031 13.777344 40.390625 C 13.007812 40.070312 12.277344 39.90625 11.757812 39.820312 C 10.722656 39.652344 9.503906 40.265625 8.703125 41.199219 C 8.703125 41.199219 8.703125 41.195312 8.703125 41.195312 C 9.503906 40.261719 10.726562 39.652344 11.757812 39.816406 C 12.277344 39.902344 13.007812 40.070312 13.777344 40.386719 C 15.4375 41.078125 17.277344 42.472656 17.578125 45.257812 C 17.582031 45.292969 17.585938 45.332031 17.589844 45.371094 L 17.597656 45.363281 C 17.597656 45.382812 17.597656 45.402344 17.597656 45.421875 C 17.601562 45.449219 17.605469 45.476562 17.609375 45.503906 L 17.601562 45.523438 C 17.65625 46.265625 17.972656 46.882812 18.417969 47.390625 C 18.488281 47.472656 18.5625 47.550781 18.640625 47.628906 " fill-opacity="1" fill-rule="nonzero"/></g></g></g></g><g clip-path="url(#id273)"><g clip-path="url(#id274)"><g clip-path="url(#id275)"><g clip-path="url(#id276)"><path fill="#cdcccc" d="M 18.65625 48.648438 C 17.828125 48.304688 17.023438 47.621094 16.847656 46.304688 L 16.855469 46.285156 C 16.851562 46.257812 16.847656 46.230469 16.839844 46.203125 C 16.839844 46.183594 16.839844 46.164062 16.839844 46.144531 L 16.835938 46.152344 C 16.832031 46.113281 16.824219 46.078125 16.820312 46.039062 C 16.519531 43.253906 14.976562 41.980469 13.507812 41.371094 C 12.824219 41.085938 12.160156 40.945312 11.636719 40.863281 C 10.410156 40.664062 8.652344 41.433594 7.917969 42.671875 C 7.921875 42.648438 7.925781 42.628906 7.933594 42.609375 C 7.96875 42.476562 8.011719 42.34375 8.066406 42.214844 C 8.21875 41.851562 8.4375 41.507812 8.703125 41.199219 C 9.503906 40.265625 10.722656 39.652344 11.757812 39.820312 C 12.277344 39.90625 13.007812 40.070312 13.777344 40.390625 C 15.433594 41.082031 17.273438 42.476562 17.574219 45.261719 C 17.578125 45.296875 17.582031 45.335938 17.589844 45.371094 L 17.59375 45.367188 C 17.59375 45.386719 17.59375 45.40625 17.597656 45.421875 C 17.601562 45.453125 17.605469 45.480469 17.609375 45.507812 L 17.601562 45.527344 C 17.664062 46.410156 18.105469 47.105469 18.640625 47.628906 C 18.972656 47.960938 19.335938 48.214844 19.695312 48.421875 C 19.847656 48.515625 19.996094 48.59375 20.125 48.660156 C 20.320312 48.757812 20.507812 48.84375 20.683594 48.921875 C 20.792969 48.972656 19.707031 49.085938 18.65625 48.648438 " fill-opacity="1" fill-rule="nonzero"/></g></g></g></g><g clip-path="url(#id277)"><g clip-path="url(#id278)"><g clip-path="url(#id279)"><g clip-path="url(#id280)"><path fill="#231f20" d="M 23.070312 48.976562 C 22.992188 48.878906 22.886719 48.824219 22.773438 48.785156 C 22.660156 48.75 22.535156 48.738281 22.410156 48.761719 C 22.285156 48.785156 22.160156 48.84375 22.058594 48.929688 C 21.957031 49.015625 21.875 49.132812 21.839844 49.257812 C 21.953125 49.195312 22.046875 49.136719 22.144531 49.097656 C 22.238281 49.058594 22.335938 49.03125 22.433594 49.011719 C 22.53125 48.996094 22.628906 48.984375 22.734375 48.980469 C 22.839844 48.976562 22.949219 48.976562 23.070312 48.976562 " fill-opacity="1" fill-rule="nonzero"/></g></g></g></g><g clip-path="url(#id281)"><g clip-path="url(#id282)"><g clip-path="url(#id283)"><g clip-path="url(#id284)"><path fill="#231f20" d="M 22.671875 48.425781 C 22.609375 48.339844 22.515625 48.285156 22.410156 48.253906 C 22.308594 48.226562 22.1875 48.234375 22.078125 48.277344 C 21.96875 48.320312 21.875 48.398438 21.800781 48.488281 C 21.730469 48.578125 21.675781 48.679688 21.652344 48.792969 C 21.753906 48.742188 21.835938 48.683594 21.914062 48.632812 C 21.992188 48.585938 22.070312 48.542969 22.144531 48.515625 C 22.21875 48.484375 22.296875 48.464844 22.386719 48.453125 C 22.472656 48.441406 22.5625 48.4375 22.671875 48.425781 " fill-opacity="1" fill-rule="nonzero"/></g></g></g></g><g clip-path="url(#id285)"><g clip-path="url(#id286)"><g clip-path="url(#id287)"><g clip-path="url(#id288)"><path fill="#231f20" d="M 22.699219 49.671875 C 22.636719 49.585938 22.542969 49.527344 22.4375 49.5 C 22.335938 49.472656 22.214844 49.480469 22.105469 49.523438 C 21.996094 49.566406 21.902344 49.640625 21.828125 49.730469 C 21.757812 49.820312 21.707031 49.921875 21.679688 50.039062 C 21.78125 49.984375 21.863281 49.925781 21.941406 49.878906 C 22.023438 49.828125 22.097656 49.789062 22.171875 49.757812 C 22.246094 49.730469 22.324219 49.707031 22.414062 49.699219 C 22.5 49.683594 22.589844 49.683594 22.699219 49.671875 " fill-opacity="1" fill-rule="nonzero"/></g></g></g></g></svg>