<svg xmlns="http://www.w3.org/2000/svg" xmlns:xlink="http://www.w3.org/1999/xlink" width="100" zoomAndPan="magnify" viewBox="0 0 75 74.999997" height="100" preserveAspectRatio="xMidYMid meet" version="1.0"><defs><clipPath id="id1"><path d="M 46 19 L 71 19 L 71 43 L 46 43 Z M 46 19 " clip-rule="nonzero"/></clipPath><clipPath id="id2"><path d="M 3.300781 8.847656 L 66.570312 -3.691406 L 78.234375 55.164062 L 14.964844 67.703125 Z M 3.300781 8.847656 " clip-rule="nonzero"/></clipPath><clipPath id="id3"><path d="M 3.300781 8.847656 L 66.570312 -3.691406 L 78.234375 55.164062 L 14.964844 67.703125 Z M 3.300781 8.847656 " clip-rule="nonzero"/></clipPath><clipPath id="id4"><path d="M 3.300781 8.847656 L 66.570312 -3.691406 L 78.234375 55.164062 L 14.964844 67.703125 Z M 3.300781 8.847656 " clip-rule="nonzero"/></clipPath><clipPath id="id5"><path d="M 50 22 L 70 22 L 70 40 L 50 40 Z M 50 22 " clip-rule="nonzero"/></clipPath><clipPath id="id6"><path d="M 3.300781 8.847656 L 66.570312 -3.691406 L 78.234375 55.164062 L 14.964844 67.703125 Z M 3.300781 8.847656 " clip-rule="nonzero"/></clipPath><clipPath id="id7"><path d="M 3.300781 8.847656 L 66.570312 -3.691406 L 78.234375 55.164062 L 14.964844 67.703125 Z M 3.300781 8.847656 " clip-rule="nonzero"/></clipPath><clipPath id="id8"><path d="M 3.300781 8.847656 L 66.570312 -3.691406 L 78.234375 55.164062 L 14.964844 67.703125 Z M 3.300781 8.847656 " clip-rule="nonzero"/></clipPath><clipPath id="id9"><path d="M 11 10 L 56 10 L 56 64 L 11 64 Z M 11 10 " clip-rule="nonzero"/></clipPath><clipPath id="id10"><path d="M 3.300781 8.847656 L 66.570312 -3.691406 L 78.234375 55.164062 L 14.964844 67.703125 Z M 3.300781 8.847656 " clip-rule="nonzero"/></clipPath><clipPath id="id11"><path d="M 3.300781 8.847656 L 66.570312 -3.691406 L 78.234375 55.164062 L 14.964844 67.703125 Z M 3.300781 8.847656 " clip-rule="nonzero"/></clipPath><clipPath id="id12"><path d="M 3.300781 8.847656 L 66.570312 -3.691406 L 78.234375 55.164062 L 14.964844 67.703125 Z M 3.300781 8.847656 " clip-rule="nonzero"/></clipPath><clipPath id="id13"><path d="M 11 16 L 49 16 L 49 64 L 11 64 Z M 11 16 " clip-rule="nonzero"/></clipPath><clipPath id="id14"><path d="M 3.300781 8.847656 L 66.570312 -3.691406 L 78.234375 55.164062 L 14.964844 67.703125 Z M 3.300781 8.847656 " clip-rule="nonzero"/></clipPath><clipPath id="id15"><path d="M 3.300781 8.847656 L 66.570312 -3.691406 L 78.234375 55.164062 L 14.964844 67.703125 Z M 3.300781 8.847656 " clip-rule="nonzero"/></clipPath><clipPath id="id16"><path d="M 3.300781 8.847656 L 66.570312 -3.691406 L 78.234375 55.164062 L 14.964844 67.703125 Z M 3.300781 8.847656 " clip-rule="nonzero"/></clipPath><clipPath id="id17"><path d="M 13 37 L 45 37 L 45 63 L 13 63 Z M 13 37 " clip-rule="nonzero"/></clipPath><clipPath id="id18"><path d="M 3.300781 8.847656 L 66.570312 -3.691406 L 78.234375 55.164062 L 14.964844 67.703125 Z M 3.300781 8.847656 " clip-rule="nonzero"/></clipPath><clipPath id="id19"><path d="M 3.300781 8.847656 L 66.570312 -3.691406 L 78.234375 55.164062 L 14.964844 67.703125 Z M 3.300781 8.847656 " clip-rule="nonzero"/></clipPath><clipPath id="id20"><path d="M 3.300781 8.847656 L 66.570312 -3.691406 L 78.234375 55.164062 L 14.964844 67.703125 Z M 3.300781 8.847656 " clip-rule="nonzero"/></clipPath><clipPath id="id21"><path d="M 13 37 L 42 37 L 42 50 L 13 50 Z M 13 37 " clip-rule="nonzero"/></clipPath><clipPath id="id22"><path d="M 3.300781 8.847656 L 66.570312 -3.691406 L 78.234375 55.164062 L 14.964844 67.703125 Z M 3.300781 8.847656 " clip-rule="nonzero"/></clipPath><clipPath id="id23"><path d="M 3.300781 8.847656 L 66.570312 -3.691406 L 78.234375 55.164062 L 14.964844 67.703125 Z M 3.300781 8.847656 " clip-rule="nonzero"/></clipPath><clipPath id="id24"><path d="M 3.300781 8.847656 L 66.570312 -3.691406 L 78.234375 55.164062 L 14.964844 67.703125 Z M 3.300781 8.847656 " clip-rule="nonzero"/></clipPath><clipPath id="id25"><path d="M 20 4 L 37 4 L 37 15 L 20 15 Z M 20 4 " clip-rule="nonzero"/></clipPath><clipPath id="id26"><path d="M 3.300781 8.847656 L 66.570312 -3.691406 L 78.234375 55.164062 L 14.964844 67.703125 Z M 3.300781 8.847656 " clip-rule="nonzero"/></clipPath><clipPath id="id27"><path d="M 3.300781 8.847656 L 66.570312 -3.691406 L 78.234375 55.164062 L 14.964844 67.703125 Z M 3.300781 8.847656 " clip-rule="nonzero"/></clipPath><clipPath id="id28"><path d="M 3.300781 8.847656 L 66.570312 -3.691406 L 78.234375 55.164062 L 14.964844 67.703125 Z M 3.300781 8.847656 " clip-rule="nonzero"/></clipPath><clipPath id="id29"><path d="M 13 6 L 53 6 L 53 54 L 13 54 Z M 13 6 " clip-rule="nonzero"/></clipPath><clipPath id="id30"><path d="M 3.300781 8.847656 L 66.570312 -3.691406 L 78.234375 55.164062 L 14.964844 67.703125 Z M 3.300781 8.847656 " clip-rule="nonzero"/></clipPath><clipPath id="id31"><path d="M 3.300781 8.847656 L 66.570312 -3.691406 L 78.234375 55.164062 L 14.964844 67.703125 Z M 3.300781 8.847656 " clip-rule="nonzero"/></clipPath><clipPath id="id32"><path d="M 3.300781 8.847656 L 66.570312 -3.691406 L 78.234375 55.164062 L 14.964844 67.703125 Z M 3.300781 8.847656 " clip-rule="nonzero"/></clipPath></defs><g clip-path="url(#id1)"><g clip-path="url(#id2)"><g clip-path="url(#id3)"><g clip-path="url(#id4)"><path fill="#ff8b49" d="M 58.851562 26.027344 C 56.976562 25.734375 54.976562 24.984375 53.121094 24.101562 C 52.960938 24.027344 52.8125 23.949219 52.652344 23.875 C 52.578125 23.835938 52.503906 23.796875 52.433594 23.773438 C 52.273438 23.699219 52.125 23.621094 51.960938 23.53125 C 48.675781 21.84375 46.117188 19.953125 46.117188 19.953125 L 46.238281 25.171875 C 46.238281 25.171875 48.28125 26.140625 50.75 27.179688 C 50.914062 27.253906 51.070312 27.316406 51.230469 27.390625 C 51.304688 27.429688 51.386719 27.453125 51.460938 27.492188 C 51.621094 27.554688 51.78125 27.628906 51.9375 27.691406 C 54.390625 28.707031 56.992188 29.683594 58.285156 29.851562 C 61.152344 30.226562 71.453125 33.308594 66.285156 35.425781 C 61.117188 37.539062 56.890625 31.898438 54.980469 35.894531 C 53.074219 39.894531 57.125 42.175781 60.234375 42.636719 C 63.347656 43.101562 67.398438 44.253906 70.234375 36.71875 C 73.085938 29.179688 64.5625 26.929688 58.851562 26.027344 Z M 56.445312 36.738281 C 56.183594 35.683594 59.265625 37.347656 61.027344 38.277344 C 60.890625 38.265625 56.691406 37.777344 56.445312 36.738281 Z M 56.445312 36.738281 " fill-opacity="1" fill-rule="nonzero"/></g></g></g></g><g clip-path="url(#id5)"><g clip-path="url(#id6)"><g clip-path="url(#id7)"><g clip-path="url(#id8)"><path fill="#281c22" d="M 57.898438 29.703125 C 57.832031 28.4375 57.78125 27.171875 57.714844 25.90625 C 57.710938 25.828125 57.84375 25.828125 57.847656 25.917969 C 57.914062 27.183594 57.96875 28.449219 58.03125 29.714844 C 58.035156 29.792969 57.902344 29.792969 57.898438 29.703125 Z M 59.574219 29.820312 C 59.484375 28.628906 59.445312 27.425781 59.457031 26.226562 C 59.457031 26.144531 59.335938 26.128906 59.324219 26.210938 C 59.3125 27.425781 59.351562 28.628906 59.445312 29.835938 C 59.464844 29.925781 59.589844 29.898438 59.574219 29.820312 Z M 61.59375 30.648438 C 61.628906 29.296875 61.65625 27.960938 61.691406 26.609375 C 61.691406 26.527344 61.566406 26.511719 61.558594 26.59375 C 61.519531 27.945312 61.496094 29.28125 61.457031 30.632812 C 61.460938 30.710938 61.59375 30.726562 61.59375 30.648438 Z M 63.277344 31.191406 C 63.433594 29.84375 63.535156 28.492188 63.585938 27.136719 C 63.582031 27.058594 63.460938 27.042969 63.449219 27.125 C 63.398438 28.480469 63.308594 29.828125 63.140625 31.179688 C 63.128906 31.261719 63.265625 31.273438 63.277344 31.191406 Z M 65.019531 31.710938 C 65.136719 30.355469 65.25 29.003906 65.355469 27.652344 C 65.363281 27.570312 65.230469 27.558594 65.21875 27.640625 C 65.105469 28.992188 64.988281 30.347656 64.886719 31.699219 C 64.875 31.777344 65.011719 31.792969 65.019531 31.710938 Z M 66.378906 32.414062 C 66.714844 31.175781 67.015625 29.945312 67.28125 28.695312 C 67.304688 28.609375 67.179688 28.566406 67.15625 28.652344 C 66.886719 29.902344 66.589844 31.148438 66.25 32.371094 C 66.238281 32.441406 66.367188 32.496094 66.378906 32.414062 Z M 69.113281 30.046875 C 68.519531 31.191406 68.027344 32.390625 67.636719 33.613281 C 67.613281 33.699219 67.738281 33.738281 67.761719 33.65625 C 68.15625 32.433594 68.636719 31.257812 69.21875 30.121094 C 69.257812 30.046875 69.152344 29.972656 69.113281 30.046875 Z M 58.191406 36.921875 C 58.316406 36.21875 58.441406 35.527344 58.570312 34.824219 C 58.578125 34.742188 58.457031 34.726562 58.433594 34.8125 C 58.308594 35.515625 58.179688 36.207031 58.054688 36.910156 C 58.046875 37.003906 58.167969 37.007812 58.191406 36.921875 Z M 59.324219 37.375 C 59.4375 36.664062 59.558594 35.945312 59.710938 35.238281 C 59.730469 35.152344 59.605469 35.113281 59.582031 35.195312 C 59.433594 35.917969 59.300781 36.648438 59.191406 37.375 C 59.183594 37.457031 59.316406 37.457031 59.324219 37.375 Z M 62.714844 37.78125 C 62.726562 37.167969 62.691406 36.523438 62.769531 35.910156 C 62.777344 35.828125 62.644531 35.8125 62.632812 35.894531 C 62.554688 36.511719 62.589844 37.15625 62.582031 37.769531 C 62.582031 37.847656 62.71875 37.863281 62.714844 37.78125 Z M 64.433594 37.164062 C 64.464844 36.785156 64.453125 36.398438 64.414062 36.007812 C 64.414062 35.929688 64.285156 35.953125 64.289062 36.035156 C 64.320312 36.398438 64.328125 36.769531 64.296875 37.148438 C 64.304688 37.242188 64.421875 37.246094 64.433594 37.164062 Z M 67.699219 34 C 67.597656 35.097656 66.8125 35.945312 65.972656 36.578125 C 65.011719 37.289062 63.90625 37.785156 62.742188 38.042969 C 62.121094 38.179688 61.492188 38.222656 60.867188 38.214844 C 60.867188 38.214844 60.867188 38.203125 60.867188 38.203125 C 60.933594 37.335938 61.003906 36.484375 61.070312 35.621094 C 61.078125 35.539062 60.945312 35.527344 60.933594 35.605469 C 60.867188 36.472656 60.796875 37.324219 60.730469 38.1875 C 60.734375 38.203125 60.734375 38.203125 60.734375 38.203125 C 59.359375 38.140625 58.019531 37.742188 56.824219 37.046875 C 56.960938 36.675781 57.097656 36.289062 57.21875 35.902344 C 57.21875 35.890625 57.226562 35.875 57.226562 35.863281 C 57.257812 35.761719 57.238281 35.660156 57.117188 35.589844 C 55.734375 34.882812 54.335938 34.175781 52.882812 33.597656 C 52.824219 33.566406 52.757812 33.566406 52.710938 33.589844 C 52.605469 33.585938 52.507812 33.632812 52.449219 33.75 C 51.886719 34.910156 51.390625 36.085938 50.972656 37.300781 C 50.953125 37.347656 50.949219 37.386719 50.957031 37.425781 C 50.859375 37.539062 50.828125 37.714844 51.003906 37.800781 C 52.238281 38.488281 53.574219 38.957031 54.875 39.507812 C 54.765625 39.292969 54.667969 39.058594 54.609375 38.832031 C 53.554688 38.386719 52.484375 37.988281 51.476562 37.453125 C 51.875 36.324219 52.332031 35.222656 52.84375 34.136719 C 54.15625 34.664062 55.402344 35.28125 56.65625 35.921875 C 56.5625 36.195312 56.472656 36.464844 56.367188 36.738281 C 56.351562 36.730469 56.335938 36.71875 56.320312 36.707031 C 56.242188 36.65625 56.171875 36.765625 56.25 36.816406 C 56.28125 36.835938 56.292969 36.847656 56.324219 36.867188 C 56.324219 36.867188 56.316406 36.882812 56.316406 36.882812 C 56.539062 37.011719 56.71875 37.121094 56.765625 37.152344 C 59.804688 38.917969 63.832031 38.667969 66.503906 36.261719 C 67.167969 35.664062 67.707031 34.902344 67.789062 33.996094 C 67.828125 33.921875 67.695312 33.921875 67.699219 34 Z M 51.539062 28.222656 C 51.742188 28.101562 51.859375 27.890625 51.9375 27.675781 C 51.777344 27.613281 51.617188 27.539062 51.460938 27.476562 C 51.425781 27.578125 51.382812 27.691406 51.292969 27.765625 C 51.246094 27.800781 51.203125 27.796875 51.152344 27.804688 C 51.140625 27.808594 51.125 27.796875 51.113281 27.800781 C 51.117188 27.746094 51.152344 27.660156 51.167969 27.601562 C 51.183594 27.546875 51.199219 27.492188 51.210938 27.433594 C 51.222656 27.417969 51.21875 27.40625 51.230469 27.390625 C 51.582031 26.164062 51.996094 24.976562 52.433594 23.773438 C 52.476562 23.65625 52.519531 23.542969 52.5625 23.414062 C 52.605469 23.3125 52.71875 23.210938 52.808594 23.339844 C 52.863281 23.40625 52.769531 23.597656 52.742188 23.65625 C 52.714844 23.730469 52.691406 23.800781 52.648438 23.863281 C 52.796875 23.941406 52.957031 24.015625 53.117188 24.089844 C 53.300781 23.679688 53.507812 23.109375 53.015625 22.84375 C 52.722656 22.691406 52.367188 22.773438 52.175781 23.011719 C 52.140625 23.03125 52.121094 23.074219 52.105469 23.117188 C 52.074219 23.164062 52.058594 23.222656 52.046875 23.289062 C 52.019531 23.363281 51.996094 23.445312 51.960938 23.519531 C 51.523438 24.726562 51.097656 25.925781 50.746094 27.152344 C 50.746094 27.152344 50.746094 27.152344 50.738281 27.167969 C 50.738281 27.167969 50.738281 27.183594 50.726562 27.183594 C 50.730469 27.199219 50.71875 27.210938 50.722656 27.226562 C 50.695312 27.296875 50.683594 27.367188 50.65625 27.4375 C 50.648438 27.453125 50.652344 27.480469 50.65625 27.492188 C 50.585938 27.746094 50.558594 28.003906 50.820312 28.191406 C 51.039062 28.359375 51.328125 28.355469 51.539062 28.222656 Z M 51.539062 28.222656 " fill-opacity="1" fill-rule="nonzero"/></g></g></g></g><g clip-path="url(#id9)"><g clip-path="url(#id10)"><g clip-path="url(#id11)"><g clip-path="url(#id12)"><path fill="#85d6ff" d="M 53.621094 54.007812 C 52.109375 56.945312 51.441406 59.179688 46.839844 60.875 C 46.320312 61.070312 45.761719 61.25 45.148438 61.421875 C 42.351562 62.21875 38.410156 62.890625 32.71875 63.449219 C 14.476562 65.238281 17.703125 62.898438 14.277344 47.476562 C 12.5 39.496094 10.632812 30.953125 12.042969 24.113281 C 13.308594 18.007812 17.199219 13.257812 26.128906 11.488281 C 26.128906 11.488281 36.917969 8.9375 42.621094 14.871094 C 46.375 18.785156 47.734375 23.707031 49.539062 29.136719 C 50.476562 31.945312 51.539062 34.902344 53.132812 37.925781 C 57.804688 46.792969 55.863281 49.640625 53.621094 54.007812 Z M 53.621094 54.007812 " fill-opacity="1" fill-rule="nonzero"/></g></g></g></g><g clip-path="url(#id13)"><g clip-path="url(#id14)"><g clip-path="url(#id15)"><g clip-path="url(#id16)"><path fill="#ff8b49" d="M 46.839844 60.886719 C 44.003906 61.941406 39.667969 62.777344 32.710938 63.460938 C 14.476562 65.238281 17.703125 62.898438 14.277344 47.476562 C 12.5 39.496094 10.632812 30.953125 12.042969 24.113281 C 12.042969 24.113281 14.734375 18.773438 23.765625 17.25 C 32.796875 15.726562 39.21875 18.808594 43.527344 35.492188 C 46.933594 48.667969 50.71875 56.671875 46.839844 60.886719 Z M 46.839844 60.886719 " fill-opacity="1" fill-rule="nonzero"/></g></g></g></g><g clip-path="url(#id17)"><g clip-path="url(#id18)"><g clip-path="url(#id19)"><g clip-path="url(#id20)"><path fill="#85d6ff" d="M 38.648438 60.101562 C 31.71875 61.742188 21.546875 62.90625 18.519531 61.738281 C 16.34375 60.90625 14.964844 53.472656 14.359375 49.347656 C 14.277344 48.804688 14.207031 48.3125 14.164062 47.898438 C 14.074219 47.183594 13.921875 46.480469 13.746094 45.796875 C 13.460938 44.683594 13.25 42.753906 15.003906 42.179688 C 17.503906 41.367188 37.203125 37.101562 39.21875 37.929688 C 40.171875 38.324219 41.113281 40.867188 41.957031 43.851562 C 42.882812 47.183594 43.679688 51.070312 44.1875 53.164062 C 45.132812 57.140625 45.578125 58.464844 38.648438 60.101562 Z M 38.648438 60.101562 " fill-opacity="1" fill-rule="nonzero"/></g></g></g></g><g clip-path="url(#id21)"><g clip-path="url(#id22)"><g clip-path="url(#id23)"><g clip-path="url(#id24)"><path fill="#fffaa4" d="M 41.945312 43.855469 C 41.757812 43.917969 29.429688 48.582031 14.359375 49.347656 C 14.277344 48.804688 14.207031 48.3125 14.164062 47.898438 C 14.074219 47.183594 13.921875 46.480469 13.746094 45.796875 C 13.460938 44.683594 13.25 42.753906 15.003906 42.179688 C 17.503906 41.367188 37.203125 37.101562 39.21875 37.929688 C 40.160156 38.328125 41.113281 40.867188 41.945312 43.855469 Z M 41.945312 43.855469 " fill-opacity="1" fill-rule="nonzero"/></g></g></g></g><g clip-path="url(#id25)"><g clip-path="url(#id26)"><g clip-path="url(#id27)"><g clip-path="url(#id28)"><path fill="#ff8b49" d="M 30.785156 7.382812 C 25.636719 8.335938 25.847656 9.734375 25.710938 10.785156 C 25.578125 11.835938 25.015625 13.941406 22.554688 14.496094 C 20.097656 15.050781 19.808594 14.601562 22.265625 13.023438 C 24.71875 11.445312 23.589844 7.09375 27.4375 5.199219 C 31.285156 3.304688 33.785156 4.222656 34.222656 8.035156 C 34.492188 10.402344 35.644531 11.476562 36.492188 11.933594 C 36.832031 12.121094 36.800781 12.621094 36.445312 12.769531 C 31.332031 14.953125 30.785156 7.382812 30.785156 7.382812 Z M 30.785156 7.382812 " fill-opacity="1" fill-rule="nonzero"/></g></g></g></g><g clip-path="url(#id29)"><g clip-path="url(#id30)"><g clip-path="url(#id31)"><g clip-path="url(#id32)"><path fill="#281c22" d="M 34.011719 13.050781 C 34.085938 13.089844 34.015625 13.199219 33.941406 13.160156 C 33.070312 12.707031 32.351562 12.023438 31.828125 11.183594 C 31.34375 10.402344 31.0625 9.523438 30.960938 8.613281 C 30.898438 8.027344 30.859375 7.355469 30.367188 6.949219 C 29.957031 6.617188 29.390625 6.636719 28.90625 6.730469 C 26.960938 7.128906 25.230469 8.484375 24.230469 10.1875 C 24.191406 10.261719 24.085938 10.1875 24.125 10.113281 C 24.6875 9.152344 25.460938 8.320312 26.398438 7.695312 C 27.578125 6.902344 30.386719 5.574219 30.957031 7.722656 C 31.105469 8.277344 31.089844 8.867188 31.226562 9.425781 C 31.359375 9.945312 31.550781 10.453125 31.816406 10.933594 C 32.328125 11.828125 33.085938 12.582031 34.011719 13.050781 Z M 49.828125 30.0625 C 49.851562 29.980469 49.734375 29.9375 49.699219 30.023438 C 49.078125 31.890625 48.273438 33.710938 47.226562 35.382812 C 46 32.125 44.699219 28.910156 43.253906 25.75 C 41.890625 22.816406 40.300781 19.871094 37.847656 17.707031 C 35.636719 15.765625 32.914062 14.800781 30.007812 14.628906 C 27.117188 14.457031 24.144531 14.886719 21.34375 15.601562 C 18.335938 16.371094 15.339844 17.695312 13.40625 20.234375 C 13.355469 20.300781 13.460938 20.371094 13.515625 20.308594 C 15.246094 18.023438 17.871094 16.714844 20.566406 15.941406 C 23.292969 15.148438 26.234375 14.6875 29.089844 14.734375 C 32.023438 14.777344 34.882812 15.515625 37.210938 17.367188 C 39.738281 19.367188 41.414062 22.21875 42.78125 25.101562 C 44.410156 28.503906 45.804688 32.003906 47.125 35.535156 C 46.367188 36.722656 45.488281 37.828125 44.449219 38.792969 C 44.394531 38.84375 44.480469 38.949219 44.535156 38.898438 C 47.09375 36.5 48.730469 33.34375 49.828125 30.0625 Z M 52.007812 35.445312 C 51.097656 38.820312 48.945312 41.777344 46.058594 43.707031 C 45.984375 43.746094 45.925781 43.636719 45.992188 43.585938 C 48.859375 41.6875 50.976562 38.738281 51.878906 35.40625 C 51.90625 35.335938 52.03125 35.375 52.007812 35.445312 Z M 41.9375 43.960938 C 40.003906 44.625 38.0625 45.238281 36.105469 45.785156 C 30.308594 47.410156 24.363281 48.535156 18.367188 49.140625 L 18.019531 53.597656 L 17.371094 53.726562 L 17.089844 53.4375 L 17.613281 49.210938 C 16.535156 49.316406 15.441406 49.398438 14.355469 49.46875 C 14.277344 49.472656 14.25 49.34375 14.332031 49.339844 C 16.394531 49.210938 18.460938 49.015625 20.53125 48.765625 C 27.792969 47.871094 34.960938 46.222656 41.886719 43.839844 C 41.964844 43.824219 42.023438 43.933594 41.9375 43.960938 Z M 41.9375 43.960938 " fill-opacity="1" fill-rule="nonzero"/></g></g></g></g></svg>