<svg xmlns="http://www.w3.org/2000/svg" xmlns:xlink="http://www.w3.org/1999/xlink" width="100" zoomAndPan="magnify" viewBox="0 0 75 74.999997" height="100" preserveAspectRatio="xMidYMid meet" version="1.0"><defs><clipPath id="id1"><path d="M 37 31 L 68 31 L 68 63 L 37 63 Z M 37 31 " clip-rule="nonzero"/></clipPath><clipPath id="id2"><path d="M 5.5 13.132812 L 51.695312 0.0976562 L 69.210938 62.175781 L 23.011719 75.210938 Z M 5.5 13.132812 " clip-rule="nonzero"/></clipPath><clipPath id="id3"><path d="M 5.5 13.132812 L 51.695312 0.0976562 L 69.210938 62.175781 L 23.011719 75.210938 Z M 5.5 13.132812 " clip-rule="nonzero"/></clipPath><clipPath id="id4"><path d="M 5.5 13.132812 L 51.695312 0.0976562 L 69.210938 62.175781 L 23.011719 75.210938 Z M 5.5 13.132812 " clip-rule="nonzero"/></clipPath><clipPath id="id5"><path d="M 40 31 L 68 31 L 68 58 L 40 58 Z M 40 31 " clip-rule="nonzero"/></clipPath><clipPath id="id6"><path d="M 5.5 13.132812 L 51.695312 0.0976562 L 69.210938 62.175781 L 23.011719 75.210938 Z M 5.5 13.132812 " clip-rule="nonzero"/></clipPath><clipPath id="id7"><path d="M 5.5 13.132812 L 51.695312 0.0976562 L 69.210938 62.175781 L 23.011719 75.210938 Z M 5.5 13.132812 " clip-rule="nonzero"/></clipPath><clipPath id="id8"><path d="M 5.5 13.132812 L 51.695312 0.0976562 L 69.210938 62.175781 L 23.011719 75.210938 Z M 5.5 13.132812 " clip-rule="nonzero"/></clipPath><clipPath id="id9"><path d="M 37 35 L 67 35 L 67 63 L 37 63 Z M 37 35 " clip-rule="nonzero"/></clipPath><clipPath id="id10"><path d="M 5.5 13.132812 L 51.695312 0.0976562 L 69.210938 62.175781 L 23.011719 75.210938 Z M 5.5 13.132812 " clip-rule="nonzero"/></clipPath><clipPath id="id11"><path d="M 5.5 13.132812 L 51.695312 0.0976562 L 69.210938 62.175781 L 23.011719 75.210938 Z M 5.5 13.132812 " clip-rule="nonzero"/></clipPath><clipPath id="id12"><path d="M 5.5 13.132812 L 51.695312 0.0976562 L 69.210938 62.175781 L 23.011719 75.210938 Z M 5.5 13.132812 " clip-rule="nonzero"/></clipPath><clipPath id="id13"><path d="M 9 7 L 47 7 L 47 45 L 9 45 Z M 9 7 " clip-rule="nonzero"/></clipPath><clipPath id="id14"><path d="M 5.5 13.132812 L 51.695312 0.0976562 L 69.210938 62.175781 L 23.011719 75.210938 Z M 5.5 13.132812 " clip-rule="nonzero"/></clipPath><clipPath id="id15"><path d="M 5.5 13.132812 L 51.695312 0.0976562 L 69.210938 62.175781 L 23.011719 75.210938 Z M 5.5 13.132812 " clip-rule="nonzero"/></clipPath><clipPath id="id16"><path d="M 5.5 13.132812 L 51.695312 0.0976562 L 69.210938 62.175781 L 23.011719 75.210938 Z M 5.5 13.132812 " clip-rule="nonzero"/></clipPath><clipPath id="id17"><path d="M 16 14 L 31 14 L 31 30 L 16 30 Z M 16 14 " clip-rule="nonzero"/></clipPath><clipPath id="id18"><path d="M 5.5 13.132812 L 51.695312 0.0976562 L 69.210938 62.175781 L 23.011719 75.210938 Z M 5.5 13.132812 " clip-rule="nonzero"/></clipPath><clipPath id="id19"><path d="M 5.5 13.132812 L 51.695312 0.0976562 L 69.210938 62.175781 L 23.011719 75.210938 Z M 5.5 13.132812 " clip-rule="nonzero"/></clipPath><clipPath id="id20"><path d="M 5.5 13.132812 L 51.695312 0.0976562 L 69.210938 62.175781 L 23.011719 75.210938 Z M 5.5 13.132812 " clip-rule="nonzero"/></clipPath><clipPath id="id21"><path d="M 10 8 L 46 8 L 46 44 L 10 44 Z M 10 8 " clip-rule="nonzero"/></clipPath><clipPath id="id22"><path d="M 5.5 13.132812 L 51.695312 0.0976562 L 69.210938 62.175781 L 23.011719 75.210938 Z M 5.5 13.132812 " clip-rule="nonzero"/></clipPath><clipPath id="id23"><path d="M 5.5 13.132812 L 51.695312 0.0976562 L 69.210938 62.175781 L 23.011719 75.210938 Z M 5.5 13.132812 " clip-rule="nonzero"/></clipPath><clipPath id="id24"><path d="M 5.5 13.132812 L 51.695312 0.0976562 L 69.210938 62.175781 L 23.011719 75.210938 Z M 5.5 13.132812 " clip-rule="nonzero"/></clipPath><clipPath id="id25"><path d="M 39 11 L 42 11 L 42 14 L 39 14 Z M 39 11 " clip-rule="nonzero"/></clipPath><clipPath id="id26"><path d="M 5.5 13.132812 L 51.695312 0.0976562 L 69.210938 62.175781 L 23.011719 75.210938 Z M 5.5 13.132812 " clip-rule="nonzero"/></clipPath><clipPath id="id27"><path d="M 5.5 13.132812 L 51.695312 0.0976562 L 69.210938 62.175781 L 23.011719 75.210938 Z M 5.5 13.132812 " clip-rule="nonzero"/></clipPath><clipPath id="id28"><path d="M 5.5 13.132812 L 51.695312 0.0976562 L 69.210938 62.175781 L 23.011719 75.210938 Z M 5.5 13.132812 " clip-rule="nonzero"/></clipPath><clipPath id="id29"><path d="M 14 7 L 47 7 L 47 39 L 14 39 Z M 14 7 " clip-rule="nonzero"/></clipPath><clipPath id="id30"><path d="M 5.5 13.132812 L 51.695312 0.0976562 L 69.210938 62.175781 L 23.011719 75.210938 Z M 5.5 13.132812 " clip-rule="nonzero"/></clipPath><clipPath id="id31"><path d="M 5.5 13.132812 L 51.695312 0.0976562 L 69.210938 62.175781 L 23.011719 75.210938 Z M 5.5 13.132812 " clip-rule="nonzero"/></clipPath><clipPath id="id32"><path d="M 5.5 13.132812 L 51.695312 0.0976562 L 69.210938 62.175781 L 23.011719 75.210938 Z M 5.5 13.132812 " clip-rule="nonzero"/></clipPath></defs><g clip-path="url(#id1)"><g clip-path="url(#id2)"><g clip-path="url(#id3)"><g clip-path="url(#id4)"><path fill="#ffc955" d="M 53.699219 55.476562 L 48.089844 55.480469 C 47.695312 55.488281 47.308594 55.152344 47.300781 54.753906 L 46.8125 48.523438 L 46.714844 48.402344 L 40.535156 48.367188 C 40.140625 48.371094 39.792969 48.027344 39.746094 47.636719 L 39.226562 41.054688 C 39.214844 40.871094 39.121094 40.683594 39.023438 40.5625 L 37.296875 38.8125 C 36.996094 38.496094 37.003906 38.011719 37.28125 37.722656 L 43.011719 31.488281 C 43.316406 31.148438 43.820312 31.152344 44.132812 31.464844 L 66.277344 52.199219 C 66.421875 52.34375 66.503906 52.496094 66.515625 52.679688 L 67.605469 61.925781 C 67.667969 62.390625 67.273438 62.824219 66.808594 62.808594 L 57 62.710938 L 57.023438 62.664062 L 55.753906 62.660156 C 55.359375 62.664062 55.007812 62.320312 54.964844 61.933594 L 54.507812 56.320312 C 54.445312 55.816406 54.105469 55.511719 53.699219 55.476562 Z M 53.699219 55.476562 " fill-opacity="1" fill-rule="nonzero"/></g></g></g></g><g clip-path="url(#id5)"><g clip-path="url(#id6)"><g clip-path="url(#id7)"><g clip-path="url(#id8)"><path fill="#000000" d="M 40.988281 33.558594 L 42.984375 31.386719 C 43.285156 31.050781 43.792969 31.054688 44.105469 31.367188 L 66.242188 52.085938 C 66.390625 52.230469 66.472656 52.382812 66.484375 52.566406 L 67.105469 57.957031 " fill-opacity="0.0471" fill-rule="nonzero"/></g></g></g></g><g clip-path="url(#id9)"><g clip-path="url(#id10)"><g clip-path="url(#id11)"><g clip-path="url(#id12)"><path fill="#000000" d="M 66.785156 62.734375 L 56.980469 62.648438 L 57.007812 62.601562 L 55.734375 62.597656 C 55.339844 62.601562 54.992188 62.261719 54.949219 61.871094 L 54.488281 56.257812 C 54.4375 55.832031 54.097656 55.527344 53.703125 55.53125 L 48.089844 55.535156 C 47.695312 55.539062 47.308594 55.207031 47.304688 54.808594 L 46.816406 48.574219 L 46.714844 48.457031 L 40.546875 48.402344 C 40.148438 48.40625 39.800781 48.066406 39.757812 47.675781 L 39.238281 41.089844 C 39.226562 40.90625 39.132812 40.71875 39.03125 40.601562 L 37.308594 38.851562 C 37.007812 38.535156 38.621094 36.328125 38.894531 35.980469 " fill-opacity="0.0471" fill-rule="nonzero"/><path fill="#000000" d="M 66.785156 62.734375 L 56.980469 62.648438 L 57.007812 62.601562 L 55.734375 62.597656 C 55.339844 62.601562 54.992188 62.261719 54.949219 61.871094 L 54.488281 56.257812 C 54.4375 55.832031 54.097656 55.527344 53.703125 55.53125 L 48.089844 55.535156 C 47.695312 55.539062 47.308594 55.207031 47.304688 54.808594 L 46.816406 48.574219 L 46.714844 48.457031 L 40.546875 48.402344 C 40.148438 48.40625 39.800781 48.066406 39.757812 47.675781 L 39.238281 41.089844 C 39.226562 40.90625 39.132812 40.71875 39.03125 40.601562 L 37.308594 38.851562 C 37.007812 38.535156 38.621094 36.328125 38.894531 35.980469 " fill-opacity="0.0471" fill-rule="nonzero"/></g></g></g></g><g clip-path="url(#id13)"><g clip-path="url(#id14)"><g clip-path="url(#id15)"><g clip-path="url(#id16)"><path fill="#ffc955" d="M 14.875 13.25 C 14.839844 13.261719 14.851562 13.296875 14.824219 13.304688 C 7.875 20.753906 8.273438 32.535156 15.691406 39.597656 C 23.109375 46.65625 34.785156 46.320312 41.734375 38.875 C 42.34375 38.21875 42.914062 37.511719 43.425781 36.792969 C 48.304688 29.699219 47.699219 19.996094 41.742188 13.511719 L 39.667969 11.566406 C 32.292969 5.550781 21.476562 6.195312 14.875 13.25 Z M 28.15625 25.644531 C 28.105469 25.695312 28.074219 25.730469 28.011719 25.789062 C 28.011719 25.789062 27.972656 25.800781 27.984375 25.839844 C 25.875 28.121094 22.3125 28.203125 20.078125 26.0625 C 17.847656 23.921875 17.707031 20.320312 19.8125 18.078125 C 19.8125 18.078125 19.851562 18.070312 19.839844 18.03125 C 19.867188 17.984375 19.890625 17.976562 19.917969 17.941406 C 22.03125 15.808594 25.484375 15.714844 27.710938 17.832031 C 29.902344 19.917969 30.085938 23.386719 28.15625 25.644531 Z M 28.15625 25.644531 " fill-opacity="1" fill-rule="nonzero"/></g></g></g></g><g clip-path="url(#id17)"><g clip-path="url(#id18)"><g clip-path="url(#id19)"><g clip-path="url(#id20)"><path fill="#000000" d="M 25.851562 28.78125 C 23.507812 29.441406 20.9375 28.816406 19.160156 27.121094 C 17.777344 25.828125 17 24.066406 16.945312 22.222656 C 16.890625 20.335938 17.53125 18.535156 18.820312 17.195312 L 18.871094 17.140625 C 19.742188 16.238281 20.824219 15.558594 21.988281 15.230469 C 24.367188 14.558594 26.855469 15.167969 28.675781 16.890625 C 31.453125 19.546875 31.625 24.007812 29.050781 26.808594 L 29.027344 26.855469 C 28.171875 27.765625 27.0625 28.441406 25.851562 28.78125 Z M 22.347656 16.375 C 21.34375 16.65625 20.453125 17.203125 19.75 17.949219 L 19.699219 18.003906 C 18.644531 19.144531 18.117188 20.605469 18.160156 22.171875 C 18.207031 23.738281 18.871094 25.199219 20.003906 26.269531 C 21.492188 27.683594 23.601562 28.226562 25.574219 27.667969 C 26.582031 27.386719 27.507812 26.828125 28.191406 26.046875 C 28.191406 26.046875 28.226562 26.039062 28.214844 26 C 30.375 23.664062 30.246094 19.96875 27.917969 17.773438 C 26.398438 16.328125 24.335938 15.8125 22.347656 16.375 Z M 22.347656 16.375 " fill-opacity="0.0471" fill-rule="nonzero"/></g></g></g></g><g clip-path="url(#id21)"><g clip-path="url(#id22)"><g clip-path="url(#id23)"><g clip-path="url(#id24)"><path fill="#000000" d="M 33.148438 43.195312 C 27.214844 44.871094 20.75 43.257812 16.25 38.996094 C 9.171875 32.242188 8.773438 20.980469 15.414062 13.835938 C 17.609375 11.488281 20.386719 9.792969 23.441406 8.933594 C 29.375 7.257812 35.839844 8.875 40.335938 13.132812 C 43.785156 16.402344 45.761719 20.820312 45.914062 25.582031 C 46.0625 30.332031 44.394531 34.832031 41.179688 38.308594 C 38.976562 40.640625 36.222656 42.328125 33.148438 43.195312 Z M 23.871094 10.457031 C 21.085938 11.242188 18.5625 12.800781 16.558594 14.941406 C 10.527344 21.433594 10.855469 31.699219 17.332031 37.851562 C 21.488281 41.800781 27.25 43.214844 32.703125 41.675781 C 35.488281 40.890625 38.015625 39.335938 40.015625 37.191406 C 42.933594 34.066406 44.476562 29.921875 44.347656 25.609375 C 44.214844 21.296875 42.390625 17.265625 39.265625 14.265625 C 35.109375 10.363281 29.375 8.90625 23.871094 10.457031 Z M 23.871094 10.457031 " fill-opacity="0.0471" fill-rule="nonzero"/></g></g></g></g><g clip-path="url(#id25)"><g clip-path="url(#id26)"><g clip-path="url(#id27)"><g clip-path="url(#id28)"><path fill="#ffc955" d="M 40.894531 12.53125 C 40.5 12.164062 40.117188 11.84375 39.707031 11.515625 L 41.777344 13.460938 C 41.507812 13.164062 41.195312 12.847656 40.894531 12.53125 Z M 40.894531 12.53125 " fill-opacity="1" fill-rule="nonzero"/></g></g></g></g><g clip-path="url(#id29)"><g clip-path="url(#id30)"><g clip-path="url(#id31)"><g clip-path="url(#id32)"><path fill="#000000" d="M 41.765625 13.464844 L 39.695312 11.519531 C 32.292969 5.550781 21.476562 6.195312 14.875 13.25 L 19.941406 17.976562 C 22.054688 15.839844 25.507812 15.75 27.734375 17.867188 C 29.910156 19.953125 30.085938 23.386719 28.15625 25.65625 L 41.882812 38.511719 L 43.460938 36.78125 C 48.355469 29.644531 47.726562 19.945312 41.765625 13.464844 Z M 41.765625 13.464844 " fill-opacity="0.0471" fill-rule="nonzero"/></g></g></g></g></svg>