<svg xmlns="http://www.w3.org/2000/svg" xmlns:xlink="http://www.w3.org/1999/xlink" width="300" zoomAndPan="magnify" viewBox="0 0 224.87999 112.499997" height="150" preserveAspectRatio="xMidYMid meet" version="1.0"><defs><g/><clipPath id="id1"><path d="M 99.742188 35.8125 L 128.117188 35.8125 L 128.117188 57.464844 L 99.742188 57.464844 Z M 99.742188 35.8125 " clip-rule="nonzero"/></clipPath></defs><path stroke-linecap="butt" transform="matrix(0.748369, 0, 0, 0.746681, 39.019001, 98.809759)" fill="none" stroke-linejoin="miter" d="M 0.000708013 -0.00156093 L 200.551555 -0.00156093 " stroke="#000000" stroke-width="1" stroke-opacity="1" stroke-miterlimit="4"/><g clip-path="url(#id1)"><path fill="#000000" d="M 106.046875 45.09375 L 99.765625 51.28125 L 106.046875 57.464844 L 106.046875 52.828125 L 117.078125 52.828125 L 117.078125 49.734375 L 106.046875 49.734375 Z M 128.09375 42 L 121.816406 35.8125 L 121.816406 40.453125 L 110.78125 40.453125 L 110.78125 43.546875 L 121.816406 43.546875 L 121.816406 48.1875 Z M 128.09375 42 " fill-opacity="1" fill-rule="nonzero"/></g><g fill="#ff1616" fill-opacity="1"><g transform="translate(54.687895, 36.879061)"><g><path d="M 17.667969 -6.09375 L 0 -6.09375 L 0 -0.367188 C 0 -0.203125 0.203125 0 0.449219 0 L 17.667969 0 C 17.957031 0 18.121094 -0.203125 18.121094 -0.367188 L 18.121094 -5.683594 C 18.121094 -5.890625 17.957031 -6.09375 17.667969 -6.09375 Z M 6.257812 -12.351562 L 6.257812 -32.351562 C 6.257812 -32.515625 6.09375 -32.722656 5.847656 -32.722656 L 0.449219 -32.722656 C 0.203125 -32.722656 0 -32.515625 0 -32.351562 L 0 -12.351562 Z M 6.257812 -12.351562 "/></g></g></g><g fill="#ff1616" fill-opacity="1"><g transform="translate(81.84674, 36.879061)"><g><path d="M 18.816406 -16.277344 C 18.816406 -17.996094 17.464844 -19.386719 15.746094 -19.386719 C 14.03125 -19.386719 12.679688 -17.996094 12.679688 -16.277344 C 12.679688 -14.601562 14.03125 -13.210938 15.746094 -13.210938 C 17.464844 -13.210938 18.816406 -14.601562 18.816406 -16.277344 Z M 31.496094 -16.402344 C 31.496094 -24.542969 26.21875 -32.722656 15.789062 -32.722656 C 5.195312 -32.722656 0 -24.542969 0 -16.402344 C 0 -8.222656 5.195312 0 15.789062 0 C 26.21875 0 31.496094 -8.222656 31.496094 -16.402344 Z M 25.359375 -16.277344 C 25.359375 -11.003906 22.128906 -5.726562 15.789062 -5.726562 C 9.367188 -5.726562 6.175781 -11.003906 6.175781 -16.277344 C 6.175781 -21.636719 9.367188 -26.953125 15.789062 -26.953125 C 22.128906 -26.953125 25.359375 -21.636719 25.359375 -16.277344 Z M 25.359375 -16.277344 "/></g></g></g><g fill="#ff1616" fill-opacity="1"><g transform="translate(122.994019, 36.879061)"><g><path d="M 15.011719 -18.160156 C 12.679688 -19.265625 10.390625 -19.265625 10.183594 -19.265625 C 8.097656 -19.265625 6.09375 -20.492188 6.09375 -22.863281 C 6.09375 -25.480469 7.933594 -26.832031 10.183594 -26.832031 C 12.3125 -26.832031 14.109375 -25.726562 14.191406 -23.394531 C 14.191406 -23.273438 14.398438 -23.070312 14.644531 -23.070312 L 19.753906 -23.070312 C 20.042969 -23.070312 20.246094 -23.273438 20.207031 -23.394531 C 20.125 -28.957031 15.789062 -32.722656 10.183594 -32.722656 C 4.949219 -32.722656 0 -29 0 -22.863281 C 0 -19.058594 1.921875 -16.15625 5.316406 -14.601562 C 7.691406 -13.496094 9.898438 -13.496094 10.183594 -13.496094 C 12.023438 -13.414062 14.273438 -11.941406 14.273438 -9.53125 C 14.273438 -7.363281 12.351562 -5.890625 10.183594 -5.890625 C 10.183594 -5.890625 10.183594 -5.890625 10.144531 -5.890625 L 10.144531 0 C 10.183594 0 10.183594 0 10.183594 0 C 15.421875 0 20.328125 -3.394531 20.328125 -9.53125 C 20.328125 -13.375 18.445312 -16.566406 15.011719 -18.160156 Z M 15.011719 -18.160156 "/></g></g></g><g fill="#ff1616" fill-opacity="1"><g transform="translate(152.443367, 36.879061)"><g><path d="M 6.75 -20.859375 L 6.75 -0.367188 C 6.75 -0.203125 6.914062 0 7.199219 0 L 12.476562 0 C 12.761719 0 12.964844 -0.203125 12.964844 -0.367188 L 12.964844 -20.859375 Z M 0.449219 -27.117188 L 19.222656 -27.117188 C 19.511719 -27.117188 19.671875 -27.28125 19.671875 -27.484375 L 19.671875 -32.351562 C 19.671875 -32.515625 19.511719 -32.722656 19.222656 -32.722656 L 0.449219 -32.722656 C 0.203125 -32.722656 0 -32.515625 0 -32.351562 L 0 -27.484375 C 0 -27.28125 0.203125 -27.117188 0.449219 -27.117188 Z M 0.449219 -27.117188 "/></g></g></g><g fill="#229665" fill-opacity="1"><g transform="translate(39.941163, 91.789863)"><g><path d="M 19.101562 -19.386719 L 6.257812 -19.386719 L 6.257812 -26.789062 L 15.542969 -26.789062 L 15.542969 -32.722656 L 0.449219 -32.722656 C 0.203125 -32.722656 0 -32.515625 0 -32.351562 L 0 -0.367188 C 0 -0.203125 0.203125 0 0.449219 0 L 6.257812 0 L 6.257812 -13.457031 L 19.101562 -13.457031 C 19.347656 -13.457031 19.550781 -13.660156 19.550781 -13.824219 L 19.550781 -19.019531 C 19.550781 -19.222656 19.347656 -19.386719 19.101562 -19.386719 Z M 19.101562 -19.386719 "/></g></g></g><g fill="#229665" fill-opacity="1"><g transform="translate(63.827852, 91.789863)"><g><path d="M 18.816406 -16.277344 C 18.816406 -17.996094 17.464844 -19.386719 15.746094 -19.386719 C 14.03125 -19.386719 12.679688 -17.996094 12.679688 -16.277344 C 12.679688 -14.601562 14.03125 -13.210938 15.746094 -13.210938 C 17.464844 -13.210938 18.816406 -14.601562 18.816406 -16.277344 Z M 31.496094 -16.402344 C 31.496094 -24.542969 26.21875 -32.722656 15.789062 -32.722656 C 5.195312 -32.722656 0 -24.542969 0 -16.402344 C 0 -8.222656 5.195312 0 15.789062 0 C 26.21875 0 31.496094 -8.222656 31.496094 -16.402344 Z M 25.359375 -16.277344 C 25.359375 -11.003906 22.128906 -5.726562 15.789062 -5.726562 C 9.367188 -5.726562 6.175781 -11.003906 6.175781 -16.277344 C 6.175781 -21.636719 9.367188 -26.953125 15.789062 -26.953125 C 22.128906 -26.953125 25.359375 -21.636719 25.359375 -16.277344 Z M 25.359375 -16.277344 "/></g></g></g><g fill="#229665" fill-opacity="1"><g transform="translate(100.23051, 91.789863)"><g><path d="M 24.132812 -32.722656 L 18.816406 -32.722656 C 18.527344 -32.722656 18.363281 -32.515625 18.363281 -32.351562 L 18.363281 -10.921875 C 18.363281 -7.609375 15.339844 -6.011719 12.269531 -6.011719 C 9.242188 -6.011719 6.542969 -7.730469 6.175781 -10.960938 L 6.175781 -26.789062 L 0 -26.789062 L 0 -10.921875 C 0 -4.171875 5.523438 0 12.269531 0 C 19.222656 0 24.542969 -4.007812 24.542969 -10.921875 L 24.542969 -32.351562 C 24.542969 -32.515625 24.335938 -32.722656 24.132812 -32.722656 Z M 24.132812 -32.722656 "/></g></g></g><g fill="#229665" fill-opacity="1"><g transform="translate(129.352636, 91.789863)"><g><path d="M 27.078125 -32.722656 L 21.800781 -32.722656 C 21.515625 -32.722656 21.308594 -32.515625 21.308594 -32.351562 L 21.308594 -11.042969 L 6.21875 -32.597656 C 6.175781 -32.679688 5.929688 -32.722656 5.847656 -32.722656 L 0.410156 -32.722656 C 0.203125 -32.722656 0 -32.515625 0 -32.351562 L 0 -7.851562 L 6.257812 -7.851562 L 6.257812 -21.679688 L 21.308594 -0.121094 C 21.351562 -0.0390625 21.597656 0 21.679688 0 L 27.078125 0 C 27.363281 0 27.527344 -0.203125 27.527344 -0.367188 L 27.527344 -32.351562 C 27.527344 -32.515625 27.363281 -32.722656 27.078125 -32.722656 Z M 27.078125 -32.722656 "/></g></g></g><g fill="#229665" fill-opacity="1"><g transform="translate(161.624209, 91.789863)"><g><path d="M 5.808594 -32.722656 L 0.449219 -32.722656 C 0.203125 -32.722656 0 -32.515625 0 -32.351562 L 0 -19.511719 L 6.257812 -19.511719 L 6.257812 -26.75 C 13.375 -27.117188 18.652344 -24.132812 18.652344 -16.359375 C 18.652344 -6.257812 10.226562 -5.847656 6.257812 -6.011719 L 6.257812 -13.210938 L 0 -13.210938 L 0 -0.367188 C 0 -0.203125 0.203125 0 0.449219 0 L 5.808594 0 C 13.949219 0 24.949219 -2.371094 24.949219 -16.359375 C 24.949219 -30.882812 13.785156 -32.722656 5.808594 -32.722656 Z M 5.808594 -32.722656 "/></g></g></g><g fill="#000000" fill-opacity="1"><g transform="translate(65.268692, 109.820779)"><g><path d="M 0.59375 -3.34375 C 0.59375 -3.59375 0.671875 -3.796875 0.828125 -3.953125 C 0.992188 -4.117188 1.207031 -4.203125 1.46875 -4.203125 C 1.738281 -4.203125 1.953125 -4.125 2.109375 -3.96875 C 2.273438 -3.8125 2.359375 -3.597656 2.359375 -3.328125 L 2.359375 -3.171875 C 2.359375 -2.921875 2.28125 -2.710938 2.125 -2.546875 C 1.96875 -2.390625 1.753906 -2.3125 1.484375 -2.3125 C 1.210938 -2.3125 0.992188 -2.390625 0.828125 -2.546875 C 0.671875 -2.710938 0.59375 -2.921875 0.59375 -3.171875 Z M 0.59375 -3.34375 "/></g></g></g><g fill="#000000" fill-opacity="1"><g transform="translate(68.696659, 109.820779)"><g/></g></g><g fill="#000000" fill-opacity="1"><g transform="translate(71.332993, 109.820779)"><g><path d="M 1.5625 -2.46875 L 1.5625 0 L 0.734375 0 L 0.734375 -6.296875 L 3.046875 -6.296875 C 3.742188 -6.296875 4.285156 -6.117188 4.671875 -5.765625 C 5.066406 -5.421875 5.265625 -4.957031 5.265625 -4.375 C 5.265625 -3.757812 5.070312 -3.285156 4.6875 -2.953125 C 4.300781 -2.628906 3.753906 -2.46875 3.046875 -2.46875 Z M 1.5625 -3.140625 L 3.046875 -3.140625 C 3.492188 -3.140625 3.835938 -3.242188 4.078125 -3.453125 C 4.316406 -3.660156 4.4375 -3.960938 4.4375 -4.359375 C 4.4375 -4.734375 4.316406 -5.035156 4.078125 -5.265625 C 3.835938 -5.492188 3.515625 -5.609375 3.109375 -5.609375 L 1.5625 -5.609375 Z M 1.5625 -3.140625 "/></g></g></g><g fill="#000000" fill-opacity="1"><g transform="translate(77.365144, 109.820779)"><g/></g></g><g fill="#000000" fill-opacity="1"><g transform="translate(80.001478, 109.820779)"><g><path d="M 5.578125 0 L 4.734375 0 L 4.734375 -2.90625 L 1.5625 -2.90625 L 1.5625 0 L 0.734375 0 L 0.734375 -6.296875 L 1.5625 -6.296875 L 1.5625 -3.59375 L 4.734375 -3.59375 L 4.734375 -6.296875 L 5.578125 -6.296875 Z M 5.578125 0 "/></g></g></g><g fill="#000000" fill-opacity="1"><g transform="translate(86.760379, 109.820779)"><g/></g></g><g fill="#000000" fill-opacity="1"><g transform="translate(89.396712, 109.820779)"><g><path d="M 1.625 0 L 0.796875 0 L 0.796875 -6.296875 L 1.625 -6.296875 Z M 1.625 0 "/></g></g></g><g fill="#000000" fill-opacity="1"><g transform="translate(92.24934, 109.820779)"><g/></g></g><g fill="#000000" fill-opacity="1"><g transform="translate(94.885673, 109.820779)"><g><path d="M 1.5625 -0.671875 L 4.546875 -0.671875 L 4.546875 0 L 0.734375 0 L 0.734375 -6.296875 L 1.5625 -6.296875 Z M 1.5625 -0.671875 "/></g></g></g><g fill="#000000" fill-opacity="1"><g transform="translate(100.095905, 109.820779)"><g/></g></g><g fill="#000000" fill-opacity="1"><g transform="translate(102.732238, 109.820779)"><g><path d="M 1.625 0 L 0.796875 0 L 0.796875 -6.296875 L 1.625 -6.296875 Z M 1.625 0 "/></g></g></g><g fill="#000000" fill-opacity="1"><g transform="translate(105.584866, 109.820779)"><g/></g></g><g fill="#000000" fill-opacity="1"><g transform="translate(108.221199, 109.820779)"><g><path d="M 1.5625 -2.46875 L 1.5625 0 L 0.734375 0 L 0.734375 -6.296875 L 3.046875 -6.296875 C 3.742188 -6.296875 4.285156 -6.117188 4.671875 -5.765625 C 5.066406 -5.421875 5.265625 -4.957031 5.265625 -4.375 C 5.265625 -3.757812 5.070312 -3.285156 4.6875 -2.953125 C 4.300781 -2.628906 3.753906 -2.46875 3.046875 -2.46875 Z M 1.5625 -3.140625 L 3.046875 -3.140625 C 3.492188 -3.140625 3.835938 -3.242188 4.078125 -3.453125 C 4.316406 -3.660156 4.4375 -3.960938 4.4375 -4.359375 C 4.4375 -4.734375 4.316406 -5.035156 4.078125 -5.265625 C 3.835938 -5.492188 3.515625 -5.609375 3.109375 -5.609375 L 1.5625 -5.609375 Z M 1.5625 -3.140625 "/></g></g></g><g fill="#000000" fill-opacity="1"><g transform="translate(114.253349, 109.820779)"><g/></g></g><g fill="#000000" fill-opacity="1"><g transform="translate(116.889683, 109.820779)"><g><path d="M 1.5625 -2.46875 L 1.5625 0 L 0.734375 0 L 0.734375 -6.296875 L 3.046875 -6.296875 C 3.742188 -6.296875 4.285156 -6.117188 4.671875 -5.765625 C 5.066406 -5.421875 5.265625 -4.957031 5.265625 -4.375 C 5.265625 -3.757812 5.070312 -3.285156 4.6875 -2.953125 C 4.300781 -2.628906 3.753906 -2.46875 3.046875 -2.46875 Z M 1.5625 -3.140625 L 3.046875 -3.140625 C 3.492188 -3.140625 3.835938 -3.242188 4.078125 -3.453125 C 4.316406 -3.660156 4.4375 -3.960938 4.4375 -4.359375 C 4.4375 -4.734375 4.316406 -5.035156 4.078125 -5.265625 C 3.835938 -5.492188 3.515625 -5.609375 3.109375 -5.609375 L 1.5625 -5.609375 Z M 1.5625 -3.140625 "/></g></g></g><g fill="#000000" fill-opacity="1"><g transform="translate(122.921833, 109.820779)"><g/></g></g><g fill="#000000" fill-opacity="1"><g transform="translate(125.558166, 109.820779)"><g><path d="M 1.625 0 L 0.796875 0 L 0.796875 -6.296875 L 1.625 -6.296875 Z M 1.625 0 "/></g></g></g><g fill="#000000" fill-opacity="1"><g transform="translate(128.410794, 109.820779)"><g/></g></g><g fill="#000000" fill-opacity="1"><g transform="translate(131.047131, 109.820779)"><g><path d="M 5.578125 0 L 4.734375 0 L 1.5625 -4.859375 L 1.5625 0 L 0.734375 0 L 0.734375 -6.296875 L 1.5625 -6.296875 L 4.75 -1.421875 L 4.75 -6.296875 L 5.578125 -6.296875 Z M 5.578125 0 "/></g></g></g><g fill="#000000" fill-opacity="1"><g transform="translate(137.806031, 109.820779)"><g/></g></g><g fill="#000000" fill-opacity="1"><g transform="translate(140.442364, 109.820779)"><g><path d="M 4.296875 -2.90625 L 1.5625 -2.90625 L 1.5625 -0.671875 L 4.734375 -0.671875 L 4.734375 0 L 0.734375 0 L 0.734375 -6.296875 L 4.6875 -6.296875 L 4.6875 -5.609375 L 1.5625 -5.609375 L 1.5625 -3.59375 L 4.296875 -3.59375 Z M 4.296875 -2.90625 "/></g></g></g><g fill="#000000" fill-opacity="1"><g transform="translate(145.920801, 109.820779)"><g/></g></g><g fill="#000000" fill-opacity="1"><g transform="translate(148.557134, 109.820779)"><g><path d="M 2.59375 -2.8125 C 1.875 -3.007812 1.351562 -3.257812 1.03125 -3.5625 C 0.707031 -3.863281 0.546875 -4.234375 0.546875 -4.671875 C 0.546875 -5.160156 0.742188 -5.566406 1.140625 -5.890625 C 1.535156 -6.222656 2.050781 -6.390625 2.6875 -6.390625 C 3.113281 -6.390625 3.5 -6.304688 3.84375 -6.140625 C 4.1875 -5.972656 4.445312 -5.738281 4.625 -5.4375 C 4.8125 -5.144531 4.90625 -4.828125 4.90625 -4.484375 L 4.078125 -4.484375 C 4.078125 -4.859375 3.953125 -5.15625 3.703125 -5.375 C 3.460938 -5.59375 3.125 -5.703125 2.6875 -5.703125 C 2.28125 -5.703125 1.960938 -5.609375 1.734375 -5.421875 C 1.503906 -5.242188 1.390625 -5 1.390625 -4.6875 C 1.390625 -4.425781 1.492188 -4.207031 1.703125 -4.03125 C 1.921875 -3.851562 2.289062 -3.691406 2.8125 -3.546875 C 3.34375 -3.398438 3.753906 -3.238281 4.046875 -3.0625 C 4.347656 -2.882812 4.566406 -2.675781 4.703125 -2.4375 C 4.847656 -2.195312 4.921875 -1.914062 4.921875 -1.59375 C 4.921875 -1.082031 4.722656 -0.671875 4.328125 -0.359375 C 3.929688 -0.0546875 3.398438 0.09375 2.734375 0.09375 C 2.296875 0.09375 1.890625 0.0078125 1.515625 -0.15625 C 1.140625 -0.320312 0.847656 -0.550781 0.640625 -0.84375 C 0.441406 -1.132812 0.34375 -1.460938 0.34375 -1.828125 L 1.1875 -1.828125 C 1.1875 -1.441406 1.328125 -1.140625 1.609375 -0.921875 C 1.890625 -0.703125 2.265625 -0.59375 2.734375 -0.59375 C 3.171875 -0.59375 3.503906 -0.679688 3.734375 -0.859375 C 3.972656 -1.035156 4.09375 -1.28125 4.09375 -1.59375 C 4.09375 -1.90625 3.984375 -2.144531 3.765625 -2.3125 C 3.546875 -2.476562 3.15625 -2.644531 2.59375 -2.8125 Z M 2.59375 -2.8125 "/></g></g></g><g fill="#000000" fill-opacity="1"><g transform="translate(154.256195, 109.820779)"><g/></g></g><g fill="#000000" fill-opacity="1"><g transform="translate(156.892528, 109.820779)"><g><path d="M 0.59375 -3.34375 C 0.59375 -3.59375 0.671875 -3.796875 0.828125 -3.953125 C 0.992188 -4.117188 1.207031 -4.203125 1.46875 -4.203125 C 1.738281 -4.203125 1.953125 -4.125 2.109375 -3.96875 C 2.273438 -3.8125 2.359375 -3.597656 2.359375 -3.328125 L 2.359375 -3.171875 C 2.359375 -2.921875 2.28125 -2.710938 2.125 -2.546875 C 1.96875 -2.390625 1.753906 -2.3125 1.484375 -2.3125 C 1.210938 -2.3125 0.992188 -2.390625 0.828125 -2.546875 C 0.671875 -2.710938 0.59375 -2.921875 0.59375 -3.171875 Z M 0.59375 -3.34375 "/></g></g></g><g fill="#000000" fill-opacity="1"><g transform="translate(160.317681, 109.820779)"><g/></g></g></svg>