<svg xmlns="http://www.w3.org/2000/svg" xmlns:xlink="http://www.w3.org/1999/xlink" width="300" zoomAndPan="magnify" viewBox="0 0 224.87999 112.499997" height="150" preserveAspectRatio="xMidYMid meet" version="1.0"><defs><g/><clipPath id="id1"><path d="M 99.5625 39.789062 L 124.949219 39.789062 L 124.949219 59.949219 L 99.5625 59.949219 Z M 99.5625 39.789062 " clip-rule="nonzero"/></clipPath></defs><path stroke-linecap="butt" transform="matrix(0.748727, 0, 0, 0.746681, 44.301574, 97.151924)" fill="none" stroke-linejoin="miter" d="M -0.00105906 0.000562764 L 182.511849 0.000562764 " stroke="#ffffff" stroke-width="1" stroke-opacity="1" stroke-miterlimit="4"/><g clip-path="url(#id1)"><path fill="#ffffff" d="M 105.207031 48.429688 L 99.589844 54.1875 L 105.207031 59.949219 L 105.207031 55.628906 L 115.070312 55.628906 L 115.070312 52.75 L 105.207031 52.75 Z M 124.925781 45.546875 L 119.308594 39.789062 L 119.308594 44.109375 L 109.441406 44.109375 L 109.441406 46.988281 L 119.308594 46.988281 L 119.308594 51.308594 Z M 124.925781 45.546875 " fill-opacity="1" fill-rule="nonzero"/></g><g fill="#ff1616" fill-opacity="1"><g transform="translate(58.560957, 40.75867)"><g><path d="M 16.082031 -5.546875 L 0 -5.546875 L 0 -0.335938 C 0 -0.1875 0.1875 0 0.410156 0 L 16.082031 0 C 16.339844 0 16.488281 -0.1875 16.488281 -0.335938 L 16.488281 -5.175781 C 16.488281 -5.359375 16.339844 -5.546875 16.082031 -5.546875 Z M 5.695312 -11.242188 L 5.695312 -29.441406 C 5.695312 -29.59375 5.546875 -29.777344 5.324219 -29.777344 L 0.410156 -29.777344 C 0.1875 -29.777344 0 -29.59375 0 -29.441406 L 0 -11.242188 Z M 5.695312 -11.242188 "/></g></g></g><g fill="#ff1616" fill-opacity="1"><g transform="translate(83.276702, 40.75867)"><g><path d="M 17.121094 -14.816406 C 17.121094 -16.378906 15.894531 -17.644531 14.332031 -17.644531 C 12.765625 -17.644531 11.539062 -16.378906 11.539062 -14.816406 C 11.539062 -13.289062 12.765625 -12.023438 14.332031 -12.023438 C 15.894531 -12.023438 17.121094 -13.289062 17.121094 -14.816406 Z M 28.660156 -14.925781 C 28.660156 -22.332031 23.859375 -29.777344 14.367188 -29.777344 C 4.726562 -29.777344 0 -22.332031 0 -14.925781 C 0 -7.480469 4.726562 0 14.367188 0 C 23.859375 0 28.660156 -7.480469 28.660156 -14.925781 Z M 23.078125 -14.816406 C 23.078125 -10.011719 20.136719 -5.210938 14.367188 -5.210938 C 8.523438 -5.210938 5.621094 -10.011719 5.621094 -14.816406 C 5.621094 -19.691406 8.523438 -24.53125 14.367188 -24.53125 C 20.136719 -24.53125 23.078125 -19.691406 23.078125 -14.816406 Z M 23.078125 -14.816406 "/></g></g></g><g fill="#ff1616" fill-opacity="1"><g transform="translate(120.722537, 40.75867)"><g><path d="M 13.660156 -16.527344 C 11.539062 -17.53125 9.453125 -17.53125 9.269531 -17.53125 C 7.371094 -17.53125 5.546875 -18.648438 5.546875 -20.808594 C 5.546875 -23.191406 7.222656 -24.417969 9.269531 -24.417969 C 11.203125 -24.417969 12.839844 -23.414062 12.917969 -21.292969 C 12.917969 -21.179688 13.101562 -20.992188 13.324219 -20.992188 L 17.976562 -20.992188 C 18.238281 -20.992188 18.425781 -21.179688 18.386719 -21.292969 C 18.3125 -26.355469 14.367188 -29.777344 9.269531 -29.777344 C 4.503906 -29.777344 0 -26.390625 0 -20.808594 C 0 -17.34375 1.75 -14.703125 4.839844 -13.289062 C 6.996094 -12.285156 9.007812 -12.285156 9.269531 -12.285156 C 10.945312 -12.210938 12.992188 -10.867188 12.992188 -8.671875 C 12.992188 -6.699219 11.242188 -5.359375 9.269531 -5.359375 C 9.269531 -5.359375 9.269531 -5.359375 9.230469 -5.359375 L 9.230469 0 C 9.269531 0 9.269531 0 9.269531 0 C 14.03125 0 18.5 -3.089844 18.5 -8.671875 C 18.5 -12.171875 16.789062 -15.074219 13.660156 -16.527344 Z M 13.660156 -16.527344 "/></g></g></g><g fill="#ff1616" fill-opacity="1"><g transform="translate(147.52274, 40.75867)"><g><path d="M 6.140625 -18.984375 L 6.140625 -0.335938 C 6.140625 -0.1875 6.289062 0 6.550781 0 L 11.351562 0 C 11.613281 0 11.800781 -0.1875 11.800781 -0.335938 L 11.800781 -18.984375 Z M 0.410156 -24.679688 L 17.496094 -24.679688 C 17.753906 -24.679688 17.902344 -24.828125 17.902344 -25.011719 L 17.902344 -29.441406 C 17.902344 -29.59375 17.753906 -29.777344 17.496094 -29.777344 L 0.410156 -29.777344 C 0.1875 -29.777344 0 -29.59375 0 -29.441406 L 0 -25.011719 C 0 -24.828125 0.1875 -24.679688 0.410156 -24.679688 Z M 0.410156 -24.679688 "/></g></g></g><g fill="#229665" fill-opacity="1"><g transform="translate(45.140782, 90.729917)"><g><path d="M 17.382812 -17.644531 L 5.695312 -17.644531 L 5.695312 -24.378906 L 14.144531 -24.378906 L 14.144531 -29.777344 L 0.410156 -29.777344 C 0.1875 -29.777344 0 -29.59375 0 -29.441406 L 0 -0.335938 C 0 -0.1875 0.1875 0 0.410156 0 L 5.695312 0 L 5.695312 -12.246094 L 17.382812 -12.246094 C 17.605469 -12.246094 17.792969 -12.433594 17.792969 -12.582031 L 17.792969 -17.308594 C 17.792969 -17.496094 17.605469 -17.644531 17.382812 -17.644531 Z M 17.382812 -17.644531 "/></g></g></g><g fill="#229665" fill-opacity="1"><g transform="translate(66.87872, 90.729917)"><g><path d="M 17.121094 -14.816406 C 17.121094 -16.378906 15.894531 -17.644531 14.332031 -17.644531 C 12.765625 -17.644531 11.539062 -16.378906 11.539062 -14.816406 C 11.539062 -13.289062 12.765625 -12.023438 14.332031 -12.023438 C 15.894531 -12.023438 17.121094 -13.289062 17.121094 -14.816406 Z M 28.660156 -14.925781 C 28.660156 -22.332031 23.859375 -29.777344 14.367188 -29.777344 C 4.726562 -29.777344 0 -22.332031 0 -14.925781 C 0 -7.480469 4.726562 0 14.367188 0 C 23.859375 0 28.660156 -7.480469 28.660156 -14.925781 Z M 23.078125 -14.816406 C 23.078125 -10.011719 20.136719 -5.210938 14.367188 -5.210938 C 8.523438 -5.210938 5.621094 -10.011719 5.621094 -14.816406 C 5.621094 -19.691406 8.523438 -24.53125 14.367188 -24.53125 C 20.136719 -24.53125 23.078125 -19.691406 23.078125 -14.816406 Z M 23.078125 -14.816406 "/></g></g></g><g fill="#229665" fill-opacity="1"><g transform="translate(100.006742, 90.729917)"><g><path d="M 21.960938 -29.777344 L 17.121094 -29.777344 C 16.863281 -29.777344 16.714844 -29.59375 16.714844 -29.441406 L 16.714844 -9.9375 C 16.714844 -6.921875 13.957031 -5.472656 11.167969 -5.472656 C 8.414062 -5.472656 5.957031 -7.035156 5.621094 -9.976562 L 5.621094 -24.378906 L 0 -24.378906 L 0 -9.9375 C 0 -3.796875 5.023438 0 11.167969 0 C 17.496094 0 22.332031 -3.648438 22.332031 -9.9375 L 22.332031 -29.441406 C 22.332031 -29.59375 22.148438 -29.777344 21.960938 -29.777344 Z M 21.960938 -29.777344 "/></g></g></g><g fill="#229665" fill-opacity="1"><g transform="translate(126.509158, 90.729917)"><g><path d="M 24.640625 -29.777344 L 19.839844 -29.777344 C 19.578125 -29.777344 19.394531 -29.59375 19.394531 -29.441406 L 19.394531 -10.050781 L 5.65625 -29.667969 C 5.621094 -29.742188 5.398438 -29.777344 5.324219 -29.777344 L 0.371094 -29.777344 C 0.1875 -29.777344 0 -29.59375 0 -29.441406 L 0 -7.148438 L 5.695312 -7.148438 L 5.695312 -19.726562 L 19.394531 -0.113281 C 19.429688 -0.0390625 19.652344 0 19.726562 0 L 24.640625 0 C 24.902344 0 25.050781 -0.1875 25.050781 -0.335938 L 25.050781 -29.441406 C 25.050781 -29.59375 24.902344 -29.777344 24.640625 -29.777344 Z M 24.640625 -29.777344 "/></g></g></g><g fill="#229665" fill-opacity="1"><g transform="translate(155.877711, 90.729917)"><g><path d="M 5.285156 -29.777344 L 0.410156 -29.777344 C 0.1875 -29.777344 0 -29.59375 0 -29.441406 L 0 -17.753906 L 5.695312 -17.753906 L 5.695312 -24.34375 C 12.171875 -24.679688 16.972656 -21.960938 16.972656 -14.890625 C 16.972656 -5.695312 9.304688 -5.324219 5.695312 -5.472656 L 5.695312 -12.023438 L 0 -12.023438 L 0 -0.335938 C 0 -0.1875 0.1875 0 0.410156 0 L 5.285156 0 C 12.691406 0 22.707031 -2.160156 22.707031 -14.890625 C 22.707031 -28.101562 12.542969 -29.777344 5.285156 -29.777344 Z M 5.285156 -29.777344 "/></g></g></g><g fill="#ffffff" fill-opacity="1"><g transform="translate(68.182806, 106.828691)"><g><path d="M 0.546875 -3.046875 C 0.546875 -3.265625 0.617188 -3.445312 0.765625 -3.59375 C 0.910156 -3.75 1.101562 -3.828125 1.34375 -3.828125 C 1.582031 -3.828125 1.773438 -3.753906 1.921875 -3.609375 C 2.078125 -3.460938 2.15625 -3.269531 2.15625 -3.03125 L 2.15625 -2.875 C 2.15625 -2.65625 2.082031 -2.472656 1.9375 -2.328125 C 1.789062 -2.179688 1.59375 -2.109375 1.34375 -2.109375 C 1.101562 -2.109375 0.910156 -2.179688 0.765625 -2.328125 C 0.617188 -2.472656 0.546875 -2.660156 0.546875 -2.890625 Z M 0.546875 -3.046875 "/></g></g></g><g fill="#ffffff" fill-opacity="1"><g transform="translate(71.303235, 106.828691)"><g/></g></g><g fill="#ffffff" fill-opacity="1"><g transform="translate(73.703019, 106.828691)"><g><path d="M 1.421875 -2.25 L 1.421875 0 L 0.671875 0 L 0.671875 -5.734375 L 2.78125 -5.734375 C 3.40625 -5.734375 3.894531 -5.570312 4.25 -5.25 C 4.601562 -4.925781 4.78125 -4.503906 4.78125 -3.984375 C 4.78125 -3.421875 4.609375 -2.988281 4.265625 -2.6875 C 3.921875 -2.394531 3.421875 -2.25 2.765625 -2.25 Z M 1.421875 -2.859375 L 2.78125 -2.859375 C 3.1875 -2.859375 3.492188 -2.953125 3.703125 -3.140625 C 3.921875 -3.335938 4.03125 -3.613281 4.03125 -3.96875 C 4.03125 -4.3125 3.921875 -4.582031 3.703125 -4.78125 C 3.492188 -4.988281 3.203125 -5.097656 2.828125 -5.109375 L 1.421875 -5.109375 Z M 1.421875 -2.859375 "/></g></g></g><g fill="#ffffff" fill-opacity="1"><g transform="translate(79.19409, 106.828691)"><g/></g></g><g fill="#ffffff" fill-opacity="1"><g transform="translate(81.593874, 106.828691)"><g><path d="M 5.078125 0 L 4.3125 0 L 4.3125 -2.65625 L 1.421875 -2.65625 L 1.421875 0 L 0.671875 0 L 0.671875 -5.734375 L 1.421875 -5.734375 L 1.421875 -3.265625 L 4.3125 -3.265625 L 4.3125 -5.734375 L 5.078125 -5.734375 Z M 5.078125 0 "/></g></g></g><g fill="#ffffff" fill-opacity="1"><g transform="translate(87.746521, 106.828691)"><g/></g></g><g fill="#ffffff" fill-opacity="1"><g transform="translate(90.146304, 106.828691)"><g><path d="M 1.46875 0 L 0.71875 0 L 0.71875 -5.734375 L 1.46875 -5.734375 Z M 1.46875 0 "/></g></g></g><g fill="#ffffff" fill-opacity="1"><g transform="translate(92.742984, 106.828691)"><g/></g></g><g fill="#ffffff" fill-opacity="1"><g transform="translate(95.142767, 106.828691)"><g><path d="M 1.421875 -0.625 L 4.140625 -0.625 L 4.140625 0 L 0.671875 0 L 0.671875 -5.734375 L 1.421875 -5.734375 Z M 1.421875 -0.625 "/></g></g></g><g fill="#ffffff" fill-opacity="1"><g transform="translate(99.885628, 106.828691)"><g/></g></g><g fill="#ffffff" fill-opacity="1"><g transform="translate(102.285411, 106.828691)"><g><path d="M 1.46875 0 L 0.71875 0 L 0.71875 -5.734375 L 1.46875 -5.734375 Z M 1.46875 0 "/></g></g></g><g fill="#ffffff" fill-opacity="1"><g transform="translate(104.882091, 106.828691)"><g/></g></g><g fill="#ffffff" fill-opacity="1"><g transform="translate(107.281875, 106.828691)"><g><path d="M 1.421875 -2.25 L 1.421875 0 L 0.671875 0 L 0.671875 -5.734375 L 2.78125 -5.734375 C 3.40625 -5.734375 3.894531 -5.570312 4.25 -5.25 C 4.601562 -4.925781 4.78125 -4.503906 4.78125 -3.984375 C 4.78125 -3.421875 4.609375 -2.988281 4.265625 -2.6875 C 3.921875 -2.394531 3.421875 -2.25 2.765625 -2.25 Z M 1.421875 -2.859375 L 2.78125 -2.859375 C 3.1875 -2.859375 3.492188 -2.953125 3.703125 -3.140625 C 3.921875 -3.335938 4.03125 -3.613281 4.03125 -3.96875 C 4.03125 -4.3125 3.921875 -4.582031 3.703125 -4.78125 C 3.492188 -4.988281 3.203125 -5.097656 2.828125 -5.109375 L 1.421875 -5.109375 Z M 1.421875 -2.859375 "/></g></g></g><g fill="#ffffff" fill-opacity="1"><g transform="translate(112.772945, 106.828691)"><g/></g></g><g fill="#ffffff" fill-opacity="1"><g transform="translate(115.172728, 106.828691)"><g><path d="M 1.421875 -2.25 L 1.421875 0 L 0.671875 0 L 0.671875 -5.734375 L 2.78125 -5.734375 C 3.40625 -5.734375 3.894531 -5.570312 4.25 -5.25 C 4.601562 -4.925781 4.78125 -4.503906 4.78125 -3.984375 C 4.78125 -3.421875 4.609375 -2.988281 4.265625 -2.6875 C 3.921875 -2.394531 3.421875 -2.25 2.765625 -2.25 Z M 1.421875 -2.859375 L 2.78125 -2.859375 C 3.1875 -2.859375 3.492188 -2.953125 3.703125 -3.140625 C 3.921875 -3.335938 4.03125 -3.613281 4.03125 -3.96875 C 4.03125 -4.3125 3.921875 -4.582031 3.703125 -4.78125 C 3.492188 -4.988281 3.203125 -5.097656 2.828125 -5.109375 L 1.421875 -5.109375 Z M 1.421875 -2.859375 "/></g></g></g><g fill="#ffffff" fill-opacity="1"><g transform="translate(120.663799, 106.828691)"><g/></g></g><g fill="#ffffff" fill-opacity="1"><g transform="translate(123.063582, 106.828691)"><g><path d="M 1.46875 0 L 0.71875 0 L 0.71875 -5.734375 L 1.46875 -5.734375 Z M 1.46875 0 "/></g></g></g><g fill="#ffffff" fill-opacity="1"><g transform="translate(125.660262, 106.828691)"><g/></g></g><g fill="#ffffff" fill-opacity="1"><g transform="translate(128.060045, 106.828691)"><g><path d="M 5.078125 0 L 4.3125 0 L 1.421875 -4.421875 L 1.421875 0 L 0.671875 0 L 0.671875 -5.734375 L 1.421875 -5.734375 L 4.3125 -1.296875 L 4.3125 -5.734375 L 5.078125 -5.734375 Z M 5.078125 0 "/></g></g></g><g fill="#ffffff" fill-opacity="1"><g transform="translate(134.212691, 106.828691)"><g/></g></g><g fill="#ffffff" fill-opacity="1"><g transform="translate(136.612474, 106.828691)"><g><path d="M 3.90625 -2.65625 L 1.421875 -2.65625 L 1.421875 -0.625 L 4.3125 -0.625 L 4.3125 0 L 0.671875 0 L 0.671875 -5.734375 L 4.265625 -5.734375 L 4.265625 -5.109375 L 1.421875 -5.109375 L 1.421875 -3.265625 L 3.90625 -3.265625 Z M 3.90625 -2.65625 "/></g></g></g><g fill="#ffffff" fill-opacity="1"><g transform="translate(141.599487, 106.828691)"><g/></g></g><g fill="#ffffff" fill-opacity="1"><g transform="translate(143.99927, 106.828691)"><g><path d="M 2.359375 -2.5625 C 1.703125 -2.738281 1.226562 -2.960938 0.9375 -3.234375 C 0.644531 -3.515625 0.5 -3.851562 0.5 -4.25 C 0.5 -4.695312 0.675781 -5.066406 1.03125 -5.359375 C 1.394531 -5.660156 1.863281 -5.8125 2.4375 -5.8125 C 2.832031 -5.8125 3.179688 -5.734375 3.484375 -5.578125 C 3.796875 -5.429688 4.035156 -5.222656 4.203125 -4.953125 C 4.378906 -4.679688 4.46875 -4.390625 4.46875 -4.078125 L 3.703125 -4.078125 C 3.703125 -4.421875 3.59375 -4.691406 3.375 -4.890625 C 3.15625 -5.085938 2.84375 -5.1875 2.4375 -5.1875 C 2.070312 -5.1875 1.785156 -5.101562 1.578125 -4.9375 C 1.367188 -4.78125 1.265625 -4.554688 1.265625 -4.265625 C 1.265625 -4.023438 1.363281 -3.820312 1.5625 -3.65625 C 1.757812 -3.5 2.09375 -3.351562 2.5625 -3.21875 C 3.039062 -3.09375 3.414062 -2.945312 3.6875 -2.78125 C 3.957031 -2.625 4.15625 -2.4375 4.28125 -2.21875 C 4.414062 -2 4.484375 -1.742188 4.484375 -1.453125 C 4.484375 -0.992188 4.300781 -0.625 3.9375 -0.34375 C 3.570312 -0.0625 3.085938 0.078125 2.484375 0.078125 C 2.085938 0.078125 1.71875 0.00390625 1.375 -0.140625 C 1.039062 -0.296875 0.78125 -0.503906 0.59375 -0.765625 C 0.40625 -1.023438 0.3125 -1.320312 0.3125 -1.65625 L 1.078125 -1.65625 C 1.078125 -1.3125 1.203125 -1.039062 1.453125 -0.84375 C 1.710938 -0.644531 2.054688 -0.546875 2.484375 -0.546875 C 2.878906 -0.546875 3.179688 -0.625 3.390625 -0.78125 C 3.609375 -0.945312 3.71875 -1.171875 3.71875 -1.453125 C 3.71875 -1.734375 3.617188 -1.945312 3.421875 -2.09375 C 3.222656 -2.25 2.867188 -2.40625 2.359375 -2.5625 Z M 2.359375 -2.5625 "/></g></g></g><g fill="#ffffff" fill-opacity="1"><g transform="translate(149.187119, 106.828691)"><g/></g></g><g fill="#ffffff" fill-opacity="1"><g transform="translate(151.586902, 106.828691)"><g><path d="M 0.546875 -3.046875 C 0.546875 -3.265625 0.617188 -3.445312 0.765625 -3.59375 C 0.910156 -3.75 1.101562 -3.828125 1.34375 -3.828125 C 1.582031 -3.828125 1.773438 -3.753906 1.921875 -3.609375 C 2.078125 -3.460938 2.15625 -3.269531 2.15625 -3.03125 L 2.15625 -2.875 C 2.15625 -2.65625 2.082031 -2.472656 1.9375 -2.328125 C 1.789062 -2.179688 1.59375 -2.109375 1.34375 -2.109375 C 1.101562 -2.109375 0.910156 -2.179688 0.765625 -2.328125 C 0.617188 -2.472656 0.546875 -2.660156 0.546875 -2.890625 Z M 0.546875 -3.046875 "/></g></g></g><g fill="#ffffff" fill-opacity="1"><g transform="translate(154.702102, 106.828691)"><g/></g></g></svg>